<svg xmlns="http://www.w3.org/2000/svg" width="64" height="64"><circle fill="#c4e2fa" cx="32" cy="32" r="32"/><path fill="#b8dcf8" d="M32 64c17.673 0 32-14.327 32-32S49.673 0 32 0v64z"/><defs><filter id="a" filterUnits="userSpaceOnUse" x="12.267" y="12.268" width="51.471" height="51.473"><feColorMatrix values="1 0 0 0 0 0 1 0 0 0 0 0 1 0 0 0 0 0 1 0"/></filter></defs><mask maskUnits="userSpaceOnUse" x="12.267" y="12.268" width="51.471" height="51.473" id="c"><g filter="url(#a)"><radialGradient id="b" cx="70.78" cy="590.999" r="37.333" gradientTransform="translate(-41.98 -562.2)" gradientUnits="userSpaceOnUse"><stop offset="0" stop-color="#fff"/><stop offset=".239" stop-color="#b2b2b2"/><stop offset=".496" stop-color="#676767"/><stop offset=".709" stop-color="#2f2f2f"/><stop offset=".867" stop-color="#0d0d0d"/><stop offset=".952"/></radialGradient><circle fill="url(#b)" cx="28.8" cy="28.8" r="37.333"/></g></mask><g opacity=".2" mask="url(#c)"><path d="M36.018 63.721l.004-.017-.188.037.038-.188-.188.038.039-.188-.189.037.037-.188-.188.038.037-.188-.188.037.037-.188-.188.038.038-.188-.188.038.036-.188-.188.037.041-.188-.189.04.037-.188-.188.037.037-.188-.188.036.038-.188-.188.04.036-.188-.188.037.039-.188-.188.038.037-.189-.188.039.037-.188-.188.037.037-.191-.188.04.037-.188-.188.039.039-.188-.188.038.037-.188-.188.037.039-.189-.188.039.038-.188-.188.04.037-.191-.189.039.039-.188-.188.04.038-.188-.188.039.039-.189-.188.037.038-.19-.188.04.038-.188-.188.039.049-.186-.216.021.039-.188-.188.038.039-.188-.188.037.038-.189-.188.039.039-.188-.188.037.039-.188-.188.037.039-.189-.19.04.039-.188-.188.037.039-.188-.188.037.039-.189-.188.04.039-.188-.188.037.038-.19-.188.04.039-.188-.188.039.039-.189-.203.029.039-.188-.19.037.039-.191-.188.04.039-.188-.188.039.039-.19-.188.039.039-.188-.188.039.039-.188-.188.039.039-.191-.188.038.037-.188-.188.039.039-.188-.188.04.039-.192-.188.039.038-.189-.188.039.039-.188-.188.04.039-.19-.188.037.024-.191-.188.037.039-.191-.185.036.039-.188-.188.039.039-.188-.188.037.038-.188-.188.037.039-.188-.188.038.039-.188-.188.037.038-.191-.192.048.039-.188-.188.039.039-.188-.188.039.038-.192-.188.04.039-.188-.188.039.039-.189-.189.039.039-.19-.188.039.039-.188-.188.039.039-.188-.188.039.039-.191-.188.039.039-.189-.188.041.038-.189-.189.037.039-.188-.188.036.039-.188-.188.04.037-.188-.188.039.039-.191-.187.038.039-.188-.189.04.039-.189-.188.037.039-.188-.187.038.039-.188-.188.039.039-.188-.188.039.039-.19-.189.038.039-.188-.189.039.039-.189-.189.038.039-.188-.187.038.038-.188-.188.041.039-.189-.188.036.039-.188-.186.037.038-.188-.188.039.039-.188-.188.039.039-.189-.189.038.039-.188-.188.038.039-.188-.188.038.039-.188-.189.038.039-.188-.188.038.039-.188-.188.039.039-.188-.189.037.039-.188-.188.037.039-.188-.188.039.038-.188-.188.038.039-.188-.188.038.039-.188-.189.038.038-.188-.187.038.039-.188-.188.04.039-.188-.189.036.039-.188-.188.039.039-.188-.188.037.039-.188-.187.037.039-.188-.188.039.039-.188-.187.038.039-.188-.189.038.039-.188-.188.038.039-.188-.188.038.037-.188-.188.04.039-.188-.188.036.039-.19-.188.039.039-.188-.281-.004.753-3.772.303.303.149.147.604.604.452.449 2.109 2.112.905.904h.002l.902.903.303.303.904.904.002.002.905.904.904.903.303.304.904.904.301.301.303.305.301.299 1.657 1.658.904.904.454.454.451.45.902.904.307.307.599.598.304.305.002.002.602.601.302.302.002.004.753.75.153.154.752.752.151.152.303.302.148.147.301.303.152.152.303.301.449.453.307.305.055.054a35.376 35.376 0 01-3.653.671zM12.417 32.153l.189.126-.039.025.188.127-.039.024.188.126-.039.026.188.125-.039.025.188.126-.039.025.188.125-.038.026.188.125-.039.024.19.129-.039.024.188.127-.039.025.188.127-.039.024.188.125-.025.017.188.127-.039.023.188.125-.039.025.188.125-.034.027.188.125-.039.023.188.127-.038.023.189.131-.041.023.188.125-.039.025.188.125-.039.025.189.129-.041.023.188.127-.039.027.188.125-.038.025.189.129-.041.024.188.125-.039.024.19.129-.039.025.188.125-.032.035.188.127-.038.024.19.128-.041.025.188.125-.019.006.188.125-.039.023.189.126-.041.029.188.125-.039.024.188.125-.039.024.19.13-.04.023.188.128-.039.024.188.127-.039.025.19.125-.041.027.188.125-.039.025.188.125-.039.027.191.127-.041.025.188.127-.037.029.19.129-.023.008.188.127-.037.021.188.128-.035.025.189.128-.041.035.188.125-.039.025.188.127-.039.026.189.125-.041.026.188.127-.039.025.188.125-.039.025.189.129-.037.025.188.125-.038.027.188.127-.038.025.189.125-.041.029.188.125-.038.023.188.125-.039.027.189.127-.023.01.188.127-.039.023.188.129-.039.025.188.127-.036.025.188.125-.039.025.189.129-.04.024.188.125-.039.024.188.127-.039.027.191.125-.041.026.188.127-.039.024.188.125-.038.025.19.129-.039.024.188.125-.039.026.189.132-.035.024.188.125-.039.024.189.134-.041.029.188.125-.038.023.189.131-.039.023.188.127-.039.025.191.127-.038.029.188.127-.039.024.188.125-.036.024.19.129-.041.025.188.125-.039.024.189.127-.037.031.188.125-.039.024.189.125-.041.029.188.125-.039.024.189.129-.038.025.188.125-.036.027.188.127-.039.025.188.125-.039.024.19.127-.041.026.188.125-.039.027.189.127-.039.024.189.127-.039.026.188.125-.039.025.189.129-.038.024.188.125-.039.024.19.129-.039.025.188.125-.039.026.188.128-.039.023.188.125-.039.032.19.125-.041.029.188.125-.039.023.189.131-.037.024.188.127-.039.025.188.127-.034.031.188.125-.038.023.189.127-.041.027.188.125-.039.028.191.127-.039.024.188.127-.039.026.188.125-.039.025.19.129-.039.024.188.125-.039.024.19.13-.038.024.188.125-.039.026.188.127-.039.027.188.125-.039.025.188.127-.039.024.189.127-.039.026.191.127-.039.027.188.127-.039.027.188.125-.038.023.188.125-.039.025.19.127-.041.027.188.125-.038.025.189.129-.039.025.188.125-.039.027.188.125-.033.035.189.129-.039.023.179.121.004.01-.033.021.089.06.108-.029.019-.029.021.014.006.01-.034.02.09.059.049.075.021-.028.022.017.004.004-.034.023.09.058.049.075.02-.029.02.016.004.006-.035.024.089.058.052.076.02-.029.021.016.004.006-.035.023.089.056.054.077.019-.028.017.008.008.014-.035.021.089.057.053.08.021-.031.021.016.004.008-.041.022.092.059.049.075.021-.028.021.015.004.006-.032.024.09.057.052.077.02-.029.017.009.009.014-.029.027.09.059.052.076.021-.029.021.018.002.004-.035.024.092.06.051.074.017-.029.021.014.008.01-.036.023.092.061.048.074.021-.031.024.018v.006l-.033.022.09.062.048.072.021-.029.02.018.005.004-.036.025.092.059.051.074.021-.027.021.014.004.007-.032.024.088.057.052.076.02-.028.021.013.004.012-.032.021.09.061.047.074.021-.029.022.017.003.004-.036.024.092.063.048.07.021-.029.02.015.006.008-.033.023.082.057.056.08.021-.031.018.011.009.013-.035.022.089.06.051.073.02-.028.021.018.004.004-.034.023.092.06.048.075.021-.029.02.014.006.012-.033.021.088.059.051.078.021-.029.021.013.005.008-.025.031.092.06.049.076.019-.031.025.018.004.006-.037.023.091.063.051.07.02-.029.02.018.006.004-.035.024.088.06.054.078.021-.033.02.016.006.01-.033.021.088.059.051.077.019-.03.022.014.005.011-.035.022.091.062.048.069.021-.023.021.012.005.01-.033.021.09.057.029.066.017-.031.024.016.004.008-.037.021.092.063.051.072.021-.031.021.018.005.006-.038.027.097.061.045.068.02-.025.023.014.004.009-.035.022.09.057.051.079.016-.031.022.015.005.008-.035.021.092.059.048.076.021-.031.023.018.004.008-.033.021.086.059.053.075.019-.028.019.012.01.013-.035.022.089.058.051.079.017-.031.022.016.004.008-.034.021.092.06.047.076.02-.029.021.016.008.007-.033.022.083.059.056.079.021-.033.017.013.01.012-.035.023.089.057.05.078.02-.03.022.015.004.01-.037.021.093.063.049.074.021-.031.021.016-.023-.011-.035.025.092.059.046.072.019-.026.022.013.005.008-.035.023.09.057.05.078.019-.029.023.014.004.01-.035.02.092.064.049.074.021-.031.019.016.008.006-.033.023.083.057.054.08.021-.033.017.013.008.013-.034.022.09.06.049.076.02-.029.023.014.006.008-.035.025.092.059.047.075.021-.029.021.013.006.008-.035.025.089.057.05.076.021-.028.021.013.004.01-.035.023.091.057.049.077.02-.028.023.012.004.009-.035.022.091.062.048.073.021-.03.019.015.007.01-.033.023.088.059.033.061.021-.029.021.014.004.008-.033.025.088.057.066.094.02-.029.027.016v.006l-.033.023.089.058.048.077.021-.029.017.009.008.013-.032.024.088.06.049.074.021-.029.021.014.004.008-.033.025.087.057.052.076.021-.028.021.015.004.006-.033.025.09.057.051.076.02-.028.02.009.006.014-.033.021.086.057.053.079.021-.03.021.014.008.009-.035.024.091.059.048.074.02-.028.021.015.01.01-.039.021.092.061.049.074.02-.029.024.017.004.004-.037.024.093.064.049.069.02-.028.021.018.004.004-.035.025.092.063.048.07.019-.029.021.016.004.006-.033.024.088.058.053.078.021-.031.019.008.006.016-.033.023.089.058.048.075.021-.029.021.014.006.008-.035.024.088.056.05.078.021-.031.021.016.008.01-.037.023.092.061.049.072.019-.027.021.012.004.011-.032.022.09.059.048.074.021-.028.021.013.005.01-.033.023.09.059.048.076.021-.029.021.015.007.01-.035.021.091.063.049.072.02-.031.023.017v.008l-.033.021.091.059.048.076.021-.029.022.017.004.005-.032.024.086.06.053.073.018-.028.021.01.007.016-.036.021.092.058.049.077.019-.031.024.018.004.006-.037.022.093.063.05.07.02-.029.022.018.004.004-.035.025.089.058.051.075.018-.029.021.014.006.008-.035.025.088.059.052.076.022-.03.018.011.004.012-.033.023.092.059.049.077.02-.03.023.017.005.008-.036.022.082.053a32.037 32.037 0 0019.708-19.706l-.009-.004-.053-.08-.021.03-.018-.01-.004-.011.033-.022-.086-.059-.052-.076-.022.028-.02-.013-.009-.008.038-.025-.092-.059-.051-.076-.017.029-.026-.017-.003-.004.037-.024-.092-.063-.05-.07-.021.029-.017-.015-.009-.008.037-.023-.09-.059-.095-.107-.021.029-.018-.013-.008-.008.037-.025-.092-.063-.05-.07-.017.027-.021-.012-.007-.01.034-.023-.086-.059-.053-.077-.022.028-.021-.014-.006-.005.038-.024-.092-.06-.05-.077-.021.031-.017-.014-.009-.008.037-.024-.092-.058-.05-.076-.019.029-.02-.013-.007-.009.036-.023-.088-.06-.053-.079-.022.033-.017-.016-.008-.008.037-.023-.093-.063-.05-.072-.02.03-.022-.017-.004-.006.036-.022-.09-.063-.052-.07-.019.029-.02-.014-.006-.008.033-.025-.086-.059-.055-.079-.021.033-.019-.015-.006-.008.037-.023-.093-.061-.05-.074-.02.031-.021-.018.004-.002.036-.022-.09-.059-.051-.075-.02.028-.021-.012-.006-.008.035-.025-.09-.059-.051-.08-.021.031-.02-.012-.007-.012.037-.021-.09-.063-.052-.072-.021.031-.021-.018-.005-.007.038-.022-.092-.063-.051-.071-.019.029-.022-.017-.004-.004.034-.025-.09-.059-.05-.078-.021.031-.019-.016-.007-.006.037-.023-.092-.059-.05-.077-.021.03-.018-.014-.008-.009.033-.022-.088-.06-.051-.073-.019.027-.016-.014-.004-.004.035-.023-.09-.059-.051-.08-.021.031-.018-.015-.007-.009.038-.021-.092-.063-.051-.073-.021.028-.014-.012-.008-.006.032-.023-.083-.059-.055-.078-.021.032-.017-.013-.009-.01.035-.023-.086-.059-.054-.08-.021.033-.02-.017-.006-.009.037-.021-.092-.063-.051-.075-.021.031-.024-.017-.002-.004.034-.022-.092-.063-.048-.072-.02.031-.021-.018-.009-.008.039-.023-.096-.063-.043-.069-.021.024-.022-.012-.004-.009.035-.024-.092-.063-.05-.069-.018.027-.021-.016-.006-.006.035-.024-.088-.056-.053-.08-.021.031-.018-.015-.004-.005.038-.021-.09-.062-.053-.075.004.048-.017-.013-.008-.008.036-.025-.09-.059-.049-.074-.018.029-.021-.014-.007-.009.036-.024-.088-.057-.053-.078-.02.032-.017-.016-.008-.006.037-.022-.092-.062-.051-.074-.021.029-.017-.013-.009-.009.035-.025-.09-.058-.051-.075-.017.029-.021-.012-.006-.01.034-.025-.088-.059-.052-.076-.023.03-.017-.015-.006-.006.037-.023-.092-.061-.05-.074-.019.031-.023-.018-.004-.005.035-.024-.087-.059-.052-.074-.021.028-.021-.013-.006-.008.037-.025-.093-.059-.05-.078-.011.035-.018-.013-.015-.017.034-.022-.092-.063-.047-.072-.02.031-.021-.018-.004-.006.035-.023-.089-.061-.052-.076-.021.028-.017-.011-.005-.006.035-.023-.09-.059-.052-.08-.021.031-.018-.013-.006-.011.035-.021-.092-.061-.049-.075-.019.03-.016-.012-.006-.006.033-.021-.089-.059-.05-.076-.02.029-.021-.013-.004-.009.033-.024-.09-.06-.049-.074-.021.029-.016-.016-.006-.008.035-.021-.092-.063-.049-.071-.018.03-.021-.017-.004-.008.033-.021-.086-.059-.055-.08-.021.033-.019-.013-.004-.008.033-.024-.085-.06-.053-.079-.022.033-.019-.018-.008-.008.035-.021-.089-.057-.048-.076-.02.028-.017-.012-.009-.007.038-.022-.092-.062-.051-.076-.021.029-.017-.01-.009-.012.037-.023-.092-.061-.05-.074-.02.031-.016-.013-.005-.01.035-.021-.092-.063-.05-.074-.017.031-.021-.016-.006-.006.035-.023-.088-.059-.053-.079-.021.032-.015-.012-.01-.008.027-.031-.09-.061-.05-.075-.02.029-.021-.013-.004-.008.035-.023-.092-.061-.048-.074-.021.031-.021-.016-.005-.01.032-.02-.086-.06-.051-.077-.021.031-.021-.016-.004-.01.032-.025-.086-.053-.048-.077-.019.031-.021-.013-.004-.009.033-.021-.088-.06-.051-.078-.021.031-.018-.012-.006-.013.033-.021-.088-.063-.051-.075-.021.029-.019-.012-.008-.01.033-.021-.088-.058-.05-.08-.018.032-.021-.012-.005-.009.036-.022-.092-.062-.048-.074-.021.029-.024-.018-.002-.004.035-.021L53 33.3l-.05-.075-.017.029-.021-.014-.006-.008.035-.024-.092-.062-.049-.074-.017.028-.021-.012-.004-.005.035-.022-.092-.062-.049-.075-.021.027-.021-.014-.006-.008.033-.021-.082-.06-.056-.08-.021.031-.021-.012-.007-.01.034-.023-.084-.059-.049-.074-.02.027-.021-.016-.004-.005.033-.022-.09-.061-.048-.076-.021.029-.023-.015-.006-.006.037-.024-.09-.06-.05-.074-.017.027-.021-.014-.006-.006.036-.023-.092-.061-.048-.076-.02.029-.021-.012-.008-.009.037-.024-.09-.059-.05-.075-.019.03-.021-.013-.005-.009.022-.025-.09-.06-.05-.077-.019.03-.023-.016-.111-.167-.025.037-.125-.188-.023.041-.13-.189-.024.039-.121-.191-.024.037-.128-.188-.021.039-.129-.188-.025.038-.125-.188-.027.036-.125-.188-.025.039-.121-.19-.025.039-.125-.188-.025.036-.129-.188-.023.039-.125-.188-.025.039-.129-.188-.028.039-.125-.188-.023.039-.129-.19-.025.039-.127-.188-.025.039-.127-.188-.024.039-.13-.189-.023.039-.125-.188-.025.037-.129-.189-.024.037-.125-.188-.024.037-.128-.189-.026.039-.125-.188-.024.039-.129-.188-.024.037-.134-.192-.024.041-.129-.189-.024.039-.125-.188-.026.038-.128-.188-.024.037-.125-.188-.024.039-.13-.188-.023.037-.127-.19-.027.039-.127-.19-.025.038-.127-.188-.023.039-.132-.188-.023.037-.125-.188-.025.037-.129-.188-.028.037-.127-.188-.023.039-.127-.19-.027.039-.125-.188-.027.039-.125-.189-.024.039-.13-.189-.023.037-.125-.188-.025.035-.127-.188-.026.039-.127-.188-.028.036-.127-.188-.023.035-.127-.187-.024.039-.129-.187-.025.037-.129-.189-.026.039-.127-.189-.024.038-.127-.188-.027.039-.125-.188-.024.037-.125-.188-.024.039-.13-.188-.023.036-.127-.188-.029.037-.127-.189-.026.038-.127-.188-.024.037-.125-.188-.025.036-.125-.188-.026.038-.127-.188-.03.037-.127-.188-.025.039-.129-.191-.024.039-.127-.188-.024.037-.125-.189-.025.039-.129-.188-.025.039-.125-.188-.027.036-.127-.188-.024.039-.127-.188-.028.039-.125-.188-.023.035-.127-.187-.026.039-.127-.188-.025.039-.127-.188-.024.036-.127-.188-.024.039-.13-.188-.025.039-.125-.188-.025.036-.127-.188-.024.039-.128-.188-.025.039-.125-.188-.029.038-.127-.19-.024.039-.127-.189-.024.039-.125-.188-.025.039-.129-.19-.025.036-.127-.188-.025.036-.127-.188-.027.039-.125-.188-.025.038-.014-.214-.024.035-.125-.188-.024.039-.127-.187-.028.039-.137-.189-.025.035-.127-.188-.024.039-.129-.188-.025.039-.125-.188-.024.037-.125-.188-.026.039-.127-.189-.025.039-.129-.189-.016.035-.125-.188-.021.039-.127-.191-.025.039-.125-.188-.025.036-.125-.188-.024.038-.129-.19-.024.039-.125-.188-.025.037-.123-.188-.025.039-.127-.189-.027.036-.127-.188-.024.039-.128-.189-.026.037-.125-.188-.024.036-.125-.188-.025.039-.129-.188-.025.037-.127-.188-.025.035-.127-.188-.025.039-.132-.188-.014.039-.129-.189-.024.037-.125-.188-.026.039-.127-.19-.021.039-.125-.188-.024.038-.13-.188-.023.037-.121-.191-.025.039-.127-.188-.027.039-.125-.188-.025.037-.125-.188-.024.039-.127-.188-.026.039-.13-.189-.023.037-.127-.187-.027.039-.125-.188-.026.037-.125-.188-.024.038-.126-.189-.021.032-.126-.188-.022.036-.129-.188-.022.037-.127-.188-.025.039-.128-.189-.024.036-.126-.188-2.133 3.2h.252l-.099.152h.252l-.1.152h.251l-.1.149h.25l-.1.152h.251l-.1.151h.252l-.101.152h.25l-.098.149h.251l-.1.151h.252l-.1.152h.249l-.1.151h.252l-.101.151h.252l-.1.15h.251l-.1.151h.252l-.107.147h.252l-.1.152h.251l-.1.149h.25l-.101.152h.25l-.1.151h.252l-.101.15h.252l-.102.151h.253l-.103.149h.252l-.1.152h.252l-.102.151h.253l-.101.151h.25l-.101.15h.255l-.076.106c-.6-.085-1.199-.143-1.815-.143-2.801 0-5.38.909-7.487 2.434l-.081-.016.1-.1-.252-.049.103-.102-.252-.049.1-.101-.249-.049.1-.1-.254-.051.102-.1-.251-.05.1-.1-.252-.049.101-.1-.252-.049.1-.1-.252-.05.101-.1-.252-.049.1-.1-.251-.049.1-.101-.252-.049.101-.1-.252-.049.1-.1-.253-.049.101-.101-.253-.049.102-.102-.249-.049.1-.1-.253-.049.101-.101-.245-.064.1-.102-.249-.052.1-.1-3.774-.753.755 3.772.1-.1.049.251.101-.1.051.252.1-.101.049.25.1-.1.049.25.101-.101.051.252.1-.1.049.251.1-.1.052.252.1-.1.051.251.1-.1.049.249.101-.1.051.252.1-.1.049.251.1-.1.049.25.101-.101.049.252.1-.1.049.252.1-.101.05.25.1-.1.049.251.1-.1.049.252.101-.101.049.252.1-.1.017.085A12.796 12.796 0 0019.2 32c0 .619.057 1.221.143 1.816l-.108.07v-.25l-.152.1v-.254l-.149.103v-.252l-.151.101v-.25l-.152.101v-.255l-.149.1v-.25l-.15.102v-.252l-.152.1v-.252l-.151.105v-.25l-.152.102v-.252l-.149.102v-.252l-.149.1v-.252l-.152.101v-.252l-.151.1v-.251l-.152.1v-.252l-.149.1v-.251l-.151.1v-.251l-.152.1v-.255l-.151.1v-.251l-.15.098v-.25l-.151.101v-.252l-.151.1v-.252l-.152.101v-.25l-.151.1v-.251l-.15.1v-.252l-.149.109v-.252l-3.2 2.133.188.126-.038.025zm41.937-5.478l.037-.188-.188.039.037-.188-.188.038.038-.188-.188.039.039-.188-.189.039.038-.188-.188.038.037-.188-.188.039.037-.19-.188.039.038-.188-.188.039.037-.188-.188.039.038-.188-.184.038.037-.188-.187.038.037-.188-.188.039.038-.188-.188.039.037-.188-.188.039.038-.188-.188.038.039-.188-.188.039.036-.188-.188.039.038-.188-.188.039.039-.188-.188.039.038-.188-.189.038.041-.188-.188.038.039-.188-.188.039.039-.188-.188.039.037-.188-.189.037.021-.219-.188.038.04-.188-.191.039.039-.189-.188.039.04-.188-.189.036.037-.188-.188.039.037-.189-.188.039.038-.188-.189.039.039-.19-.188.039.037-.188-.188.039.037-.188-.188.039.037-.188-.19.039.04-.188-.188.039.037-.188-.188.039.037-.188-.189.038.04-.188-.188.038.037-.188-.19.039.04-.189-.188.038.038-.188-.188.039.039-.188-.188.039.037-.188-.188.034.039-.188-.188.039.038-.188-.188.038.037-.188-.189.039.041-.188-.19.039.04-.188-.191.039.039-.19-.188.039.04-.188-.188.039.039-.189-.188.039.038-.188-.209.014.041-.19-.188.039.039-.188-.19.039.037-.189-.188.039.04-.188-3.772.755.305.303.149.149.601.604.453.452.754.755.15.149.754.756.904.905.454.454.45.45 3.017 3.019.904.904.905.905.301.301.906.904.354.354 1 1.004h.004l.389.386.515.517h.002l.901.902.903.903.529.529.528.528.904.906.452.449.903.904 2.111 2.111.357.358c.294-1.192.527-2.407.684-3.646l-.022.004.036-.191-.188.037.038-.188-.188.043.037-.188-.188.039.038-.191-.187.037.037-.188-.188.039.037-.188-.188.04.038-.19-.188.041.037-.191-.189.039.04-.189-.188.041.037-.191-.188.039.037-.188-.189.037.04-.188-.188.041.037-.189-.19.037.04-.188-.188.036.038-.188-.188.041.037-.188-.188.04.038-.188-.188.037.039-.191-.188.039.038-.188-.192.039.04-.189-.188.039.039-.188-.209.009.039-.188-.188.037.037-.188-.188.039.037-.188-.189.038.041-.189-.189.038.039-.188-.188.038.037-.187-.188.039.037-.188-.189.039.039-.188-.188.039.037-.188-.188.039.037-.189-.188.037.041-.188-.19.038.037-.189-.188.039.037-.188-.19.038.041-.188-.188.039.037-.188-.188.039.039-.188-.19.039.04-.188-.2.024.038-.189-.188.039.039-.188-.189.039.037-.188-.188.038.038-.188-.188.039.037-.188-.188.039.038-.188-.188.038.036-.188-.188.038.039-.188-.188.039.038-.188-.188.038.037-.188-.188.039.038-.188-.188.039.036-.188-.188.039.037-.188-.188.039.04-.188-.188.039.037-.188-.189.039.04-.19-.19.039.04-.188-.188.039.037-.188-.188.039.038-.188-.188.039.039-.188-.188.039.038-.188-.192.039.04-.188-.188.037.039-.188-.188.039.038-.188-.187.01z"/></g><path fill="#ffd328" d="M34.134 48.533L32 51.732l-2.133-3.199h4.267zm-.003-33.064l-2.133-3.2-2.133 3.2h4.266zm-18.664 14.4l-3.2 2.133 3.2 2.135v-4.268zm33.064 4.265L51.73 32l-3.199-2.133v4.267zm-29.73 8.05l-.753 3.772 3.77-.756-3.017-3.016zM45.195 21.82l.757-3.772-3.772.755 3.015 3.017zM42.18 45.2l3.774.754-.754-3.77-3.02 3.016zM21.818 18.803l-3.774-.753.755 3.772 3.019-3.019zM32 19.2c-7.068 0-12.8 5.732-12.8 12.8 0 7.066 5.732 12.8 12.8 12.8 7.066 0 12.8-5.733 12.8-12.8 0-7.068-5.734-12.8-12.8-12.8z"/></svg>