<svg xmlns="http://www.w3.org/2000/svg" width="64" height="64"><circle fill="#c4e2fa" cx="32" cy="32" r="32"/><path fill="#b8dcf8" d="M32 64c17.673 0 32-14.327 32-32S49.673 0 32 0v64z"/><defs><filter id="a" filterUnits="userSpaceOnUse" x="6.4" y="10.666" width="56.67" height="53.238"><feColorMatrix values="1 0 0 0 0 0 1 0 0 0 0 0 1 0 0 0 0 0 1 0"/></filter></defs><mask maskUnits="userSpaceOnUse" x="6.4" y="10.666" width="56.67" height="53.238" id="c"><g filter="url(#a)"><radialGradient id="b" cx="70.78" cy="590.999" r="37.333" gradientTransform="translate(-41.98 -562.2)" gradientUnits="userSpaceOnUse"><stop offset="0" stop-color="#fff"/><stop offset=".113" stop-color="#e8e8e8"/><stop offset=".349" stop-color="#adadad"/><stop offset=".687" stop-color="#4e4e4e"/><stop offset=".952"/></radialGradient><circle fill="url(#b)" cx="28.8" cy="28.8" r="37.333"/></g></mask><g opacity=".2" mask="url(#c)"><path d="M63.07 39.533l-.104.023.039-.19-.189.038.039-.188-.188.037.037-.19-.188.039.041-.188-.19.037.038-.188-.188.039.037-.191-.188.039.039-.188-.188.039.037-.188-.188.041.036-.192-.189.038.041-.188-.188.039.037-.189-.189.038.037-.188-.188.037.039-.188-.188.041.036-.19-.19.038.039-.188-.184.038.039-.188-.191.039.041-.188-.19.037.04-.188-.188.037.039-.188-.193.04.039-.188-.188.037.039-.189-.189.039.041-.188-.192.037.038-.188-.186.039.038-.188-.188.038.041-.188-.192.038.037-.19-.188.039.038-.189-.188.04.038-.188-.188.037.037-.188-.188.039.039-.188-.188.038.038-.19-.187.04.037-.192-.188.04.038-.188-.186.04.036-.188-.188.04.038-.192-.19.039.04-.189-.191.039.039-.188-.209.017.036-.188-.188.038.039-.188-.188.039.037-.189-.188.041.037-.189-.188.037.037-.188-.188.039.039-.19-.188.039.039-.188-.188.039.037-.189-.188.039.039-.189-.188.038.038-.188-.191.039.039-.191-.188.039.039-.188-.188.038.037-.189-.191.038.039-.188-.188.039.039-.188-.19.039.037-.191-.188.039.039-.188-.188.039.04-.189-.19.039.036-.188-.188.039.041-.188-.188.039.039-.188-.19.037.037-.189-.188.039.04-.188-.188.039.036-.189-.188.038.037-.188-.188.039.037-.188-.188.038.021-.207-.188.039.039-.188-.189.038.039-.19-.188.039.037-.188-.188.039.039-.189-.188.038.037-.188-.188.039.039-.188-.188.039.036-.191-.188.039.037-.188-.188.039.037-.19-.19.039.039-.188-.188.039.04-.188-.188.039.039-.189-.191.039.039-.188-.188.039.039-.188-.19.039.036-.19-.188.039.04-.188-.188.039.037-.188-.188.037.039-.188-.196.036.041-.188-.189.039.039-.189-.189.038.037-.188-.188.039.039-.188-.188.039.037-.191-.188.039.039-.188-.191.039.041-.188-.188.039.037-.188-.188.039.039-.188-.188.039.048-.196-.188.039.039-.188-.188.039.037-.188-.189.039.039-.189-.188.038.038-.188-.188.039.037-.189-.189.037.041-.188-.188.039.037-.188-.19.039.039-.19-.188.037.04-.188-.191.039.037-.189-.188.039.039-.188-.188.039.04-.188-.189.039.039-.188-.19.038.04-.188-.188.039.038-.188-.19.038.041-.188-.192.039.04-.188-.189.039.037-.189-.188.039.037-.189-.188.039.039-.188-.189.039.037-.189-.188.039.038-.188-.188.039.039-.189-.188.038.038-.188-.188.038.037-.188-.188.039.037-.188-.22-.018.04-.188-.188.038.037-.189-.189.039.037-.188-.188.038.036-.19-.188.039.037-.188-.19.039.039-.19-.188.039.041-.188-.192.039.04-.19-.189.039.039-.188-.188.039.039-.188-.19.039.037-.188-.188.039.041-.188-.188.039.039-.188-.191.039.037-.188-.188.039.041-.19-.189.039.037-.188-.186.034.037-.188-.188.038.028-.202-.188.039.038-.188-.188.039.037-.189-.188.038.037-.188-.191.037.04-.188-.188.037.039-.188-.19.039.036-.191-.188.039.04-.188-.188.039.037-.188-.188.038.038-.188-.188.039.039-.188-.189.039.037-.19-.192.029.038-.188-.188.039.037-.189-.187.037.037-.188-.188.04.039-.189-.189.039.039-.189-.188.037.038-.188-3.771.755.148.152.452.452 1.056 1.055.15.152 1.006 1.004.354.352.451.453 1.057 1.056.451.453.381.377.523.527 1.713 1.708 1.004 1.007.305.303.248.251.201.201.076.075.074.076.754.755.829.828a9.659 9.659 0 00-1.677-.169c-.614 0-1.202.089-1.781.209-.033-.028-.059-.063-.09-.09-.052-.044-.096-.104-.146-.15-.054-.044-.097-.104-.15-.149-.055-.049-.1-.108-.154-.155-.054-.045-.094-.103-.146-.148-.055-.045-.096-.104-.149-.149-.054-.047-.101-.107-.153-.153-.051-.046-.095-.105-.147-.15-.052-.044-.097-.104-.152-.149-.05-.047-.096-.107-.147-.152-.055-.047-.096-.106-.151-.151-.054-.047-.096-.106-.149-.152-.053-.044-.092-.102-.146-.145-.055-.047-.096-.106-.152-.153-.052-.047-.098-.107-.15-.154-.053-.045-.092-.102-.146-.145-.056-.047-.102-.108-.157-.158-.053-.045-.095-.103-.147-.147-.056-.045-.097-.104-.149-.149-.053-.047-.097-.107-.152-.154-.053-.045-.092-.102-.145-.147-.058-.047-.102-.108-.158-.153-.05-.044-.092-.105-.144-.148-.206-.177-.431-.322-.647-.484l-.033-.044-.016.018-.044-.03-.092-.139-.024.039-.129-.189-.023.038-.129-.188-.023.038-.127-.189-.027.037-.127-.188-.025.039-.129-.19-.026.039-.125-.188-.024.037-.129-.189-.025.039-.125-.188-.024.039-.127-.188-.024.036-.129-.188-.023.038-.129-.188-.025.037-.125-.188-.025.039-.129-.189-.024.039-.125-.188-.024.039-.129-.19-.027.039-.127-.189-.025.035-.127-.188-.027.041-.127-.189-.025.037-.125-.188-.024.036-.125-.188-.027.039-.127-.188-.038.039-.129-.189-.025.035-.125-.188-.027.039-.127-.187-.025.039-.125-.189-.024.039-.13-.189-.023.038-.125-.188-.027.036-.127-.188-.025.039-.127-.188-.002.015-.125-.188-.027.036-.127-.188-.025.038-.129-.189-.025.039-.117-.188-.025.039-.129-.191-.028.036-.127-.188-.027.039-.125-.188-.024.038-.129-.189-.025.036-.125-.188-.024.039-.127-.188-.024.038-.127-.188-.024.037-.128-.188-.023.039-.125-.191-.02.037-.128-.188-.022.039-.127-.188-.025.036-.125-.189-.024.041-.125-.188-.026.035-.125-.189-.025.037-.127-.188-.024.039-.126-.188-.025.038-.126-.189-.024.037-.13-.188-.025.039-.127-.189-.024.039-.126-.188-.026.039-.126-.19-.025.039-.127-.189-.026.039-.125-.188-.026.039-.126-.188-.021.03-.126-.188-.026.038-.126-.188-.023.036-.126-.189-.025.038-.126-.188-.026.039-.126-.19-.025.037-.126-.188-.026.039-.128-.19-.025.039-.126-.188-.026.037-.125-.188-.026.037-.126-.188-.025.039-.126-.188-.026.039-.126-.188-.025.038-.126-.188-.026.039-.125-.188-.018.032-.126-.188-.023.034-.126-.188-.026.039-.125-.188-.027.039-.126-.191-.025.039-.124-.189-.026.039-.126-.188-.025.039-.126-.188-.026.038-.125-.189-.026.039-.125-.189-.025.037-.126-.188-.026.039-.126-.189-.025.035-.126-.188-.026.039-.125-.188-.026.039-.126-.188-.025.038-.128-.189-.018.032-.126-.188-.023.035-.128-.188-.025.039-.124-.188-.026.039-.127-.189-.025.036-.124-.188-2.133 3.2h.252l-.101.152h.25l-.1.15h.253l-.1.151h.252l-.1.152h.251l-.1.149h.252l-.101.151h.254l-.1.152h.25l-.1.149h.252l-.1.152h.251l-.1.151h.25l-.101.149h.254l-.1.152h.252l-.101.151h.252l-.109.151h.25l-.1.15h.251l-.1.151h.252l-.1.152h.251l-.1.149h.252l-.101.152h.252l-.1.151h.252l-.101.149h.252l-.1.152h.251l-.1.151h.25l-.101.149h.254l-.1.152h.252l-.071.103a12.811 12.811 0 00-1.817-.141 12.71 12.71 0 00-7.49 2.436l-.081-.017.1-.1-.252-.049.101-.1-.252-.049.1-.101-.252-.054.1-.1-.252-.048.1-.1-.25-.052.1-.1-.25-.051.101-.1-.253-.05.1-.101-.251-.05.102-.102-.254-.049.1-.1-.247-.052.1-.101-.254-.051.101-.1-.252-.049.1-.104-.249-.048.1-.1-.252-.049.1-.1-.249-.052.1-.1-.254-.051.101-.1-.25-.052.1-.101-.251-.049.1-.1-3.771-.755.755 3.772.1-.1.051.251.101-.1.049.25.1-.101.051.252.1-.1.05.252.1-.101.049.252.1-.1.049.251.1-.1.05.252.1-.1.049.251.1-.1.051.252.101-.101.049.252.1-.1.049.251.1-.1.051.252.101-.101.049.252.1-.1.051.252.114-.109.049.252.1-.1.049.249.101-.1.049.252.1-.101.049.252.1-.1.018.081a12.713 12.713 0 00-2.432 7.483c0 .617.079 1.211.167 1.805l-.13.088v-.252l-.152.1v-.254l-.149.101v-.25l-.151.1v-.251l-.152.1v-.252l-.151.1v-.251l-.15.1v-.249l-.151.1v-.252l-.149.1v-.251l-.152.1v-.252l-.147.104v-.254l-.149.1v-.25l-.152.101v-.252l-.149.1v-.251l-.152.1v-.252l-.149.1v-.251l-.151.1v-.251l-.152.1v-.251l-.151.1v-.251l-.152.1v-.252l-.149.101v-.252l-.151.1v-.252l-.15.101v-.252l-.151.1v-.251l-.15.1v-.246l-.156.103v-.252L6.4 30.4l.188.126-.039.025.193.126-.039.026.188.126-.039.025.188.124-.038.026.188.125-.039.026.188.126-.039.025.188.126-.037.026.188.126-.039.025.188.126-.039.026.188.125-.039.026.188.126-.039.024.188.126-.039.026.188.126-.039.025.188.125-.024.02.188.127-.036.022.189.126-.041.025.188.125-.038.026.188.127-.039.024.189.125-.041.025.188.125-.039.026.188.127-.039.024.188.125-.039.024.189.125-.039.027.189.127-.041.024.188.125-.039.024.188.127-.039.024.189.127-.039.027.188.127-.038.025.19.125-.022.018.188.125-.039.025.188.127-.039.025.189.127-.037.027.188.125-.039.024.075.05a8.371 8.371 0 00-.769 3.506c0 2.396.995 4.553 2.581 6.104.049.05.099.1.15.148.051.051.1.102.153.15.049.05.1.104.152.152.047.048.096.098.145.144.051.054.102.104.155.156.047.048.097.098.146.144.051.055.102.106.155.154.047.05.096.1.146.146.052.054.101.106.154.154.051.053.102.104.153.152.049.05.099.1.15.146.049.049.096.101.145.147.051.052.102.104.155.155.048.047.097.099.146.146.051.051.104.104.157.154.047.05.096.098.146.146.051.049.102.104.155.153.049.05.098.101.149.147.05.053.099.103.15.149.051.054.1.103.153.152.049.05.1.101.152.149.047.045.096.096.145.145l.155.156.148.148c.051.051.102.102.153.15.049.05.1.102.15.15.049.049.098.1.147.146.051.052.102.104.153.153.049.051.099.101.15.149.049.052.1.103.151.15.049.05.098.1.149.147.052.053.103.105.156.155.049.052.098.099.147.146.049.051.101.101.152.149.049.052.1.101.151.149.049.051.1.103.151.15.05.053.101.104.152.153.049.046.098.097.149.146l.156.154c.047.049.096.096.145.146.051.05.102.104.153.152.05.047.099.1.15.146l.151.154c.049.047.098.1.15.146.049.052.1.104.153.154.049.05.098.101.149.149.05.051.099.101.15.147.049.053.098.103.149.147.049.051.098.103.149.149.062.069.113.122.164.172.049.05.1.104.151.152l.15.147c.049.047.1.101.151.149.049.05.1.101.152.149.049.052.098.102.147.147l.153.154c.049.052.101.104.152.151.049.049.098.099.147.145.051.054.102.105.156.158.047.066.094.116.143.162.051.054.104.106.158.158l.15.149c.049.047.096.097.145.145.051.052.102.105.155.154.05.048.097.1.148.146.051.051.104.104.157.154.049.052.101.1.152.15.047.049.096.098.145.146.049.05.1.101.151.149.049.053.101.104.152.151.048.05.098.103.146.15.051.05.102.104.154.153l.145.145.159.16c.047.046.095.096.144.142.051.054.102.104.153.154.049.05.1.104.151.151.05.053.101.101.152.147.047.05.096.101.145.146.051.051.1.104.154.154.049.051.096.1.146.145l.155.158c.05.049.101.101.152.147.049.048.1.101.151.147.047.049.092.097.141.143.054.055.105.107.161.16.049.048.098.102.146.148.051.049.101.102.154.153.049.045.096.097.147.144.051.053.102.104.154.151.049.056.1.104.151.154l.147.146c.051.051.101.104.154.151.049.054.1.101.151.147.049.053.098.104.149.149.05.052.099.101.148.149.051.051.102.105.155.154.049.051.099.101.15.15.051.051.102.104.155.15.047.049.094.095.141.141.051.055.103.107.156.158.049.051.098.102.147.146.049.049.1.104.152.153.049.05.098.099.147.146.051.053.104.104.157.156.05.049.097.098.148.147.051.051.1.101.151.149.049.051.098.101.149.15.052.05.101.104.154.15.049.049.096.1.147.145.049.053.101.104.152.154.051.053.102.104.155.154.047.049.094.096.143.142.052.053.104.104.156.153a20.237 20.237 0 00.299.298c.049.049.098.102.146.146.051.055.104.108.158.158.05.051.097.098.148.146.051.055.102.104.153.154.047.047.096.096.148.145.047.052.096.1.145.146.053.055.106.11.161.162l.146.145c.049.047.1.103.151.149l.102.104c14.998-.004 27.496-10.397 30.875-24.36z"/></g><path fill="#ffd328" d="M38.934 30.398c0 7.069-5.729 12.802-12.8 12.802-7.068 0-12.8-5.733-12.8-12.802 0-7.068 5.732-12.8 12.8-12.8 7.07 0 12.8 5.732 12.8 12.8zM28.265 13.867l-2.133-3.2-2.133 3.2h4.266zM9.6 28.267L6.4 30.4l3.2 2.131v-4.264zm29.729-8.049l.756-3.772-3.772.755 3.016 3.017zm-23.378-3.017l-3.774-.753.755 3.772 3.019-3.019z"/><path fill="#FFF" d="M45.866 28.265c-.824 0-1.612.136-2.375.33-1.949-3.778-5.884-6.363-10.425-6.363-5.391 0-9.924 3.644-11.295 8.598-.811-.256-1.657-.431-2.552-.431-4.712 0-8.533 3.824-8.533 8.537a8.534 8.534 0 008.533 8.533h26.648c5.305 0 9.601-4.301 9.601-9.602a9.6 9.6 0 00-9.602-9.602z"/></svg>