<svg xmlns="http://www.w3.org/2000/svg" width="64" height="64"><circle fill="#34495E" cx="32" cy="32" r="32"/><path fill="#2C3E50" d="M32 64c17.673 0 32-14.327 32-32S49.673 0 32 0v64z"/><defs><filter id="a" filterUnits="userSpaceOnUse" x="8.55" y="11.296" width="55.115" height="52.704"><feColorMatrix values="1 0 0 0 0 0 1 0 0 0 0 0 1 0 0 0 0 0 1 0"/></filter></defs><mask maskUnits="userSpaceOnUse" x="8.55" y="11.296" width="55.115" height="52.704" id="c"><g filter="url(#a)"><radialGradient id="b" cx="70.78" cy="590.999" r="37.333" gradientTransform="translate(-41.98 -562.2)" gradientUnits="userSpaceOnUse"><stop offset="0" stop-color="#fff"/><stop offset=".113" stop-color="#e8e8e8"/><stop offset=".349" stop-color="#adadad"/><stop offset=".687" stop-color="#4e4e4e"/><stop offset=".952"/></radialGradient><circle fill="url(#b)" cx="28.8" cy="28.8" r="37.333"/></g></mask><g opacity=".4" mask="url(#c)"><path fill="#34495E" d="M63.665 36.389c-.013-.014-.022-.027-.042-.041-.023-.035-.048-.048-.073-.074-.024-.024-.041-.053-.079-.076-.023-.034-.046-.051-.072-.075-.024-.024-.041-.048-.076-.075-.023-.033-.047-.048-.071-.07-.024-.029-.044-.055-.083-.08-.021-.033-.044-.045-.066-.069-.024-.029-.041-.05-.08-.079-.023-.033-.045-.051-.071-.075-.025-.024-.044-.05-.077-.075-.025-.035-.048-.05-.075-.074-.024-.024-.042-.051-.075-.074-.023-.034-.048-.047-.07-.073-.028-.026-.045-.052-.082-.079-.021-.035-.043-.048-.069-.072-.024-.024-.044-.051-.077-.076-.025-.037-.05-.049-.074-.078-.027-.021-.045-.047-.076-.07-.025-.033-.047-.05-.073-.075-.025-.024-.042-.05-.075-.075-.025-.037-.046-.05-.073-.076-.026-.024-.044-.049-.077-.072-.023-.038-.05-.051-.074-.08-.026-.023-.043-.049-.074-.07-.027-.037-.049-.05-.075-.074-.024-.024-.044-.053-.077-.078-.027-.035-.048-.047-.072-.074-.024-.024-.043-.049-.078-.072-.023-.038-.047-.055-.074-.079-.024-.024-.039-.048-.072-.071-.025-.035-.048-.052-.075-.078-.024-.025-.044-.051-.079-.076-.025-.032-.048-.049-.072-.076-.027-.025-.045-.049-.075-.074-.026-.035-.048-.049-.072-.072-.024-.027-.042-.056-.079-.08-.025-.035-.046-.049-.07-.074-.029-.025-.045-.051-.08-.075-.021-.033-.045-.052-.069-.077s-.042-.048-.077-.074c-.023-.035-.048-.053-.072-.076-.027-.025-.047-.052-.08-.076-.024-.032-.05-.049-.07-.074-.029-.025-.047-.051-.079-.074-.024-.033-.046-.049-.07-.074-.028-.025-.046-.051-.079-.076-.025-.035-.046-.049-.072-.074-.025-.025-.045-.049-.076-.074-.023-.036-.047-.053-.076-.079-.024-.026-.041-.05-.075-.075-.024-.033-.045-.049-.069-.074-.025-.025-.047-.052-.08-.076-.024-.037-.05-.049-.072-.076-.027-.025-.045-.049-.077-.074-.024-.035-.046-.051-.07-.076-.028-.025-.046-.053-.079-.077-.027-.034-.048-.049-.074-.075-.025-.025-.043-.049-.076-.075-.024-.033-.047-.051-.072-.076-.025-.026-.043-.051-.077-.075-.024-.037-.05-.053-.076-.08-.024-.022-.044-.047-.073-.072-.026-.036-.047-.052-.074-.077-.025-.026-.043-.049-.075-.075-.024-.036-.048-.053-.075-.079-.023-.025-.041-.049-.076-.074-.027-.034-.049-.049-.072-.075-.027-.026-.043-.049-.076-.074-.024-.034-.047-.05-.074-.075-.023-.026-.041-.051-.075-.077-.024-.037-.05-.051-.073-.079-.029-.023-.047-.049-.078-.072-.026-.034-.047-.049-.072-.075-.027-.026-.047-.051-.079-.077-.022-.035-.046-.049-.071-.074-.023-.026-.043-.052-.079-.077-.024-.035-.046-.049-.069-.075-.025-.025-.045-.049-.078-.075-.026-.035-.047-.051-.074-.076-.027-.026-.044-.049-.077-.075-.022-.034-.046-.051-.069-.077-.027-.025-.045-.049-.08-.074-.022-.037-.047-.054-.074-.079-.025-.026-.043-.049-.075-.075-.024-.031-.046-.047-.068-.073-.026-.025-.044-.053-.081-.078-.025-.037-.051-.049-.074-.077-.025-.024-.041-.049-.076-.073-.022-.035-.045-.051-.07-.076-.029-.026-.046-.052-.079-.077-.024-.035-.048-.049-.071-.075-.027-.025-.045-.051-.078-.077-.024-.033-.045-.048-.072-.074s-.045-.051-.077-.077c-.024-.034-.048-.049-.075-.074-.023-.026-.041-.052-.074-.077-.024-.035-.049-.049-.072-.075-.027-.025-.045-.051-.077-.075-.025-.035-.046-.051-.073-.076-.027-.026-.044-.049-.079-.075-.022-.037-.048-.051-.073-.077-.025-.025-.041-.049-.074-.074-.024-.037-.047-.052-.074-.077-.025-.026-.045-.051-.077-.075-.022-.034-.048-.049-.071-.075-.025-.025-.043-.051-.078-.076-.024-.034-.049-.049-.072-.075-.025-.026-.043-.049-.075-.075-.027-.036-.05-.051-.075-.078-.025-.026-.044-.05-.077-.075-.026-.034-.048-.049-.073-.075-.027-.025-.041-.049-.076-.074-.022-.037-.049-.052-.072-.079-.027-.026-.044-.049-.079-.075-.022-.034-.046-.049-.071-.075-.023-.025-.044-.051-.078-.076-.024-.034-.047-.049-.07-.075-.029-.025-.047-.051-.079-.077-.025-.034-.046-.049-.073-.074-.025-.026-.044-.049-.077-.075-.024-.035-.046-.051-.071-.077-.027-.025-.045-.051-.078-.076-.024-.032-.047-.048-.07-.073-.025-.028-.046-.053-.079-.08-.024-.034-.046-.049-.073-.075-.025-.025-.044-.051-.076-.076-.024-.034-.047-.049-.07-.075-.029-.026-.047-.051-.079-.077-.025-.035-.052-.049-.073-.074-.027-.026-.044-.05-.077-.075-.024-.037-.046-.051-.073-.077-.023-.025-.043-.049-.076-.075-.022-.035-.051-.051-.074-.078-.025-.026-.042-.049-.075-.075-.026-.035-.048-.049-.075-.077-.025-.025-.042-.049-.074-.074-.024-.034-.047-.052-.074-.077-.025-.026-.043-.049-.078-.075-.024-.037-.049-.051-.072-.077-.027-.025-.042-.049-.075-.072-.024-.037-.048-.051-.075-.079-.023-.026-.043-.049-.078-.075-.021-.033-.045-.049-.068-.072-.027-.028-.044-.053-.079-.079-.024-.037-.048-.049-.073-.075-.027-.025-.041-.049-.074-.074-.027-.035-.049-.049-.076-.075-.023-.026-.043-.051-.078-.077-.024-.034-.047-.049-.07-.074-.029-.026-.042-.05-.077-.075-.026-.034-.048-.051-.073-.077-.026-.025-.045-.051-.078-.077-.022-.031-.045-.047-.07-.072-.025-.028-.044-.053-.08-.079-.023-.034-.045-.049-.07-.077-.029-.025-.046-.049-.078-.074-.025-.035-.047-.05-.072-.075-.025-.026-.045-.051-.078-.077-.023-.037-.051-.051-.075-.077-.024-.025-.041-.049-.074-.074-.024-.035-.046-.049-.071-.075-.023-.026-.043-.051-.078-.079-.025-.034-.047-.049-.07-.072-.025-.028-.046-.052-.08-.079-.023-.035-.045-.049-.07-.075-.027-.025-.043-.051-.078-.075-.025-.036-.049-.051-.076-.078-.024-.026-.041-.049-.074-.075-.023-.034-.049-.049-.072-.075-.027-.025-.044-.051-.076-.074-.025-.037-.047-.051-.072-.077-.028-.026-.045-.049-.078-.075-.025-.033-.049-.049-.07-.074-.029-.026-.046-.051-.08-.077-.023-.037-.048-.051-.074-.077-.025-.025-.041-.049-.074-.072-.025-.037-.051-.052-.076-.079-.024-.026-.041-.049-.074-.075-.025-.034-.048-.049-.075-.075-.026-.025-.041-.049-.073-.074-.025-.036-.049-.051-.076-.079-.024-.026-.041-.049-.076-.075-.027-.034-.049-.049-.075-.076-.024-.024-.039-.05-.073-.073-.023-.036-.05-.051-.074-.077-.027-.025-.043-.051-.078-.077-.025-.034-.047-.049-.071-.074-.025-.026-.042-.049-.077-.075-.027-.037-.048-.051-.073-.077-.026-.025-.045-.051-.079-.076-.021-.034-.046-.05-.07-.077-.026-.026-.043-.049-.078-.075-.025-.034-.047-.049-.071-.074-.024-.026-.044-.052-.077-.075-.025-.036-.048-.051-.074-.077-.065-.038-.082-.062-.115-.087-.025-.034-.047-.052-.071-.077-.029-.026-.044-.049-.079-.075-.025-.035-.046-.049-.07-.075-.029-.025-.046-.051-.08-.076-.023-.034-.048-.049-.072-.075-.027-.026-.045-.051-.077-.075-.025-.037-.046-.051-.073-.076-.023-.026-.042-.05-.072-.075-.027-.037-.051-.051-.08-.077-.024-.025-.041-.051-.074-.075-.025-.035-.051-.051-.075-.076-.025-.026-.042-.049-.075-.073-.025-.034-.046-.051-.073-.077-.026-.025-.043-.051-.077-.076-.023-.035-.048-.049-.074-.075-.025-.026-.043-.051-.075-.077-.025-.033-.048-.049-.073-.074-.027-.026-.044-.052-.077-.075-.024-.037-.05-.051-.075-.079-.023-.026-.041-.049-.076-.074-.024-.035-.049-.05-.072-.075-.026-.026-.043-.051-.076-.075-.025-.036-.05-.051-.075-.077-.024-.025-.044-.051-.077-.076-.021-.032-.048-.047-.07-.073-.026-.026-.043-.051-.078-.079-.026-.035-.049-.049-.074-.074-.027-.026-.044-.052-.079-.077-.044-.063-.088-.081-.134-.114a.492.492 0 00-.146-.151.52.52 0 00-.154-.154c-.047-.074-.1-.11-.146-.146-.048-.08-.104-.118-.154-.153-.047-.077-.098-.114-.147-.15a.524.524 0 00-.151-.151.502.502 0 00-.15-.149c-.047-.077-.098-.115-.146-.152-.048-.075-.102-.113-.148-.149a.506.506 0 00-.153-.156.547.547 0 00-.147-.149.523.523 0 00-.154-.152.495.495 0 00-.146-.149.513.513 0 00-.153-.153c-.047-.075-.1-.112-.146-.148-.05-.078-.104-.117-.152-.153-.047-.075-.098-.111-.148-.147-.252-.399-.568-.28-.777.405-.271.868-1.197 1.798-2.063 2.063-.024.006-.031.018-.051.024-.008-.008-.017-.006-.023-.016-.025-.025-.042-.049-.075-.074-.024-.035-.048-.052-.073-.077-.027-.026-.044-.049-.076-.075-.024-.033-.047-.049-.074-.077-.025-.025-.043-.051-.078-.076-.024-.035-.049-.049-.072-.075-.025-.026-.042-.049-.075-.075-.024-.035-.048-.051-.075-.078-.023-.026-.043-.05-.076-.075-.027-.035-.049-.049-.072-.077-.025-.025-.042-.049-.077-.072-.11.008-.136-.009-.161-.035-.023-.026-.041-.049-.074-.075-.024-.035-.045-.049-.07-.075-.029-.025-.047-.051-.079-.076-.025-.036-.046-.051-.073-.077-.025-.026-.044-.049-.077-.075-.024-.034-.046-.051-.069-.076-.029-.026-.045-.05-.08-.075-.024-.037-.047-.053-.074-.079-.025-.023-.044-.047-.075-.073-.024-.035-.048-.051-.073-.076-.025-.026-.043-.049-.078-.075-.022-.035-.043-.049-.07-.075-.027-.025-.045-.051-.077-.076-.027-.037-.05-.052-.075-.077-.027-.026-.042-.049-.075-.073-.024-.035-.048-.051-.071-.076-.031-.022-.049-.047-.084-.071-.026-.037-.049-.051-.074-.08-.025-.025-.045-.049-.077-.074-.024-.034-.046-.05-.071-.075-.027-.026-.044-.051-.078-.075-.037-.037-.06-.052-.087-.079-.024-.025-.041-.049-.075-.074-.023-.034-.05-.049-.074-.077-.024-.026-.041-.049-.074-.075-.023-.035-.047-.051-.071-.076-.028-.026-.046-.05-.079-.075-.027-.034-.048-.049-.074-.075-.024-.025-.041-.049-.074-.075-.027-.036-.053-.052-.077-.077-.025-.026-.042-.049-.075-.073-.025-.037-.05-.051-.075-.079-.024-.025-.041-.049-.075-.074-.025-.034-.048-.049-.074-.077-.024-.026-.041-.049-.074-.075-.025-.033-.049-.051-.073-.076-.026-.026-.044-.049-.079-.075-.027-.035-.048-.049-.072-.075-.024-.025-.041-.049-.074-.074-.027-.037-.049-.052-.075-.077-.027-.026-.044-.051-.079-.075-.027-.034-.048-.051-.073-.077-.024-.025-.041-.049-.077-.074-.025-.035-.048-.049-.072-.075-.024-.026-.041-.051-.074-.075-.027-.036-.051-.051-.075-.076-.026-.026-.044-.05-.079-.075-.025-.034-.048-.049-.074-.077-.025-.025-.037-.049-.074-.074-.025-.034-.047-.052-.073-.077-.025-.026-.044-.049-.077-.075-.023-.034-.046-.049-.071-.072-.026-.026-.044-.052-.079-.077-.035-.032-.061-.049-.086-.075-.025-.025-.043-.049-.076-.075-.045-.062-.088-.082-.136-.112a.5.5 0 00-.147-.15.488.488 0 00-.151-.153.52.52 0 00-.147-.149.557.557 0 00-.153-.154c-.046-.077-.097-.112-.15-.149a.497.497 0 00-.149-.151.505.505 0 00-.149-.15c-.046-.077-.099-.115-.149-.151a.524.524 0 00-.149-.154.491.491 0 00-.15-.149.55.55 0 00-.149-.154c-.049-.074-.101-.11-.149-.147a.613.613 0 00-.157-.149.523.523 0 00-.146-.15.507.507 0 00-.154-.151.47.47 0 00-.146-.151.54.54 0 00-.148-.15c-.254-.399-.57-.277-.779.407-.271.869-1.197 1.799-2.063 2.063-.689.211-.811.527-.412.786a.552.552 0 00.151.151c.028.05.066.101.143.15a.519.519 0 00.15.15c.037.051.074.103.151.151.039.051.075.1.152.149a.492.492 0 00.151.152.498.498 0 00.151.149.485.485 0 00.15.15.523.523 0 00.153.151.52.52 0 00.15.151.492.492 0 00.151.152.513.513 0 00.149.149.574.574 0 00.154.154.5.5 0 00.149.149.508.508 0 00.15.151.531.531 0 00.149.152.547.547 0 00.15.151c.032.044.055.089.116.134.022.034.047.049.071.075.027.025.045.051.082.077.021.034.043.049.068.072.026.028.045.053.079.079.025.034.048.049.071.075.023.025.046.051.081.076.022.034.048.05.073.075.023.026.041.051.078.077.022.034.043.049.07.075.025.025.042.051.079.076.021.034.048.049.071.077.023.026.041.049.078.075.025.034.047.049.07.074.025.026.043.05.08.075.024.037.051.051.074.08.027.022.042.049.075.072.026.036.05.052.075.077.023.026.043.049.076.075.022.035.049.051.072.077.029.025.043.049.077.072.024.037.048.051.073.077.027.025.044.049.079.075.022.035.048.051.075.076.023.026.039.049.074.073.024.036.049.051.072.077.027.025.04.049.075.072.022.037.048.052.073.079.027.026.045.051.078.077.024.034.047.047.07.073.027.025.045.051.079.076.024.034.046.051.071.077.029.026.046.051.078.077.025.033.051.049.074.074.025.026.043.049.076.075.022.036.047.051.07.079.029.025.046.051.084.077.021.031.043.047.066.072.023.026.041.051.078.079.024.034.051.051.076.077.023.025.041.049.073.074.024.035.046.049.071.077.029.026.044.049.078.075.025.033.049.051.072.077.027.025.045.051.078.074.024.037.051.051.074.077.025.026.042.049.077.074.022.034.048.052.073.077.024.026.041.049.074.075.027.034.049.051.075.077.024.025.041.049.074.074.024.035.049.051.073.077.027.026.044.051.08.077.023.034.047.049.068.072.027.028.045.052.078.077.026.037.051.051.074.077.027.025.044.049.08.075.023.033.045.051.07.076.029.026.041.049.076.075.027.037.049.051.075.079.024.025.044.049.072.072.026.035.049.05.075.075.027.028.044.051.078.077.025.034.047.049.072.075.023.025.041.051.076.076.027.034.049.051.072.077.027.026.046.051.08.077.023.034.045.049.07.074.028.026.043.05.078.075.025.037.049.051.075.079.025.025.042.049.075.073.023.036.046.051.072.076.027.026.044.049.076.075.025.034.052.051.076.077.024.025.039.049.074.074.025.034.047.051.07.077.029.026.046.049.08.075.023.034.05.049.072.074.026.026.043.049.076.075.023.036.047.051.071.077.026.025.043.049.079.074.023.037.048.052.075.079.024.026.041.049.073.075.025.034.049.049.074.077.026.025.043.049.076.074.025.037.047.051.073.077.026.026.043.049.077.075.025.035.048.049.074.074.024.026.041.05.074.075.025.037.049.051.075.077.024.025.042.049.079.075.021.031.046.046.068.072.025.026.043.051.076.077.027.037.051.051.076.077.026.025.043.051.078.074.025.037.047.051.071.077.024.025.041.049.077.075.021.033.048.051.074.076.026.026.039.049.074.075.025.035.049.051.073.077.026.025.044.049.079.074.021.035.044.05.07.077.025.026.043.049.076.075.027.037.049.051.076.077.026.025.043.049.074.072.025.037.049.051.073.077.026.026.046.049.079.075.023.034.046.049.07.074.024.026.043.052.078.077.021.034.047.051.071.077.028.025.046.051.079.077.025.035.05.049.074.076.025.026.041.049.076.073.023.036.047.053.074.079.024.023.041.049.074.072.025.034.051.052.075.077.024.026.042.049.075.073.023.036.046.051.072.078.026.026.043.052.082.077.021.032.045.047.065.071.026.025.044.053.079.078.025.034.05.052.074.077.025.026.041.049.08.075.021.032.045.047.067.073.025.025.044.051.079.076.023.034.049.049.069.075.028.026.046.051.079.077.027.034.048.049.074.076.024.026.041.05.074.075.025.035.047.051.073.077.026.025.044.051.079.077.025.036.048.051.072.076.027.026.041.049.076.075.025.037.049.051.073.077.025.025.044.049.077.074.027.034.048.05.073.075.024.026.042.049.077.075.011.015.019.036.031.047-.369.032-.729.079-1.084.149l-.006-.006c-.053-.055-.107-.102-.158-.158-.045-.049-.097-.092-.141-.141-.052-.055-.111-.106-.162-.164-.046-.05-.096-.092-.142-.142-.052-.053-.104-.1-.154-.153-.046-.051-.101-.098-.147-.149-.049-.052-.103-.099-.149-.152-.047-.053-.104-.098-.151-.151-.047-.053-.101-.098-.147-.152-.052-.053-.106-.1-.156-.155-.046-.049-.099-.094-.144-.143-.047-.051-.1-.097-.146-.148-.052-.057-.109-.108-.165-.164-.045-.047-.094-.089-.137-.136-.052-.057-.108-.105-.158-.159-.046-.051-.101-.096-.146-.145a11.685 11.685 0 00-10.115-3.717c.02-.027.034-.06.054-.089-.09.008-.177.03-.267.038.042-.061.072-.13.117-.189-.09.008-.177.029-.267.039.042-.063.075-.128.118-.19-.09.009-.177.028-.267.039.042-.06.072-.128.114-.188-.089.008-.177.028-.267.039.043-.063.075-.13.118-.191-.089.009-.179.03-.269.039.042-.062.075-.128.118-.189-.09.008-.177.03-.267.039.042-.062.074-.13.117-.189-.09.008-.177.029-.267.038.043-.063.073-.128.116-.188-.089.01-.177.03-.267.039.043-.062.073-.13.118-.189-.089.008-.177.03-.267.039.043-.063.072-.128.115-.188-.09.008-.177.027-.267.038.042-.062.073-.129.118-.19-.09.009-.177.03-.267.041.042-.062.072-.13.116-.19-.089.008-.177.03-.267.039.043-.06.073-.128.116-.188-.089.008-.177.029-.267.038.042-.062.075-.13.118-.189-.089.008-.177.03-.267.039.042-.062.074-.128.117-.189-.09.008-.177.029-.267.038.042-.063.075-.13.118-.19-.09.009-.177.03-.267.039.042-.062.073-.128.115-.188-.089.008-.177.027-.267.039.042-.063.072-.13.117-.19-.089.009-.177.03-.267.038.043-.061.073-.128.116-.188-.09.009-.177.03-.267.039.042-.061.074-.128.117-.189-.09.008-.177.029-.267.039.042-.063.075-.13.118-.19-.09.008-.177.03-.267.039.042-.062.075-.128.118-.19-.09.008-.177.028-.267.039.043-.063.072-.128.115-.188-.089.008-.177.027-.267.038.042-.062.075-.129.118-.189-.089.008-.177.03-.267.039.042-.062.075-.128.118-.19-.089.009-.177.029-.267.039.042-.063.074-.13.117-.19-.09.009-.177.03-.267.039.042-.062.073-.128.115-.188-.057.002-.144.022-.234.032.043-.063.074-.13.117-.191-.089.01-.177.03-.267.039.043-.061.073-.128.116-.188-.09.009-.18.031-.269.042.042-.062.073-.13.118-.19-.09.008-.178.027-.267.038.043-.063.074-.13.117-.19-.089.009-.177.03-.267.039.043-.062.075-.128.118-.189-.089-.03-.177-.009-.267 0 .043-.062.075-.13.118-.19-.09.008-.177.029-.267.039.042-.063.072-.128.115-.188-.09.007-.178.026-.267.037.042-.062.073-.13.118-.189-.09.008-.177.03-.267.039.042-.063.072-.128.114-.188-.089.008-.179.028-.268.04.042-.063.073-.13.118-.191-.09.009-.177.028-.267.039.042-.061.075-.13.118-.189-.09.007-.178.028-.267.038.042-.063.074-.128.117-.19-.09.008-.178.027-.267.038.042-.062.073-.128.115-.188-.089.008-.177.028-.266.039.043-.063.072-.13.117-.19-.09.008-.178.029-.267.037.042-.06.073-.127.116-.188-.09.008-.177.03-.267.039.042-.062.075-.13.118-.189-.09.008-.177.03-.267.039.042-.063.072-.128.114-.188-.089.008-.177.029-.266.037.043-.061.072-.129.117-.189-.089.008-.176.03-.266.038.043-.061.072-.128.114-.187-.09.008-.176.029-.267.039.042-.063.075-.128.118-.19-.089.008-.177.027-.266.038.042-.062.075-.13.118-.19-.09.008-.177.03-.267.039.042-.063.074-.129.116-.191a12.71 12.71 0 00-5.203 1.65c-5.574 3.219-7.799 9.999-5.482 15.81-1.898 1.55-3.091 3.855-3.091 6.462 0 2.396.995 4.555 2.586 6.104.047.048.094.097.143.142.051.056.104.108.159.162.047.047.094.096.144.139.051.055.104.107.157.158.047.051.094.097.143.145l.158.158c.049.048.1.1.151.146.049.051.096.102.147.146.051.05.1.104.151.154.051.049.1.102.153.148.05.051.099.102.148.148.051.052.1.102.153.15.049.051.098.102.15.15.051.05.102.104.155.154.047.047.094.096.143.142.051.054.105.106.156.157.049.047.098.099.147.146.051.051.1.102.154.15.049.05.1.104.153.154.049.049.096.098.147.146.052.05.101.104.154.151.049.049.098.104.149.15.049.053.1.1.152.147.049.052.1.104.151.153.049.047.096.097.145.146.051.051.105.104.159.154.047.05.094.096.143.144.053.056.104.106.158.158.049.049.096.099.147.147.051.049.1.101.151.15.049.051.101.1.152.148.049.051.098.102.147.146.051.055.1.105.153.154.05.053.099.102.15.15.049.049.098.1.149.149.051.05.1.103.154.149.049.052.098.101.147.15.051.049.102.104.155.153.05.05.099.101.148.146.053.08.1.127.151.176l.156.158.145.144c.051.054.102.104.153.151.05.051.099.102.15.15.051.053.1.104.153.152.049.048.098.1.148.146l.153.154c.051.051.1.1.153.148.048.052.095.098.144.144.051.054.104.106.157.158.047.05.094.096.143.144l.158.158c.049.049.098.1.149.146.049.052.097.102.148.146.051.051.1.104.153.154.049.05.098.1.149.146.052.053.101.104.154.153.049.052.1.104.151.151.047.049.094.097.144.145.051.053.104.105.157.158l.145.143c.052.053.103.105.158.157.049.05.098.101.149.149.049.049.096.097.148.145.049.053.1.102.151.152.049.05.1.104.153.154.05.047.099.1.15.146.051.053.1.104.151.15.049.052.098.1.15.146.049.053.1.104.153.154l.145.145c.051.051.105.105.158.155.047.05.094.101.143.146.051.054.102.104.156.156.049.049.098.1.149.148.049.05.1.102.151.15.049.049.099.1.15.148.049.051.098.102.149.15.049.05.1.102.151.148.05.051.099.102.15.15.051.05.1.104.153.152.054.063.104.112.157.162.047.049.096.098.147.146l.151.15.148.148c.051.051.102.104.155.154.049.05.101.1.154.152.047.047.094.094.143.139l.155.158c.05.049.099.101.15.147.051.054.102.104.153.154.049.05.101.103.152.149a2.5 2.5 0 00.145.146c.051.05.1.104.151.149.052.056.103.107.156.155.049.054.1.104.149.152.049.048.1.103.15.147.049.051.098.101.147.146.049.052.098.104.149.149.053.055.105.107.161.16.047.049.096.098.147.145.049.05.096.1.146.148.052.051.105.104.159.154.047.051.096.1.145.146.051.054.103.104.156.152.049.051.098.102.149.148.049.052.098.1.15.146.049.055.1.104.151.154.049.048.098.102.149.148.051.047.101.102.154.15.049.051.098.102.149.15.049.048.098.1.149.148.052.051.101.102.152.15.049.05.098.102.147.146l.156.158c.049.047.1.1.151.146.049.048.096.098.147.145.052.053.103.105.154.153.049.05.098.101.147.147.051.053.1.104.154.151.049.056.1.104.151.154a6.7 6.7 0 01.146.146c.049.051.097.098.148.146.051.054.104.107.158.158.049.052.1.101.152.149.049.05.098.101.147.147.049.047.1.101.151.148.049.051.099.1.15.148.039.042.076.076.115.117.491.119.964.169 1.453.169 16.18 0 29.521-12.021 31.665-27.611z"/></g><path fill="#ffd328" d="M17.069 16.114a12.71 12.71 0 015.203-1.65c-2.801 3.955-3.234 9.331-.655 13.801 2.581 4.469 7.452 6.785 12.279 6.334a12.737 12.737 0 01-4.031 3.685c-6.121 3.532-13.952 1.438-17.485-4.681-3.531-6.128-1.432-13.957 4.689-17.489zm27.148 1.066c-.263-.867-.699-.867-.967 0-.271.868-1.195 1.798-2.063 2.063-.871.267-.871.708 0 .975.865.267 1.791 1.195 2.063 2.063.268.867.704.867.967 0 .271-.87 1.202-1.798 2.063-2.063.871-.267.871-.708 0-.975-.863-.265-1.794-1.195-2.063-2.063zM33.55 11.927c-.263-.866-.698-.866-.966 0-.271.869-1.196 1.799-2.062 2.063-.871.267-.871.708 0 .975.866.267 1.792 1.195 2.062 2.063.268.867.703.867.966 0 .271-.868 1.202-1.798 2.063-2.063.871-.267.871-.708 0-.975-.863-.264-1.793-1.192-2.063-2.063z"/><path fill="#FFF" d="M43.732 27.731c-.824 0-1.611.136-2.375.33-1.949-3.778-5.883-6.364-10.424-6.364-5.391 0-9.924 3.644-11.295 8.598-.811-.256-1.658-.431-2.552-.431-4.712 0-8.533 3.824-8.533 8.537a8.534 8.534 0 008.533 8.533h26.648c5.304 0 9.6-4.301 9.6-9.602-.001-5.302-4.297-9.601-9.602-9.601z"/></svg>