<svg xmlns="http://www.w3.org/2000/svg" width="64" height="64"><circle fill="#c4e2fa" cx="32" cy="32" r="32"/><path fill="#b8dcf8" d="M32 64c17.673 0 32-14.327 32-32S49.673 0 32 0v64z"/><defs><filter id="a" filterUnits="userSpaceOnUse" x="8.03" y="14.933" width="55.762" height="49.051"><feColorMatrix values="1 0 0 0 0 0 1 0 0 0 0 0 1 0 0 0 0 0 1 0"/></filter></defs><mask maskUnits="userSpaceOnUse" x="8.03" y="14.933" width="55.762" height="49.051" id="c"><g filter="url(#a)"><radialGradient id="b" cx="402.771" cy="-781.599" r="37.333" gradientTransform="matrix(1 0 0 -1 -373.97 -752.799)" gradientUnits="userSpaceOnUse"><stop offset="0" stop-color="#fff"/><stop offset=".113" stop-color="#e8e8e8"/><stop offset=".349" stop-color="#adadad"/><stop offset=".687" stop-color="#4e4e4e"/><stop offset=".952"/></radialGradient><circle fill="url(#b)" cx="28.8" cy="28.8" r="37.333"/></g></mask><g opacity=".2" mask="url(#c)"><path fill="#1A171B" d="M63.792 35.542c-.024-.028-.054-.056-.079-.082a4.066 4.066 0 00-.15-.147c-.049-.054-.1-.104-.149-.153s-.104-.104-.158-.152c-.044-.043-.096-.098-.142-.144-.047-.051-.1-.102-.146-.149-.05-.051-.105-.101-.154-.149a4.218 4.218 0 00-.149-.15c-.05-.051-.101-.104-.151-.152-.048-.047-.099-.102-.148-.146-.045-.052-.1-.104-.146-.151-.048-.051-.105-.104-.156-.154-.045-.045-.094-.096-.142-.142-.048-.053-.101-.104-.149-.153a4.295 4.295 0 00-.152-.15c-.049-.055-.1-.104-.151-.154-.046-.048-.101-.1-.147-.146l-.147-.147c-.046-.052-.101-.103-.149-.153a6.931 6.931 0 00-.15-.148c-.051-.053-.1-.105-.153-.156-.046-.049-.097-.096-.142-.145a11.179 11.179 0 01-.154-.154c-.048-.049-.102-.099-.146-.147-.049-.053-.104-.104-.157-.157-.046-.05-.097-.099-.142-.146a5.554 5.554 0 00-.154-.153 6.722 6.722 0 00-.146-.147c-.048-.052-.1-.103-.15-.154-.049-.053-.104-.104-.155-.155l-.144-.146c-.047-.051-.103-.102-.149-.153l-.15-.147c-.046-.051-.1-.103-.149-.154-.051-.049-.098-.1-.146-.146l-.162-.161a3.136 3.136 0 00-.14-.143c-.048-.053-.104-.104-.152-.155-.046-.05-.096-.097-.142-.144a6.034 6.034 0 01-.16-.16c-.048-.049-.1-.097-.145-.145-.049-.054-.104-.104-.153-.154-.046-.049-.097-.098-.147-.147-.049-.051-.101-.103-.147-.154-.052-.051-.103-.1-.15-.149-.048-.051-.104-.1-.149-.152a3.361 3.361 0 01-.146-.147l-.154-.153c-.048-.052-.104-.103-.152-.154-.043-.049-.096-.096-.139-.143-.051-.053-.107-.106-.158-.157-.051-.05-.101-.099-.146-.148l-.154-.153c-.045-.049-.1-.099-.146-.148-.052-.053-.104-.102-.152-.153-.048-.049-.102-.098-.147-.147a6.956 6.956 0 01-.149-.152c-.05-.051-.101-.1-.149-.151-.049-.049-.101-.098-.146-.148-.05-.053-.104-.104-.154-.155a2.755 2.755 0 00-.154-.151c-.043-.05-.096-.099-.144-.148-.048-.051-.104-.102-.151-.153-.045-.049-.101-.098-.149-.149-.046-.05-.097-.101-.146-.15l-.154-.155a7.283 7.283 0 00-5.238-2.226c-.458 0-.896.065-1.325.153l-.026-.025c-.049-.052-.103-.099-.147-.15-.048-.051-.104-.098-.147-.149-.049-.051-.105-.101-.153-.152-.044-.051-.101-.098-.148-.149-.046-.051-.1-.1-.149-.151-.049-.054-.106-.101-.152-.152-.046-.051-.1-.098-.146-.149-.047-.055-.104-.102-.153-.156-.048-.051-.104-.098-.148-.146-.048-.051-.1-.098-.147-.149-.045-.052-.1-.098-.147-.15-.049-.054-.106-.103-.157-.156a8.879 8.879 0 00-6.574-2.903 8.802 8.802 0 00-3.512.75c-.205-.017-.4-.062-.609-.062-.457 0-.891.065-1.322.153-.01-.011-.021-.019-.031-.029-.044-.051-.096-.096-.144-.146-.044-.051-.103-.098-.15-.149-.048-.053-.104-.102-.151-.155-.047-.052-.102-.099-.15-.15-.049-.053-.104-.1-.15-.151-.048-.051-.101-.096-.146-.147-.049-.054-.104-.103-.154-.154-.049-.053-.103-.1-.151-.151-.047-.051-.1-.099-.148-.148-.048-.053-.104-.1-.152-.151-.047-.053-.102-.1-.151-.152-.047-.051-.101-.098-.15-.147-1.737-1.822-4.076-2.944-6.686-2.944-4.102 0-7.552 2.771-8.598 6.541-.619-.194-1.262-.328-1.946-.328a6.494 6.494 0 00-6.492 6.494c0 1.83.764 3.477 1.983 4.657.049.051.101.102.154.153.049.051.1.1.151.149.047.051.096.101.147.148.052.053.103.104.156.154.049.05.096.1.146.147.049.054.101.103.152.152l.153.153c.049.049.1.101.15.146.049.046.098.1.146.146.049.049.1.1.151.148.049.053.098.102.152.152.049.052.1.102.151.152.049.053.1.102.151.148.05.05.101.104.152.15.049.05.1.102.151.148.049.051.098.104.15.146.049.052.1.104.151.152.047.047.096.102.147.146.052.05.101.104.154.154.049.047.1.1.151.146.049.049.098.104.15.148.049.05.1.102.151.148.051.051.1.104.153.154.05.046.099.102.15.148.049.047.098.1.149.146.049.048.098.102.15.15.051.049.102.104.155.152.047.047.096.098.145.143.055.063.106.113.158.164.049.05.098.1.149.146.049.049.098.104.147.148.028.061.08.111.13.161.049.049.1.102.151.148.049.052.099.1.15.146.049.051.098.104.149.146.051.055.1.104.153.154.05.05.099.104.15.148.049.051.098.104.149.15.049.048.1.1.152.146.049.053.1.106.151.152.049.051.1.102.151.15.05.05.101.1.152.148.049.051.098.102.149.148.049.052.1.102.152.15.049.049.098.102.149.146.051.054.102.104.153.157a988.262 988.262 0 00.451.443c.051.051.103.104.155.154.047.05.096.098.145.146.049.047.101.101.152.147.049.052.1.104.151.151.051.051.1.103.154.15.049.049.098.1.147.145.051.052.1.105.153.154.049.051.099.102.15.15.049.048.1.1.151.146.049.049.096.104.147.148.052.051.103.105.156.154.049.05.098.1.151.146l.148.149c.051.05.102.104.155.153l.147.145c.05.055.101.105.152.154.049.048.098.1.149.146.049.051.098.1.152.146.049.055.098.104.149.154.03.028.051.063.082.092a1.052 1.052 0 00-1.201.759l-2.208 8.282c-.12.441.063.889.41 1.139.047.051.089.107.15.146.049.055.091.11.151.152.047.051.09.105.147.146.05.052.095.111.154.154.049.049.089.104.149.146.049.056.091.108.152.149.049.053.092.11.151.154.049.051.092.108.154.146.047.049.09.111.147.145.049.055.092.115.153.154.047.05.089.107.148.148.049.051.094.109.153.15.047.055.09.107.149.15.05.05.092.107.154.15.049.049.092.107.151.148.047.05.092.105.15.146.047.051.092.111.149.148.049.05.091.107.149.152.049.052.094.107.154.152.049.047.092.104.149.146.049.052.092.109.154.15.047.047.09.107.149.144.049.065.092.126.152.166.049.052.091.108.152.149.047.051.092.108.151.15.047.053.09.107.15.15.049.05.094.107.153.148.047.051.09.105.147.146.049.055.094.113.154.154.047.051.089.108.146.146.05.054.094.111.155.154.047.05.09.104.147.146.049.052.094.112.155.151.047.053.089.111.15.15.047.047.092.107.151.147.047.054.09.108.149.149.048.051.09.107.15.149.049.05.091.108.153.149.047.053.09.107.15.147.049.052.092.11.151.15.047.052.089.108.149.151.05.051.092.107.152.149.049.05.094.108.153.149.047.051.092.107.152.149.047.048.09.106.147.146.049.054.094.113.153.152.048.053.089.108.15.148.049.05.094.109.153.148.047.056.089.108.148.15.049.051.094.107.153.148.049.056.092.113.151.15.05.053.093.108.152.152.047.048.089.105.149.146.047.051.089.106.148.146.049.055.094.111.155.152.047.052.089.104.149.148.047.053.092.11.152.146.049.054.092.113.151.152.049.053.091.11.15.15.049.052.092.107.151.146.047.051.09.108.149.15.049.055.092.107.152.148.049.056.094.109.153.15.047.053.09.108.15.15.049.052.091.107.153.15.047.049.09.104.149.148.049.05.092.109.152.148.047.052.089.108.149.146.047.055.091.107.15.148.049.056.092.113.149.15.049.053.094.112.153.152.049.052.091.109.15.146.033.041.07.071.104.106 1.229.272 2.445.36 3.687.36 16.476.051 30.03-12.403 31.793-28.407z"/></g><path fill="#DFE0E1" d="M34.8 19.522c-.625 0-1.221.105-1.806.252a8.924 8.924 0 00-7.932-4.841c-4.102 0-7.552 2.771-8.598 6.541-.615-.194-1.258-.328-1.942-.328a6.494 6.494 0 000 12.985H34.8a7.307 7.307 0 007.31-7.304 7.31 7.31 0 00-7.31-7.305z"/><path fill="#FFF" d="M48.667 23.422c-.63 0-1.229.104-1.812.252a8.918 8.918 0 00-16.53 1.698c-.617-.194-1.26-.33-1.943-.33a6.494 6.494 0 000 12.987h20.279a7.304 7.304 0 007.305-7.305 7.3 7.3 0 00-7.299-7.302z"/><path fill="#CCF1FE" d="M27.623 52.217a1.065 1.065 0 01-1.306.756 1.068 1.068 0 01-.755-1.306l2.208-8.242a1.064 1.064 0 011.305-.754c.572.149.907.741.755 1.304l-2.207 8.242zm10.818-8.246a1.066 1.066 0 00-2.059-.55l-2.205 8.241c-.152.57.18 1.154.754 1.309a1.07 1.07 0 001.305-.754l2.205-8.246zm8.609 0a1.069 1.069 0 00-.754-1.304 1.071 1.071 0 00-1.308.754l-2.205 8.241c-.154.57.184 1.154.754 1.309a1.069 1.069 0 001.305-.754l2.208-8.246zm-25.827 0a1.067 1.067 0 00-.755-1.304 1.07 1.07 0 00-1.306.754l-2.208 8.241a1.07 1.07 0 00.753 1.309 1.07 1.07 0 001.307-.754l2.209-8.246z"/></svg>