<svg xmlns="http://www.w3.org/2000/svg" width="64" height="64"><circle fill="#34495E" cx="32" cy="32" r="32"/><path fill="#2C3E50" d="M32 64c17.673 0 32-14.327 32-32S49.673 0 32 0v64z"/><defs><filter id="a" filterUnits="userSpaceOnUse" x="8.03" y="14.934" width="55.762" height="49.021"><feColorMatrix values="1 0 0 0 0 0 1 0 0 0 0 0 1 0 0 0 0 0 1 0"/></filter></defs><mask maskUnits="userSpaceOnUse" x="8.03" y="14.934" width="55.762" height="49.021" id="c"><g filter="url(#a)"><radialGradient id="b" cx="70.78" cy="590.999" r="37.333" gradientTransform="translate(-41.98 -562.2)" gradientUnits="userSpaceOnUse"><stop offset="0" stop-color="#fff"/><stop offset=".113" stop-color="#e8e8e8"/><stop offset=".349" stop-color="#adadad"/><stop offset=".687" stop-color="#4e4e4e"/><stop offset=".952"/></radialGradient><circle fill="url(#b)" cx="28.8" cy="28.8" r="37.333"/></g></mask><g opacity=".4" mask="url(#c)"><path fill="#1A171B" d="M63.792 35.542c-.024-.028-.054-.056-.079-.082a4.066 4.066 0 00-.15-.147c-.049-.054-.1-.104-.149-.153-.052-.052-.104-.104-.158-.154l-.144-.144c-.049-.053-.1-.102-.147-.152l-.153-.148c-.049-.054-.102-.104-.15-.15-.051-.051-.1-.104-.152-.154-.048-.048-.098-.1-.146-.146a4.28 4.28 0 00-.15-.151c-.05-.052-.104-.104-.156-.155-.048-.047-.094-.097-.144-.143-.048-.053-.101-.104-.149-.154-.051-.05-.101-.1-.152-.148-.047-.055-.101-.104-.151-.154-.048-.051-.101-.102-.149-.15s-.097-.099-.147-.146a3.135 3.135 0 00-.152-.153l-.149-.149c-.051-.054-.101-.104-.153-.156-.046-.049-.097-.096-.142-.145-.056-.051-.104-.104-.154-.154-.051-.049-.102-.098-.148-.146l-.158-.159-.144-.146c-.05-.053-.101-.102-.153-.153l-.146-.148a7.144 7.144 0 01-.15-.153c-.052-.053-.105-.104-.158-.156-.047-.049-.096-.096-.144-.145-.048-.051-.103-.102-.151-.153-.049-.049-.101-.098-.149-.148-.048-.051-.101-.102-.15-.153-.05-.049-.098-.1-.146-.146l-.163-.16a2.732 2.732 0 00-.142-.143l-.154-.156c-.047-.049-.096-.096-.143-.143l-.162-.16c-.046-.049-.096-.096-.144-.145-.048-.053-.103-.102-.152-.153-.048-.049-.096-.098-.149-.148-.049-.051-.101-.102-.149-.153l-.149-.149c-.049-.052-.103-.101-.149-.152a3.396 3.396 0 01-.147-.147l-.152-.153-.154-.154c-.045-.049-.096-.096-.143-.143-.049-.053-.107-.107-.157-.158a6.722 6.722 0 01-.146-.147c-.051-.051-.104-.102-.154-.154-.047-.049-.101-.098-.147-.146a10.609 10.609 0 01-.151-.153c-.049-.049-.102-.098-.15-.148l-.148-.151c-.052-.051-.102-.1-.15-.151-.049-.05-.096-.099-.146-.148l-.156-.155a3.607 3.607 0 00-.151-.152c-.046-.049-.099-.098-.146-.147l-.154-.153-.148-.15-.146-.149-.154-.156a7.28 7.28 0 00-5.231-2.221c-.456 0-.894.067-1.321.154a.134.134 0 01-.027-.026c-.049-.051-.104-.098-.15-.149-.048-.051-.102-.098-.146-.15-.049-.051-.104-.1-.154-.151-.046-.051-.102-.098-.148-.149-.047-.051-.102-.1-.15-.152-.046-.053-.104-.1-.15-.151-.046-.051-.1-.098-.146-.149-.049-.056-.104-.103-.154-.156-.048-.051-.104-.098-.148-.147-.047-.051-.1-.098-.148-.15-.046-.051-.102-.098-.148-.149-.064-.06-.123-.108-.173-.163a8.881 8.881 0 00-6.575-2.903c-1.254 0-2.433.285-3.512.751-.204-.017-.4-.061-.609-.061-.457 0-.894.065-1.324.153-.008-.01-.021-.019-.029-.03-.046-.052-.098-.097-.146-.146-.045-.051-.101-.098-.149-.149-.048-.052-.104-.101-.154-.155-.047-.051-.101-.098-.149-.149-.049-.053-.103-.1-.15-.151-.047-.051-.1-.097-.146-.148-.051-.053-.104-.102-.154-.153-.049-.053-.102-.1-.15-.152-.047-.051-.102-.098-.15-.146-.047-.053-.102-.1-.151-.151-.047-.054-.102-.1-.151-.152-.048-.051-.101-.098-.15-.147-1.684-1.812-4.023-2.934-6.632-2.934-4.102 0-7.552 2.771-8.598 6.541-.618-.195-1.261-.329-1.945-.329a6.494 6.494 0 00-6.492 6.494c0 1.83.764 3.477 1.983 4.657.049.051.101.102.154.153.049.051.1.1.151.149.047.051.096.101.147.148.052.053.103.104.156.154.049.05.096.1.146.147.049.054.101.103.152.152l.153.153c.049.051.1.101.15.147l.146.147c.049.051.1.101.151.149.049.054.098.101.152.152.049.053.1.103.151.151.049.055.1.103.151.15.05.053.101.104.152.15.049.054.1.104.151.15.049.053.098.102.15.147.049.053.1.104.151.151.047.049.096.104.147.148.052.051.101.104.154.152.049.052.1.102.151.15.049.051.098.1.15.147.049.053.1.103.151.151l.153.154c.05.049.099.1.15.148.049.048.098.1.149.146.049.051.098.104.15.15.051.052.102.104.155.152.047.051.096.102.145.146.051.055.103.104.154.154.049.05.098.1.149.146.049.049.098.104.147.15.052.052.103.102.154.15.049.051.1.102.151.15.049.053.099.1.15.15.049.05.098.1.149.146.051.054.1.104.153.154.05.052.099.104.15.151.049.049.098.101.149.147.049.05.1.103.152.149.049.053.1.104.151.152.049.053.1.102.151.151.05.05.101.101.152.149.049.051.098.101.149.147.049.054.1.103.152.151.049.051.098.101.149.146.051.055.102.104.153.158l.148.146c.049.049.1.1.151.148.049.051.1.102.152.15.051.052.103.104.155.154.047.049.096.098.145.146.049.05.101.103.152.149.049.053.1.104.151.151.051.054.1.103.154.151.049.051.098.102.147.146.051.053.1.104.153.153.049.051.099.101.15.149.049.051.1.104.151.15.049.051.096.1.147.146.052.053.103.106.156.154.049.053.098.103.151.147.049.053.099.101.148.149.051.053.102.104.155.154.049.051.098.098.147.146.05.055.101.104.152.154.049.049.098.1.149.147.049.052.098.103.152.147a3.6 3.6 0 00.149.153c.03.029.051.063.082.093a1.053 1.053 0 00-1.201.76l-2.208 8.24c-.12.44.063.887.41 1.137.047.053.089.107.15.15.049.055.091.107.151.151.047.052.09.106.147.147.05.053.095.109.154.153.049.05.089.104.149.146.049.055.091.107.152.149.049.056.092.11.151.154.049.052.092.108.154.149.047.051.09.108.147.146.049.055.092.111.153.154.047.05.089.107.148.146.049.053.094.11.153.154.047.052.09.105.149.148.049.051.092.107.154.152.049.051.092.104.151.148.047.052.092.105.15.146.047.053.092.11.149.15.049.052.091.107.149.152.049.051.094.107.154.15.049.051.092.105.149.15.049.052.092.107.154.15.047.049.09.107.149.146.049.054.092.112.151.153.049.053.091.108.152.149.047.052.092.108.151.151.047.054.09.107.15.148.049.053.094.108.153.151.047.053.09.106.147.147.049.055.094.11.154.154.047.051.089.105.146.146.049.055.094.111.154.154.047.049.09.105.147.146.049.055.094.112.155.153.047.053.089.108.15.15.047.051.092.107.151.148.047.056.09.109.149.15.048.053.09.108.15.15.049.05.091.107.153.15.047.054.09.106.15.148.049.053.092.107.151.148.047.056.089.109.149.152.05.053.092.108.152.152.049.05.094.107.153.148.047.054.092.108.152.15.047.051.09.105.147.146.049.055.094.113.153.154.048.053.089.107.15.147.049.052.094.11.153.151.047.055.089.107.148.149.049.052.094.108.153.151.049.053.092.111.151.15.05.053.093.107.152.151.047.05.089.104.149.147.047.053.089.105.148.147.049.054.094.11.155.153.047.051.089.105.149.15.047.051.092.107.152.147.049.052.092.11.151.151.049.053.091.108.15.149.049.054.092.108.151.149.047.051.09.109.149.15.049.055.092.107.152.149.049.055.094.108.153.151.047.053.09.106.15.147.049.056.091.11.153.153.047.051.09.105.149.148.049.053.092.11.152.151.047.051.089.106.149.146.047.055.091.108.15.151.049.054.092.11.149.149.049.053.094.111.153.152.049.053.091.108.15.149.033.038.07.071.104.104a20.3 20.3 0 003.687.313C48.475 64 62.029 51.546 63.792 35.542z"/></g><path fill="#DFE0E1" d="M34.8 19.522c-.625 0-1.225.105-1.806.252a8.924 8.924 0 00-7.932-4.841c-4.102 0-7.552 2.771-8.598 6.541-.615-.194-1.258-.328-1.942-.328a6.494 6.494 0 000 12.985H34.8a7.307 7.307 0 007.31-7.304 7.31 7.31 0 00-7.31-7.305z"/><path fill="#FFF" d="M48.667 23.422c-.63 0-1.229.104-1.812.252a8.918 8.918 0 00-16.53 1.698c-.617-.194-1.26-.33-1.943-.33a6.494 6.494 0 000 12.987h20.279a7.304 7.304 0 007.305-7.305 7.3 7.3 0 00-7.299-7.302z"/><path fill="#CCF1FE" d="M27.623 52.217c-.152.57-.739.908-1.306.756a1.068 1.068 0 01-.755-1.306l2.208-8.242a1.065 1.065 0 112.06.55l-2.207 8.242zm10.818-8.246a1.069 1.069 0 00-.756-1.304 1.071 1.071 0 00-1.308.754l-2.204 8.241c-.154.57.18 1.154.752 1.309a1.071 1.071 0 001.307-.754l2.209-8.246zm8.609 0a1.068 1.068 0 00-.756-1.304 1.072 1.072 0 00-1.308.754l-2.207 8.241c-.154.57.184 1.154.756 1.309a1.072 1.072 0 001.307-.754l2.208-8.246zm-25.827 0a1.067 1.067 0 00-.755-1.304 1.07 1.07 0 00-1.306.754l-2.208 8.241a1.07 1.07 0 00.753 1.309 1.07 1.07 0 001.307-.754l2.209-8.246z"/></svg>