<svg xmlns="http://www.w3.org/2000/svg" width="64" height="64"><circle fill="#c4e2fa" cx="32" cy="32" r="32"/><path fill="#b8dcf8" d="M32 64c17.673 0 32-14.327 32-32S49.673 0 32 0v64z"/><defs><filter id="a" filterUnits="userSpaceOnUse" x="9.61" y="12.8" width="54.291" height="50.821"><feColorMatrix values="1 0 0 0 0 0 1 0 0 0 0 0 1 0 0 0 0 0 1 0"/></filter></defs><mask maskUnits="userSpaceOnUse" x="9.61" y="12.8" width="54.291" height="50.821" id="c"><g filter="url(#a)"><radialGradient id="b" cx="402.771" cy="-781.599" r="37.333" gradientTransform="matrix(1 0 0 -1 -373.97 -752.799)" gradientUnits="userSpaceOnUse"><stop offset="0" stop-color="#fff"/><stop offset=".113" stop-color="#e8e8e8"/><stop offset=".349" stop-color="#adadad"/><stop offset=".687" stop-color="#4e4e4e"/><stop offset=".952"/></radialGradient><circle fill="url(#b)" cx="28.8" cy="28.8" r="37.333"/></g></mask><g opacity=".2" mask="url(#c)"><path fill="#1A171B" d="M63.9 33.979c-.006-.004-.008-.008-.012-.013-.052-.055-.105-.106-.158-.157l-.147-.15c-.048-.047-.101-.096-.149-.145a4.075 4.075 0 00-.147-.147c-.048-.054-.101-.104-.151-.153-.046-.051-.103-.102-.15-.152l-.144-.143c-.048-.053-.101-.102-.147-.152-.055-.051-.106-.104-.158-.154-.047-.051-.1-.104-.146-.154-.049-.049-.104-.098-.148-.146-.051-.054-.104-.103-.154-.156-.046-.05-.1-.099-.146-.147l-.149-.151c-.05-.051-.101-.1-.149-.15a2.574 2.574 0 00-.147-.149c-.048-.053-.103-.104-.151-.155-.046-.052-.101-.101-.15-.152-.049-.051-.1-.1-.149-.149-.048-.051-.101-.101-.147-.152a5.41 5.41 0 01-.151-.153c-.048-.049-.101-.098-.149-.147-.046-.052-.101-.101-.146-.152-.05-.051-.103-.102-.149-.153-.051-.052-.104-.1-.15-.152a3.64 3.64 0 00-.153-.151c-.046-.049-.097-.098-.142-.147a11.767 11.767 0 01-.158-.158l-.147-.149-.146-.146-.147-.151c-.05-.053-.104-.104-.153-.156-.051-.049-.102-.096-.146-.146a3.891 3.891 0 00-.159-.155c-.043-.049-.096-.098-.146-.146-.047-.053-.101-.104-.15-.155a5.18 5.18 0 01-.148-.149c-.047-.052-.102-.101-.146-.15l-.154-.153c-.046-.049-.101-.098-.146-.15a5.518 5.518 0 01-.153-.153c-.048-.049-.101-.096-.147-.145-.043-.051-.096-.101-.146-.152-.046-.053-.104-.104-.154-.155-.051-.051-.101-.1-.15-.152-.045-.049-.096-.096-.146-.145l-.149-.151c-.049-.052-.101-.103-.152-.154-.048-.051-.102-.1-.148-.151-.049-.049-.102-.098-.145-.146l-.154-.154a5.348 5.348 0 00-.15-.151c-.049-.051-.1-.101-.148-.152l-.145-.149-.158-.156c-.049-.049-.096-.098-.145-.145l-.154-.155-.148-.148c-.046-.051-.102-.102-.15-.151s-.11-.102-.158-.15c-.049-.052-.104-.103-.152-.154-.048-.049-.102-.098-.145-.146l-.158-.156c-.045-.051-.096-.1-.141-.148l-.158-.156a1.838 1.838 0 01-.161-.149c-.048-.051-.1-.102-.152-.153-.048-.049-.098-.098-.146-.15-.052-.051-.104-.102-.152-.153-.046-.049-.096-.096-.146-.145-.051-.054-.104-.105-.154-.158l-.15-.15c-.048-.051-.1-.103-.148-.152-.049-.051-.102-.1-.148-.149-.048-.051-.1-.1-.15-.151-.049-.052-.104-.103-.154-.154l-.145-.147c-.051-.051-.101-.1-.149-.152-.05-.051-.104-.102-.154-.151-.044-.051-.096-.1-.144-.149-.049-.054-.104-.105-.154-.156a9.558 9.558 0 00-6.857-2.893c-.595 0-1.172.087-1.735.201l-.013-.011c-.047-.049-.097-.092-.141-.141-.048-.056-.109-.106-.158-.163-.043-.049-.096-.092-.144-.141-.046-.055-.106-.104-.158-.16-.044-.051-.101-.096-.146-.148-.047-.051-.102-.098-.15-.151-.044-.051-.1-.1-.15-.151-.043-.052-.1-.099-.146-.15-.044-.051-.1-.096-.145-.147-.05-.055-.109-.104-.162-.161-.043-.051-.101-.096-.146-.147-.046-.051-.098-.096-.146-.146-.162-.067-.219-.114-.267-.165-.051-.056-.106-.104-.159-.158-.043-.052-.1-.099-.144-.15-.044-.051-.106-.098-.149-.149a11.704 11.704 0 00-8.643-3.808c-5.391 0-9.924 3.644-11.296 8.597-.812-.255-1.658-.43-2.552-.43A8.534 8.534 0 009.613 29.5c0 2.396.995 4.553 2.582 6.1.049.051.101.102.152.148.049.052.1.105.151.152.049.05.098.102.149.148.05.049.101.102.152.15.049.046.1.1.151.146.049.055.101.104.152.154l.151.15c.049.047.098.1.147.146.052.05.103.104.156.154.049.05.096.1.147.146.051.051.101.102.152.15.049.05.098.104.149.148.051.056.102.105.156.155.047.046.096.101.145.144.051.049.102.106.155.156.047.047.096.1.146.143l.155.158c.049.047.098.101.149.146.05.051.101.102.152.15.049.048.098.1.149.146.051.053.102.106.154.154.047.044.096.096.145.141.051.053.104.111.16.161.047.046.096.097.145.142.051.051.1.104.153.154.049.049.098.102.15.15l.153.148c.047.047.094.1.143.143.051.055.105.107.158.158.049.051.098.101.149.15.051.045.1.1.152.145.049.056.098.104.149.15.049.049.1.104.151.152.049.048.101.102.152.148.049.049.1.102.151.148.049.051.1.104.152.148.051.052.1.102.153.152.049.049.096.098.147.145.051.053.101.104.154.152.049.051.1.105.151.151.049.046.098.103.15.146.049.051.1.104.151.15.049.053.098.1.149.149.051.055.105.104.156.153.049.049.096.102.145.146.034.037.064.072.098.107-1.118.125-2.013 1.035-2.013 2.17 0 .631.281 1.181.714 1.568.049.051.098.104.154.153.047.05.096.101.149.146.049.051.098.104.151.15.049.055.099.104.152.148.047.053.096.104.149.15.047.051.096.1.149.149.05.055.099.104.154.153.047.049.096.102.149.145.049.053.098.104.154.152.047.05.096.103.149.146.049.056.098.104.154.154.047.051.096.101.149.147.049.053.098.104.153.152.047.051.096.1.15.146.049.053.098.106.153.152.047.051.096.1.15.146.049.055.098.104.151.15.047.053.096.104.149.148.049.055.098.104.154.154.047.047.094.101.147.146.049.054.098.104.153.149.05.051.099.107.152.15.047.055.096.104.151.149.049.053.096.101.15.147.049.053.096.106.151.151.049.056.098.104.151.149.05.053.097.104.152.148.049.053.096.105.151.151.049.05.096.103.152.146.047.055.096.104.149.149.049.056.098.104.154.153.047.056.096.101.149.146.049.053.096.104.151.152.049.052.098.105.152.15.049.051.098.104.151.15.047.051.096.102.149.146.05.051.097.104.152.148.049.055.098.104.151.15.047.052.096.104.15.15.049.051.098.104.151.15.049.053.098.102.151.148.032.039.058.078.093.111.025.029.053.047.08.071.026.026.045.054.071.079.026.031.055.046.083.07.023.028.045.055.067.078.026.029.054.047.082.071.026.028.045.054.073.079.025.029.051.046.079.07.025.024.045.055.07.078.026.025.053.045.082.071.026.029.044.052.073.079.025.025.051.044.078.068.026.031.045.057.073.084.026.025.053.043.079.068.025.026.045.055.072.078.026.027.054.047.081.071.026.028.047.054.073.079a.811.811 0 00.077.066c.025.028.047.057.074.082.024.029.051.047.077.071.026.021.044.05.071.075.025.029.053.05.08.074.024.025.045.053.069.074.028.029.055.049.083.076.025.028.045.051.072.076.026.027.052.044.079.071.026.026.044.052.071.079.025.023.053.043.081.072.025.026.045.051.072.078.026.027.051.045.08.067.026.028.044.054.073.079.025.029.051.046.078.07.026.029.045.055.073.084a.973.973 0 00.079.065c.025.029.045.054.07.079.026.029.054.048.082.075.026.024.044.052.073.079.025.023.051.044.079.068.023.026.045.047.07.074.028.031.056.049.083.073.024.03.044.054.071.079.025.025.053.046.081.07.025.028.045.055.07.074.026.033.053.051.083.075a.904.904 0 00.071.079c.025.029.051.046.078.07.026.025.045.055.073.08.026.023.053.043.082.07.025.028.044.051.072.078.026.029.052.047.079.069.026.026.045.052.071.079.025.025.053.043.081.07.025.028.047.057.074.08.024.027.051.047.077.067.026.03.047.054.075.083.025.025.051.046.079.07.025.029.047.055.072.08a.945.945 0 00.077.065c.025.029.044.054.073.083.025.025.053.047.08.071.026.024.045.052.071.073.025.029.053.05.082.076.025.024.044.053.07.076.026.027.054.045.081.071.024.03.045.052.071.079.025.029.053.044.079.068.025.026.045.055.07.078.026.027.053.047.081.075.023.025.045.05.07.075.026.029.054.046.082.075l.073.079c.026.029.051.046.079.07.025.024.045.049.072.074.026.029.054.047.082.071.024.028.045.052.071.079l.081.072c.025.026.045.053.072.078.026.027.051.045.077.065.026.03.047.058.075.087.025.027.051.046.078.066.026.024.045.055.071.078.026.029.055.047.083.071a.632.632 0 00.067.075c.026.029.054.05.082.075.026.024.045.054.073.079.025.029.053.046.082.07a1.3 1.3 0 00.067.078c.026.029.053.045.082.071.026.028.047.052.073.077.023.025.051.044.076.07.026.026.047.057.075.084l.079.067c.025.027.045.052.072.079.026.025.052.044.079.07.026.025.044.055.073.08l.079.07c.025.028.047.049.074.078.024.027.052.047.077.067.026.028.044.054.073.079.025.027.053.048.078.074.026.024.045.053.071.076.026.027.053.045.081.071a.785.785 0 00.073.079c.025.031.051.044.078.068.026.027.044.055.071.078.025.027.053.049.081.076.024.024.045.049.071.078.027.025.052.042.08.067.025.028.045.054.072.079.025.027.051.046.08.07.024.028.047.055.073.082.026.025.052.045.079.067.027.028.045.052.074.079.024.029.053.048.08.072.025.027.045.053.07.08.025.025.053.043.079.069.024.025.045.052.069.077.025.027.055.046.08.07.026.031.045.055.074.08.024.023.053.045.08.07.024.028.045.055.068.078.025.029.057.047.083.071l.067.075c.025.027.056.05.08.074.026.024.043.053.07.078l.079.071.073.081c.025.027.052.044.076.066.029.027.045.053.072.078.025.029.053.049.08.074.024.026.043.049.068.078a.477.477 0 00.079.066c.026.029.046.055.075.084.023.023.05.046.076.07.026.028.049.055.074.078a.59.59 0 00.075.067c.024.028.044.054.073.083.023.025.054.044.078.07.025.024.045.049.07.074.025.029.051.047.084.075l.064.077c.021.025.052.044.081.068.028.031.046.055.071.08.023.025.05.045.074.07.028.028.045.055.07.078.029.029.055.047.083.073.021.026.046.052.065.077.025.029.056.05.082.074.026.027.043.055.072.08.025.025.051.043.079.069a.754.754 0 01.063.071C50.82 62.188 62.941 49.596 63.9 33.979z"/></g><path fill="#FFF" d="M54.393 28.433c0 5.299-4.297 9.6-9.601 9.6h-26.65a8.533 8.533 0 010-17.066c.894 0 1.741.177 2.552.43 1.374-4.953 5.904-8.597 11.298-8.597 4.542 0 8.475 2.588 10.425 6.364.763-.194 1.55-.33 2.375-.33a9.599 9.599 0 019.601 9.599zM32 42.482a2.133 2.133 0 100 4.27 2.133 2.133 0 000-4.27zm12.8 0a2.133 2.133 0 00-2.133 2.134c0 1.18.954 2.134 2.133 2.134a2.134 2.134 0 000-4.268zm-25.6 0a2.134 2.134 0 10.002 4.268 2.134 2.134 0 00-.002-4.268zm19.2 6.402a2.133 2.133 0 100 4.267c1.179 0 2.133-.953 2.133-2.133s-.954-2.134-2.133-2.134zm-12.8 0a2.133 2.133 0 100 4.266 2.133 2.133 0 000-4.266z"/></svg>