<?xml version="1.0" standalone="no"?>
<!DOCTYPE svg PUBLIC "-//W3C//DTD SVG 20010904//EN"
 "http://www.w3.org/TR/2001/REC-SVG-20010904/DTD/svg10.dtd">
<svg version="1.0" xmlns="http://www.w3.org/2000/svg"
 width="512.000000pt" height="512.000000pt" viewBox="0 0 512.000000 512.000000"
 preserveAspectRatio="xMidYMid meet">

<g transform="translate(0.000000,512.000000) scale(0.100000,-0.100000)"
fill="#8A7EF2" stroke="none">
<path d="M2320 5109 c-198 -19 -451 -76 -635 -143 -124 -46 -375 -168 -475
-232 -248 -158 -528 -414 -692 -634 -261 -350 -423 -735 -490 -1165 -31 -200
-31 -550 0 -750 87 -556 329 -1033 726 -1431 221 -220 412 -357 681 -489 186
-92 306 -136 499 -185 591 -149 1199 -87 1743 179 246 121 452 264 649 454
148 142 253 267 364 435 517 777 570 1755 141 2587 -127 246 -259 425 -470
635 -222 221 -425 366 -706 501 -409 197 -882 281 -1335 238z m560 -255 c566
-81 1094 -374 1452 -805 222 -268 386 -583 467 -902 83 -322 98 -655 45 -967
-155 -909 -826 -1638 -1718 -1865 -207 -52 -342 -68 -571 -68 -224 0 -371 19
-577 72 -805 208 -1453 855 -1657 1654 -141 549 -87 1096 159 1602 114 235
252 427 445 620 395 395 895 627 1455 675 124 11 367 3 500 -16z"/>
<path d="M1647 3520 c-185 -46 -285 -247 -203 -413 108 -221 411 -226 523 -8
27 51 33 74 33 125 0 82 -22 144 -71 200 -69 78 -189 119 -282 96z"/>
<path d="M3341 3520 c-126 -26 -219 -136 -228 -270 -9 -124 58 -234 174 -287
48 -22 65 -25 132 -21 91 6 140 28 199 91 58 63 75 108 76 197 1 93 -23 150
-88 214 -67 65 -172 95 -265 76z"/>
<path d="M2215 2085 c-126 -23 -262 -78 -365 -148 -66 -45 -186 -163 -235
-232 -112 -158 -175 -347 -175 -528 0 -77 1 -80 34 -113 29 -29 41 -34 80 -34
38 0 52 6 82 33 35 32 37 36 45 130 18 190 82 331 209 457 121 120 240 179
405 201 129 17 581 7 660 -15 293 -80 496 -325 525 -633 10 -110 26 -140 84
-162 50 -19 107 -2 138 42 20 28 23 43 21 112 -11 436 -343 814 -780 890 -111
19 -623 20 -728 0z"/>
</g>
</svg>
