<svg xmlns="http://www.w3.org/2000/svg" width="64" height="64"><circle fill="#34495E" cx="32" cy="32" r="32"/><path fill="#2C3E50" d="M32 64c17.673 0 32-14.327 32-32S49.673 0 32 0v64z"/><defs><filter id="a" filterUnits="userSpaceOnUse" x="15.58" y="18.142" width="47.24" height="44.781"><feColorMatrix values="1 0 0 0 0 0 1 0 0 0 0 0 1 0 0 0 0 0 1 0"/></filter></defs><mask maskUnits="userSpaceOnUse" x="15.58" y="18.142" width="47.24" height="44.781" id="c"><g filter="url(#a)"><radialGradient id="b" cx="91.77" cy="-523.599" r="37.333" gradientTransform="matrix(1 0 0 -1 -62.97 -494.799)" gradientUnits="userSpaceOnUse"><stop offset="0" stop-color="#fff"/><stop offset=".113" stop-color="#e8e8e8"/><stop offset=".349" stop-color="#adadad"/><stop offset=".687" stop-color="#4e4e4e"/><stop offset=".952"/></radialGradient><circle fill="url(#b)" cx="28.8" cy="28.8" r="37.333"/></g></mask><g opacity=".4" mask="url(#c)"><path fill="#1A171B" d="M40.109 62.923c-.026-.03-.058-.057-.084-.085-.051-.046-.103-.104-.15-.15-.052-.049-.1-.104-.152-.152-.048-.044-.098-.102-.146-.146-.05-.047-.103-.104-.15-.152-.052-.049-.1-.103-.147-.146-.051-.048-.103-.104-.15-.148-.054-.051-.104-.108-.154-.156-.05-.045-.096-.098-.144-.145-.052-.045-.103-.102-.151-.15-.055-.047-.103-.104-.15-.151-.055-.048-.104-.104-.152-.151-.05-.045-.102-.103-.148-.148-.051-.048-.1-.102-.146-.148-.053-.047-.102-.102-.15-.146-.052-.049-.104-.105-.154-.153-.049-.048-.1-.104-.152-.153-.05-.045-.096-.101-.143-.143-.053-.05-.101-.104-.148-.148l-.148-.149c-.056-.052-.106-.108-.158-.158-.051-.046-.098-.101-.146-.146-.055-.047-.104-.104-.151-.149-.049-.045-.101-.104-.148-.151-.051-.043-.098-.099-.146-.145-.054-.051-.106-.109-.16-.162-.047-.044-.096-.102-.144-.145-.05-.047-.097-.102-.146-.147-.055-.046-.104-.104-.156-.153-.049-.045-.096-.101-.146-.146-.056-.047-.104-.104-.154-.154-.053-.046-.1-.104-.149-.15-.049-.045-.096-.1-.146-.146-.049-.05-.101-.104-.153-.153-.05-.047-.097-.104-.147-.149-.053-.046-.103-.104-.151-.149-.05-.046-.099-.104-.149-.148-.048-.045-.097-.1-.142-.144-.058-.052-.108-.106-.162-.161-.052-.047-.097-.101-.146-.146-.054-.045-.102-.104-.15-.148-.051-.047-.1-.104-.149-.15-.05-.049-.101-.104-.149-.148-.047-.045-.092-.098-.142-.143-.06-.055-.112-.112-.169-.168-.053-.045-.098-.1-.146-.144-.053-.048-.098-.103-.146-.149-.052-.049-.099-.103-.148-.146-.053-.048-.103-.104-.152-.152-.051-.043-.098-.103-.148-.146-.053-.045-.102-.104-.154-.152-.05-.047-.099-.102-.148-.15-.052-.047-.099-.1-.149-.148-.051-.046-.099-.102-.15-.15-.051-.043-.095-.096-.146-.146-.058-.052-.112-.112-.167-.163-.047-.046-.092-.098-.139-.143-.049-.045-.096-.098-.145-.146-.053-.049-.104-.104-.158-.153-.051-.047-.1-.104-.151-.15-.051-.045-.096-.1-.146-.146-.054-.05-.104-.107-.159-.156-.049-.047-.096-.102-.145-.146-.051-.047-.1-.104-.154-.15-.053-.047-.098-.104-.149-.149-.051-.045-.098-.104-.149-.147-.054-.051-.103-.105-.156-.154l-.139-.143c-.051-.046-.1-.104-.151-.148-.056-.051-.105-.107-.161-.158-.051-.047-.098-.104-.149-.148-.054-.047-.101-.104-.154-.152-.049-.045-.096-.098-.145-.145-.051-.051-.098-.104-.149-.15-.054-.049-.103-.104-.156-.153-.053-.05-.1-.104-.153-.153-.05-.046-.095-.099-.146-.146-.051-.047-.098-.1-.149-.147-.053-.049-.1-.103-.154-.151-.051-.045-.098-.101-.149-.148-.053-.047-.1-.102-.151-.148-.056-.053-.105-.108-.16-.16-.047-.045-.09-.094-.134-.137-.055-.049-.106-.107-.163-.158-.049-.045-.094-.102-.143-.145-.051-.049-.1-.104-.151-.146-.053-.051-.102-.108-.158-.158-.053-.049-.1-.104-.153-.151-.047-.045-.089-.099-.138-.142-.053-.049-.105-.104-.159-.157-.049-.043-.096-.097-.145-.142-.055-.051-.107-.108-.163-.164-.049-.045-.092-.096-.141-.143-.053-.045-.1-.1-.153-.148-.054-.049-.103-.106-.158-.155-.049-.048-.096-.101-.147-.147-.051-.045-.098-.101-.15-.148-.051-.045-.098-.102-.149-.15-.053-.045-.102-.104-.155-.152-.05-.047-.097-.102-.146-.146-.047-.047-.09-.096-.139-.139-.06-.055-.115-.113-.173-.172-.047-.045-.09-.094-.137-.137-.053-.052-.104-.109-.157-.158-.052-.047-.097-.101-.148-.146-.053-.049-.102-.105-.153-.152-.051-.047-.098-.102-.149-.148-.05-.043-.097-.102-.146-.145-.051-.048-.1-.104-.151-.152-.053-.045-.103-.104-.156-.152-.053-.045-.103-.104-.155-.154-.049-.045-.094-.096-.141-.141-.051-.047-.099-.102-.15-.15-.055-.049-.104-.104-.157-.156-.051-.043-.096-.1-.148-.145-.053-.049-.102-.107-.153-.158-.049-.043-.094-.096-.143-.139-.053-.049-.105-.105-.159-.158-.051-.049-.098-.104-.149-.148-.053-.049-.102-.106-.156-.158-.049-.041-.096-.096-.145-.143-.049-.045-.094-.098-.143-.141-.053-.051-.102-.107-.156-.156-.053-.049-.102-.105-.155-.156-.049-.045-.094-.098-.143-.143-.056-.049-.105-.107-.16-.158-.049-.045-.094-.1-.145-.145-.053-.047-.1-.105-.154-.154-.051-.045-.098-.102-.149-.148-.053-.049-.102-.104-.156-.153-.049-.048-.096-.101-.145-.146-.049-.048-.094-.097-.143-.144-.058-.052-.108-.106-.165-.16-.049-.043-.094-.099-.143-.146-.055-.049-.104-.105-.157-.156-.05-.047-.093-.096-.142-.141a12.778 12.778 0 01-2.423-3.025c-3.54-6.139-1.44-13.968 4.68-17.503a12.738 12.738 0 015.203-1.649c-.043.06-.072.128-.115.188.09-.01.177-.029.267-.039-.042.063-.075.13-.116.191.09-.008.177-.03.267-.039-.043.059-.072.128-.115.188.089-.01.177-.03.265-.039-.043.061-.073.128-.116.189.089-.01.177-.029.267-.038-.042.06-.073.127-.116.19.09-.008.177-.03.267-.039-.042.059-.072.128-.114.189.089-.01.177-.029.267-.039-.043.061-.073.128-.116.19.09-.011.177-.03.267-.038-.042.059-.072.128-.114.189.089-.011.177-.03.267-.039-.043.059-.073.128-.116.19.089-.011.177-.03.265-.039-.043.06-.073.128-.116.19.089-.011.177-.03.267-.039-.042.059-.072.128-.115.188.09-.011.177-.029.265-.039-.042.06-.073.128-.116.19.09-.011.177-.03.267-.039-.045.062-.075.13-.115.189.089-.008.176-.03.267-.038-.042.06-.073.128-.113.188.087-.011.175-.029.264-.038-.042.059-.075.127-.115.189.089-.008.177-.03.267-.039-.043.06-.072.128-.115.188.09-.01.177-.03.265-.039-.043.063-.075.13-.116.191.09-.01.177-.03.267-.039-.042.059-.073.128-.116.189.091-.01.177-.03.267-.039-.042.06-.072.128-.115.188.089-.01.177-.029.267-.039-.045.063-.075.131-.116.19.09-.011.177-.03.267-.039-.042.06-.072.128-.114.19.089-.011.177-.029.267-.039-.046.069-.076.137-.119.197.09-.012.177-.03.265-.039-.043.06-.073.128-.116.188.091-.01.177-.03.267-.039-.042.061-.072.128-.114.19.089-.011.177-.029.267-.038-.043.059-.073.127-.116.188.089-.011.177-.03.267-.039-.042.059-.072.128-.115.189.09-.01.177-.03.267-.039-.043.061-.073.128-.116.189.087-.01.177-.029.265-.037-.043.059-.073.128-.116.189.089-.01.177-.03.267-.039-.042.06-.072.128-.115.189.09-.008.177-.029.267-.039-.042.061-.073.128-.115.188.089-.011.177-.03.267-.038-.043.061-.074.13-.115.189.09-.011.177-.029.267-.039-.042.061-.073.128-.116.188.09-.011.177-.03.265-.039-.042.06-.073.128-.116.189.09-.01.177-.03.267-.039-.042.06-.072.128-.114.19.089-.008.177-.029.266-.038-.042.059-.072.127-.115.189.09-.01.178-.03.265-.039-.042.06-.071.128-.114.188.09-.01.177-.03.267-.039-.043.061-.072.128-.115.19.09-.009.178-.029.268-.038-.043.062-.073.129-.114.189.09-.008.177-.03.267-.039-.041.06-.07.128-.113.188.09-.01.178-.029.266-.039-.043.061-.073.128-.116.188.091-.011.179-.03.267-.039-.041.06-.069.128-.112.19.088-.011.176-.03.269-.039-.047.063-.076.13-.117.19.09-.009.178-.03.268-.039-.041.06-.072.128-.117.188.094-.011.182-.03.268-.039-.043.06-.071.128-.114.189.092-.01.178-.029.266-.038-.043.06-.073.128-.114.188.088-.012.176-.03.268-.039-.047.062-.076.13-.115.189.09-.008.178-.03.268-.039-.043.061-.071.128-.115.188.041-.004.08-.013.121-.017.011-.032.037-.064.048-.094.206-.686.522-.804.774-.405a.46.46 0 01.148.145c.049.039.104.077.152.154.049.036.102.074.146.149.051.037.104.074.152.151a.485.485 0 01.152.154c.049.036.1.074.146.149a.49.49 0 01.151.151.447.447 0 01.146.15.517.517 0 01.154.153c.049.036.1.075.146.15a.42.42 0 01.148.149c.051.037.104.075.153.149.049.037.104.075.15.154a.536.536 0 01.15.151c.047.037.1.075.146.15a.464.464 0 01.147.149.526.526 0 01.151.151c.045.032.092.052.133.115.037.023.054.047.076.072.027.026.053.043.078.079.031.024.045.047.072.073.027.025.048.041.072.077.037.025.055.049.08.076.025.026.047.041.072.075.033.024.049.047.075.073.025.025.048.042.072.078.035.024.049.048.076.073.024.026.051.042.075.079.035.023.052.049.074.075.027.025.049.04.075.074.034.026.048.049.075.075.025.026.048.042.072.077.035.023.053.047.078.072.022.026.049.042.072.079.038.024.053.047.075.073.027.025.05.043.074.077.034.023.051.046.075.072.029.026.052.045.078.082.033.023.05.047.072.072.027.026.049.044.073.077.032.024.05.047.075.073.023.025.05.043.074.079.035.023.051.047.074.072.028.026.053.044.074.079.038.024.055.047.077.071.026.025.048.044.074.08.034.024.049.048.075.073.023.026.048.043.072.079.037.023.051.047.074.073.027.025.051.042.075.076.038.024.052.049.077.075.027.026.048.043.072.077.037.025.051.049.08.076.021.025.045.043.068.074.036.027.057.05.079.076.024.024.046.042.069.076.037.025.054.051.08.076.024.025.05.043.072.076.035.023.049.047.074.072.027.025.049.045.075.076.036.024.053.051.077.076.023.022.048.041.074.076.033.022.049.047.074.071.024.024.049.041.072.078.036.024.053.047.077.073.024.023.051.043.073.076.033.023.052.051.076.07.024.027.049.045.074.084.033.021.049.043.07.07.029.023.055.041.079.078.034.025.051.047.075.072.023.026.05.045.074.08.037.021.051.047.076.071.025.026.049.043.073.08.035.021.05.047.079.073.021.025.046.041.068.074.033.025.052.049.076.074s.049.043.074.078c.033.021.051.049.075.072s.05.041.073.074c.037.027.052.051.08.074.023.026.049.047.07.08.037.024.053.047.078.071.025.026.047.045.071.076.037.026.054.047.079.075.023.025.046.041.068.076.033.021.052.045.076.07.026.025.051.043.078.078.033.025.049.049.075.074.021.025.046.043.067.074.041.025.054.047.08.072.025.026.053.045.076.08.032.022.047.043.07.067.025.026.051.045.075.08.039.024.054.047.079.073.023.025.048.045.068.076.033.023.051.045.076.069.028.028.053.046.078.081.033.025.047.049.073.072.024.025.048.039.071.076.039.022.056.047.08.074.025.022.049.043.069.073.037.025.056.048.079.072.023.026.051.045.075.082.032.024.05.045.073.065.025.028.052.045.074.084.037.021.051.043.071.069.029.024.052.042.079.079.033.021.049.044.073.068.026.027.052.045.077.08.033.025.05.047.074.072.023.022.051.041.073.073.036.026.052.052.075.074.025.026.048.045.075.075.034.025.05.05.079.078.023.025.046.043.066.074.037.025.053.047.078.071.024.024.049.042.074.075.035.027.051.05.079.078.024.025.046.043.071.076.033.021.05.045.074.07.023.022.053.041.075.08.036.021.05.045.071.064.025.027.052.046.076.082.037.023.051.05.078.074.023.025.047.043.07.076.034.021.049.045.075.069.024.024.054.044.079.079.033.025.049.046.072.072.027.027.049.045.076.078.035.023.047.045.074.069.025.027.053.046.071.079.036.023.051.046.075.068.027.025.052.048.078.084.035.021.049.046.074.07.025.025.049.043.07.075.039.024.051.05.08.075.023.023.045.041.07.074.037.025.05.051.074.074.028.024.051.043.076.076.036.023.051.049.077.073.024.022.05.041.072.077.036.021.049.048.077.07.023.025.052.043.074.08.033.022.051.045.07.066.029.029.055.047.08.083.032.021.047.044.069.065.028.029.054.047.079.082.033.021.051.049.076.072a.579.579 0 01.074.08c.032.021.049.045.073.065.024.026.052.045.075.083.035.021.05.046.074.068.027.025.054.045.074.078.033.022.051.047.074.07.025.027.051.044.078.081.035.022.047.046.072.071.023.023.051.043.074.078.035.025.051.049.074.07.026.028.051.047.076.08.032.023.049.047.073.071.024.026.052.044.075.077.037.023.05.046.076.072.023.023.049.043.072.076.035.024.051.045.074.07.027.025.051.044.076.079.037.024.049.046.074.071a.434.434 0 01.076.078c.035.023.049.047.072.07.026.026.051.043.077.078.037.025.052.051.076.075.024.026.049.044.071.079.037.021.052.044.078.07.023.023.049.041.07.074.037.024.051.045.076.072.027.025.049.044.076.079.034.024.051.048.076.073.023.023.047.041.07.074.037.025.053.051.078.08.024.021.049.039.071.068.037.023.054.046.078.075.024.024.051.046.075.079.033.021.046.046.07.064.027.027.055.045.078.084.035.022.049.045.07.066.029.029.055.046.08.083.031.024.047.046.072.071.025.022.049.041.074.074.035.023.053.051.08.078.022.022.047.043.067.07.037.025.051.048.078.074.026.025.049.043.075.074.035.025.05.051.076.076.025.028.051.045.072.078.033.024.051.047.072.068.027.027.053.044.08.081.031.022.047.044.072.071a.327.327 0 01.074.078c.037.024.051.049.073.075.025.022.052.041.076.074.033.022.049.045.074.069.028.027.051.043.077.078.033.023.048.047.072.072.025.025.053.043.08.078.029.023.045.047.068.07.025.025.051.042.078.078.033.025.049.052.076.076.024.024.047.041.07.076.037.022.051.045.073.067.026.026.052.045.076.08.034.022.049.045.073.069.025.025.054.045.08.084.033.021.047.041.072.068.025.026.049.043.074.076.035.023.053.047.076.07.025.029.052.046.076.078.031.024.047.049.074.076.024.024.049.041.074.073.032.025.049.05.069.07.028.028.052.047.08.08.032.022.051.045.073.071.025.027.052.045.076.08.033.023.049.045.074.072.023.023.049.041.074.078.033.021.049.045.07.066.029.029.055.045.08.08.031.022.045.045.07.07.028.025.055.045.08.081.032.022.049.048.073.066.022.028.05.047.074.084.034.021.049.047.073.069.025.025.052.043.076.078.032.025.049.047.072.07.025.025.053.043.078.08.031.021.049.047.068.066.029.029.055.045.078.084.039.021.055.047.08.074.024.024.045.041.068.071.034.022.055.05.079.073.026.029.048.046.074.078.034.021.053.052.077.076.021.023.045.039.07.068.032.027.049.049.074.076.027.023.053.043.078.078.029.025.047.047.068.068.027.026.053.043.078.084.037.021.049.047.076.067.024.026.047.046.072.078.034.024.051.047.075.071a.475.475 0 01.077.078c.033.023.05.049.072.072.027.027.051.045.076.08.034.021.047.043.072.068.027.025.05.045.076.078.035.025.053.047.078.07.023.028.047.045.074.08.035.022.049.049.074.073.024.024.047.041.069.074.037.024.051.051.08.075.024.025.05.046.071.076.035.025.054.049.078.074.023.025.047.043.069.072.035.025.05.049.075.072.029.027.054.045.078.08.033.023.049.045.07.068.028.028.055.045.08.082.032.021.051.047.073.067.025.028.052.045.075.082.034.022.048.047.075.071.024.023.048.043.073.078.033.025.052.047.076.07.023.025.049.041.073.08.033.021.052.045.073.066.027.027.052.045.076.082.033.023.049.045.07.066.028.028.055.045.08.084.036.022.053.047.075.071.022.026.05.043.07.074.034.022.053.049.077.069.027.027.051.045.074.082.035.025.051.047.076.07.025.025.049.043.078.08.031.023.047.045.068.068.027.025.054.043.078.08.035.024.049.047.076.072.025.024.047.045.074.077.032.021.049.046.071.07.026.026.054.043.079.077.033.025.046.048.07.072.024.023.053.041.076.078.035.025.049.047.075.072.022.021.043.039.063.068-4.095 6.25-10.494 10.804-17.955 12.756zm14.377-31.369c-.023-.026-.041-.049-.076-.075-.021-.036-.049-.051-.072-.076-.025-.026-.042-.05-.074-.075-.027-.037-.051-.051-.076-.077-.023-.025-.043-.049-.078-.075-.021-.034-.047-.049-.07-.074a.581.581 0 00-.079-.077c-.021-.034-.046-.049-.071-.075-.025-.025-.045-.051-.076-.074-.025-.037-.047-.052-.072-.077-.028-.026-.043-.049-.078-.075-.023-.034-.047-.051-.07-.076-.029-.026-.046-.049-.078-.075-.025-.034-.047-.051-.072-.077-.025-.025-.045-.051-.078-.077-.024-.034-.051-.049-.07-.074-.027-.026-.046-.049-.079-.075-.022-.035-.048-.049-.071-.075-.027-.025-.043-.051-.076-.076-.025-.034-.047-.049-.073-.075-.025-.026-.044-.049-.077-.075-.023-.034-.046-.051-.07-.076-.029-.026-.046-.05-.078-.075-.024-.035-.05-.051-.076-.077-.023-.025-.041-.049-.073-.075-.025-.035-.048-.051-.075-.078-.023-.026-.042-.049-.075-.075-.022-.037-.05-.051-.073-.077-.025-.025-.041-.049-.074-.072-.025-.035-.049-.049-.076-.075-.023-.026-.041-.051-.076-.077-.021-.033-.046-.049-.07-.074-.027-.026-.043-.052-.08-.077-.022-.035-.047-.049-.072-.075-.023-.025-.041-.049-.073-.074-.026-.035-.049-.052-.075-.077a.479.479 0 00-.079-.075c-.021-.034-.046-.049-.067-.075-.026-.025-.043-.051-.078-.076-.027-.037-.049-.051-.075-.077-.024-.026-.044-.049-.077-.075-.023-.036-.046-.051-.07-.076-.026-.024-.041-.05-.074-.073-.024-.036-.051-.051-.077-.079-.026-.025-.039-.049-.074-.073-.026-.036-.049-.053-.075-.078a.483.483 0 00-.076-.073c-.021-.035-.047-.049-.07-.075-.026-.025-.043-.051-.08-.076-.023-.034-.045-.049-.069-.075-.024-.026-.042-.051-.079-.077-.025-.034-.046-.049-.07-.074-.024-.026-.047-.051-.08-.077-.022-.036-.049-.051-.073-.077-.024-.025-.041-.049-.074-.072-.024-.036-.049-.052-.071-.077-.027-.026-.046-.049-.078-.075-.025-.037-.047-.051-.072-.077-.026-.025-.043-.049-.078-.074-.023-.035-.045-.049-.069-.075-.026-.026-.044-.051-.079-.075-.025-.033-.046-.051-.07-.076-.028-.026-.047-.052-.08-.077-.022-.035-.047-.049-.071-.077-.026-.025-.043-.049-.074-.073-.024-.038-.053-.053-.077-.081-.025-.026-.046-.049-.078-.073-.023-.034-.045-.049-.07-.075-.024-.025-.041-.051-.076-.074-.023-.037-.049-.052-.073-.077-.024-.026-.042-.049-.077-.075-.022-.035-.048-.051-.072-.077-.024-.025-.043-.048-.075-.074-.023-.034-.05-.049-.074-.075-.024-.025-.041-.051-.074-.076-.024-.035-.049-.05-.073-.075-.025-.026-.043-.051-.078-.077-.027-.034-.049-.049-.072-.075-.023-.025-.041-.051-.08-.074-.021-.034-.045-.051-.068-.077-.027-.026-.043-.049-.076-.075-.026-.035-.047-.051-.074-.076-.024-.026-.045-.052-.077-.077-.026-.034-.048-.049-.072-.077-.045-.026-.062-.05-.096-.076-.021-.034-.046-.049-.07-.074-.026-.026-.043-.051-.078-.077-.024-.036-.047-.051-.075-.077-.023-.025-.039-.049-.072-.074-.025-.037-.051-.052-.074-.077-.028-.026-.045-.049-.078-.075-.023-.034-.047-.049-.072-.077-.025-.025-.043-.049-.078-.074-.024-.034-.045-.049-.069-.077-.029-.026-.046-.049-.08-.075-.022-.034-.048-.049-.07-.074-.028-.026-.047-.049-.079-.075-.025-.037-.05-.051-.074-.077-.025-.025-.043-.049-.076-.074-.021-.034-.045-.049-.068-.075-.029-.026-.047-.051-.08-.077-.025-.035-.049-.049-.07-.072-.029-.026-.043-.052-.08-.077-.024-.035-.045-.051-.074-.077-.024-.025-.041-.049-.077-.075-.022-.035-.048-.051-.072-.076-.026-.026-.041-.049-.073-.075-.027-.034-.05-.049-.076-.075-.023-.025-.041-.049-.072-.074-.025-.039-.053-.054-.078-.081-.025-.024-.045-.047-.076-.071-.023-.035-.047-.051-.07-.077-.027-.026-.045-.049-.078-.074-.026-.034-.049-.051-.074-.077-.024-.026-.045-.051-.077-.074-.021-.035-.048-.05-.07-.075-.026-.026-.043-.051-.077-.077-.025-.034-.05-.049-.074-.075-.025-.025-.043-.05-.075-.075-.024-.036-.048-.051-.075-.079-.023-.026-.043-.049-.078-.075-.021-.037-.047-.051-.07-.078-.025-.024-.043-.048-.076-.073-.024-.036-.049-.051-.076-.079-.024-.025-.045-.049-.077-.075-.022-.035-.046-.051-.07-.076-.028-.026-.043-.049-.077-.075-.025-.037-.05-.051-.074-.077-.025-.025-.043-.049-.074-.074-.027-.035-.049-.052-.072-.077-.025-.026-.047-.049-.08-.075-.025-.036-.047-.051-.07-.077-.029-.025-.045-.049-.08-.074-.024-.034-.045-.049-.07-.077-.028-.026-.047-.049-.079-.075-.022-.035-.046-.049-.072-.076-.024-.026-.043-.05-.075-.075-.025-.036-.052-.051-.076-.077-.023-.025-.041-.049-.074-.075-.047-.062-.09-.081-.137-.113a.527.527 0 00-.151-.154.487.487 0 00-.149-.151c-.047-.075-.096-.11-.146-.147a.544.544 0 00-.154-.154.49.49 0 00-.149-.149.46.46 0 00-.146-.151c-.048-.077-.104-.115-.152-.152-.045-.075-.098-.113-.148-.149a.499.499 0 00-.147-.152c-.049-.076-.103-.114-.151-.151a.532.532 0 00-.148-.151c-.049-.077-.102-.114-.15-.15-.047-.074-.1-.112-.148-.149-.046-.077-.102-.118-.148-.154-.048-.074-.102-.113-.15-.149a.51.51 0 00-.148-.149.472.472 0 00-.15-.152c-.254-.399-.566-.277-.777.408-.271.868-1.194 1.798-2.063 2.063-.688.211-.812.529-.408.786.037.051.076.1.149.149.037.051.072.102.149.151.037.052.074.1.148.15a.543.543 0 00.149.151c.038.051.075.102.149.151a.545.545 0 00.149.152c.037.051.074.1.149.149a.515.515 0 00.15.154c.039.051.076.1.147.149.038.051.075.1.149.149a.494.494 0 00.153.154.438.438 0 00.149.149c.037.051.072.102.148.15a.49.49 0 00.146.151c.039.051.074.102.15.151a.49.49 0 00.153.152.484.484 0 00.147.151c.033.045.054.089.113.134.025.037.051.051.074.077.025.025.043.049.078.075.021.033.045.049.068.074.026.028.045.051.08.079.026.035.047.051.073.077.024.025.039.049.076.074.022.034.047.052.071.077.027.026.044.049.078.075.023.034.047.049.072.077.023.025.043.049.076.074.021.035.049.051.072.077.027.026.041.049.076.075.025.037.049.051.072.076.026.026.045.05.08.075.024.037.045.051.069.077.028.025.047.051.084.077.021.031.043.047.065.072a.633.633 0 00.078.077c.025.037.047.051.074.077.025.025.041.049.076.074.023.037.045.052.07.077.027.026.045.049.078.075.025.033.047.049.07.075.028.025.047.051.082.076.022.035.043.049.069.075.024.026.045.051.078.077.022.033.047.049.069.074.029.026.045.051.078.077.025.037.049.051.072.077.027.025.045.051.078.074.023.037.045.051.074.077.023.026.041.049.076.075.022.034.043.047.068.072.026.026.047.052.079.077.025.034.048.049.07.075.028.025.047.051.08.077.022.034.049.049.071.074.025.026.043.051.078.075.025.035.049.049.072.075.025.025.043.051.076.076.025.034.047.05.074.075.023.026.043.049.076.075.022.033.049.049.07.074.026.026.045.051.079.075.025.037.048.051.072.077.026.025.045.049.08.074.021.037.045.052.069.077.028.026.043.049.08.075.023.036.047.051.07.079.027.025.045.049.076.072.025.037.047.051.074.077a.676.676 0 00.076.075c.022.034.045.049.07.074.026.026.045.052.079.077.024.034.046.049.07.077.028.025.047.051.082.077.022.031.043.047.067.07.025.026.041.051.08.079.023.034.049.051.072.077.021.019.016.038.039.055-.154.044-.311.228-.428.612-.271.868-1.195 1.798-2.063 2.063-.685.211-.81.527-.409.783a.537.537 0 00.148.151.532.532 0 00.15.15.477.477 0 00.148.15c.038.051.075.104.148.15a.474.474 0 00.15.15.453.453 0 00.152.15.469.469 0 00.15.152c.037.051.072.102.148.147a.473.473 0 00.146.147c.039.053.074.104.152.153a.469.469 0 00.147.149c.039.051.075.104.151.148a.478.478 0 00.149.154c.04.051.075.1.147.146.039.054.074.104.146.149.04.054.079.104.153.152.041.05.075.1.149.146.033.045.051.092.116.137.024.037.048.055.075.078.023.024.041.047.07.07.023.038.051.053.076.079.024.024.045.048.074.071.026.037.053.054.077.08.024.027.042.049.074.07.024.037.049.053.075.077.023.024.041.05.072.07.026.04.053.055.078.083.027.023.045.046.075.07.022.033.044.047.069.07.025.028.043.051.078.076.023.036.049.053.074.077.024.024.043.052.074.075.024.035.051.05.075.078.024.021.042.047.074.072.024.032.051.051.077.077.023.024.039.048.072.068.026.04.051.057.08.081.023.021.038.046.069.066.024.039.05.055.075.082.023.021.041.047.074.072.023.032.051.049.074.076.024.025.041.049.074.072.025.037.051.05.075.078.028.024.046.047.078.072.021.034.047.049.071.073.023.026.041.049.074.074.024.034.051.053.074.079.027.023.042.049.077.07.024.037.048.051.073.076.025.027.045.049.078.074.024.034.047.049.069.072.025.025.042.049.077.076.025.037.048.053.077.078.024.024.042.047.069.069.027.039.052.056.08.082.024.022.041.05.074.071.024.035.049.052.075.076.024.023.041.051.072.07.026.037.05.053.075.078s.043.049.076.074c.021.033.047.051.069.076.027.023.044.046.08.072.022.035.048.053.074.078.024.024.042.049.073.069.025.039.052.056.078.082.026.024.039.047.07.065.026.039.053.058.079.082.024.021.039.043.067.068.027.037.053.055.08.08.023.023.041.049.074.068.024.039.051.055.076.084.021.025.039.047.073.07.022.033.05.051.073.08.025.022.043.045.074.067.025.039.051.052.076.078.024.024.041.049.074.073.023.035.049.05.072.074.027.025.044.049.076.074.025.035.052.051.076.078.023.025.041.047.076.07.024.037.049.055.076.08.021.025.04.045.071.07.024.034.05.051.073.08.025.022.047.045.076.069.023.034.049.051.074.078.024.024.041.047.076.071.023.037.049.049.077.078.022.023.037.047.069.068.026.039.052.057.08.086.023.021.041.045.074.064.024.037.049.053.072.08.027.024.039.045.075.07.022.036.048.053.073.079.025.022.045.046.072.07.027.036.051.055.076.077.023.025.043.048.078.072.021.037.047.051.073.078.026.023.038.049.073.07.026.037.049.053.076.078.023.025.043.047.075.072.025.035.052.053.075.08.025.022.042.047.075.067.022.035.048.056.071.08.027.022.043.047.076.074.025.034.053.051.076.073.023.025.041.05.074.074.025.033.051.051.074.078.025.027.041.049.076.068.022.037.047.055.074.078.023.025.041.049.071.07.026.039.054.055.079.084.027.024.044.045.074.067.025.035.049.05.068.074.029.026.045.049.078.075.027.039.051.054.076.076.023.027.041.051.072.072.027.037.053.053.078.082.027.025.045.047.076.07.022.033.047.051.071.074.024.025.041.051.074.072.026.041.051.053.079.082a.51.51 0 00.07.069c.023.035.051.052.074.076.024.022.041.049.078.073.025.037.047.054.074.078.023.025.043.047.072.069.025.038.05.052.074.081.026.025.047.047.08.07.022.033.045.051.067.07.026.028.043.055.08.078.024.033.047.051.071.075.023.029.041.052.078.076.023.035.047.049.07.078.026.021.043.045.074.069.029.037.053.056.08.078.023.025.041.047.07.071.025.034.05.052.076.079.024.025.045.048.076.072.022.035.047.049.071.074.026.026.043.049.078.074.024.036.047.055.071.077.027.025.045.05.076.07.027.039.053.058.078.084.027.021.041.043.072.065.023.037.051.056.075.082.024.021.042.047.075.069.024.034.048.052.074.077.024.027.045.05.075.07.023.037.048.053.072.08.026.022.043.047.076.072.024.034.051.053.075.077.023.022.041.048.074.07.027.038.051.057.078.082.025.022.041.045.072.065.023.039.049.06.076.084.025.021.039.043.07.064.026.037.052.059.078.084.024.025.041.046.073.066.022.037.048.055.074.082.024.022.041.047.073.07.025.036.052.053.076.079.023.022.041.046.074.069.025.037.051.054.076.08a.806.806 0 00.074.068c.025.039.049.053.078.082.021.023.039.045.07.068.026.035.049.051.074.08.024.023.045.045.077.07.026.035.048.053.072.08.024.022.041.045.077.068.023.038.048.051.072.079.025.024.043.046.078.071.023.035.047.054.07.078s.045.045.078.07c.025.037.049.053.074.079.025.024.043.048.074.069.024.039.047.054.071.08.027.025.048.045.08.072.022.031.045.049.065.067.029.029.045.056.084.079.023.04.048.057.074.079.023.026.041.049.072.069.027.037.053.059.078.084.025.021.041.041.07.066.025.037.051.055.078.081.023.022.041.048.074.067.024.039.049.056.071.08.026.027.045.047.076.07.026.039.052.057.078.084.024.023.045.045.075.067.021.035.047.052.072.076.023.024.041.051.074.073.025.037.051.052.074.08.025.022.045.045.076.07.023.035.049.051.074.079.028.024.045.046.076.067.022.037.049.054.071.078.024.023.043.049.076.072.026.039.049.053.077.082.025.023.044.045.074.069.026.035.049.05.074.073.025.025.039.052.072.072.025.035.051.057.074.08.027.026.043.047.076.07.004.008.012.01.016.02a31.864 31.864 0 003.904-9.043l-.014-.013c-.023-.026-.043-.05-.078-.073-.021-.037-.047-.049-.068-.076-.026-.023-.043-.049-.078-.078-.027-.032-.049-.049-.073-.072-.026-.025-.042-.048-.075-.072-.026-.037-.047-.051-.074-.076-.026-.024-.041-.049-.075-.072-.022-.035-.048-.055-.074-.08-.024-.024-.041-.047-.076-.074-.026-.033-.049-.048-.073-.075-.025-.024-.045-.046-.078-.071-.021-.037-.047-.049-.07-.074s-.043-.049-.08-.073c-.021-.037-.045-.052-.068-.075-.024-.027-.045-.052-.078-.078-.026-.033-.047-.049-.071-.074-.029-.024-.041-.049-.078-.07-.022-.039-.047-.055-.076-.079-.024-.024-.041-.05-.073-.073-.025-.035-.05-.052-.076-.076-.023-.025-.041-.051-.072-.076-.027-.033-.049-.047-.072-.074-.027-.023-.045-.047-.08-.071-.023-.035-.045-.054-.068-.077-.029-.023-.045-.05-.08-.072-.024-.035-.047-.053-.074-.076-.024-.024-.04-.047-.071-.07-.022-.041-.051-.055-.078-.084-.024-.023-.041-.045-.073-.07-.025-.033-.047-.048-.074-.072-.023-.026-.043-.053-.08-.078-.021-.033-.045-.045-.066-.069-.025-.028-.043-.056-.08-.078-.023-.035-.047-.051-.07-.075-.026-.025-.045-.05-.078-.074-.024-.033-.045-.051-.071-.074-.024-.024-.045-.047-.074-.072-.024-.041-.053-.053-.078-.079-.026-.024-.043-.048-.073-.073-.025-.035-.052-.05-.076-.074-.023-.026-.041-.051-.072-.076-.025-.037-.053-.051-.078-.077-.027-.024-.045-.05-.076-.07-.023-.038-.047-.051-.07-.077-.026-.025-.043-.048-.076-.072-.024-.035-.049-.051-.073-.078-.024-.024-.045-.047-.078-.07-.021-.038-.047-.053-.071-.079-.024-.024-.041-.05-.078-.071-.023-.037-.047-.05-.071-.076-.026-.026-.044-.053-.079-.076-.021-.034-.046-.047-.07-.071-.023-.026-.045-.052-.08-.074-.023-.038-.045-.053-.068-.079-.028-.023-.047-.048-.08-.074-.022-.033-.045-.049-.069-.072-.026-.026-.047-.049-.08-.076-.024-.034-.045-.051-.069-.075-.028-.024-.043-.052-.08-.071-.023-.037-.045-.049-.068-.078-.029-.024-.047-.049-.08-.076-.023-.032-.045-.047-.07-.071-.027-.026-.047-.049-.078-.073-.024-.037-.047-.054-.07-.078-.028-.023-.045-.045-.079-.07-.025-.039-.05-.055-.074-.082-.024-.023-.043-.045-.076-.066-.024-.037-.045-.053-.069-.076-.025-.027-.047-.055-.08-.078-.023-.033-.049-.049-.073-.074-.024-.024-.042-.051-.075-.075-.023-.033-.047-.05-.07-.074-.029-.026-.047-.051-.078-.073-.024-.039-.051-.052-.076-.076-.022-.023-.021-.004-.055-.023-.023-.035-.047-.051-.074-.08-.026-.023-.043-.047-.078-.068-.024-.039-.047-.053-.071-.076a.713.713 0 00-.078-.076c-.024-.034-.047-.049-.069-.075-.025-.026-.047-.052-.08-.076-.023-.034-.045-.051-.07-.075-.029-.025-.044-.05-.078-.074-.025-.037-.047-.053-.07-.08-.025-.023-.043-.047-.074-.07-.025-.037-.051-.055-.078-.08-.024-.025-.043-.047-.076-.072-.024-.037-.051-.051-.075-.078-.022-.025-.041-.051-.074-.072-.024-.037-.049-.051-.073-.078-.025-.024-.043-.049-.076-.073-.023-.035-.045-.052-.072-.076s-.044-.049-.076-.073c-.025-.037-.051-.052-.076-.078-.023-.023-.041-.049-.074-.072-.023-.035-.045-.053-.069-.076-.029-.023-.046-.051-.079-.076-.023-.033-.049-.049-.073-.072a.443.443 0 00-.084-.074c-.024-.034-.051-.051-.075-.077-.025-.024-.041-.051-.074-.073-.024-.035-.049-.051-.076-.076-.023-.025-.038-.049-.073-.074-.024-.037-.048-.053-.075-.079-.023-.025-.041-.05-.076-.074-.022-.036-.049-.051-.076-.077a.578.578 0 00-.074-.075c-.022-.034-.047-.049-.071-.074-.026-.026-.044-.052-.078-.077-.021-.034-.047-.049-.071-.075-.024-.025-.043-.051-.076-.077.019.041 0 .024-.028 0z"/></g><path fill="#ffd328" d="M21.928 21.962a12.738 12.738 0 015.203-1.649c-2.801 3.955-3.233 9.332-.654 13.8 2.581 4.47 7.453 6.783 12.279 6.334a12.72 12.72 0 01-4.031 3.687c-6.121 3.533-13.953 1.437-17.483-4.684-3.534-6.121-1.434-13.952 4.686-17.488zm23.831 7.501c-.263-.867-.7-.867-.967 0-.271.869-1.196 1.798-2.063 2.063-.871.267-.871.708 0 .975.867.267 1.791 1.194 2.063 2.065.267.867.704.867.967 0 .271-.871 1.199-1.799 2.063-2.065.869-.267.869-.708 0-.975-.864-.265-1.793-1.193-2.063-2.063zm-4.268-10.664c-.263-.867-.699-.867-.966 0-.271.869-1.196 1.798-2.063 2.063-.871.267-.871.708 0 .975.866.267 1.791 1.195 2.063 2.063.267.866.703.866.966 0 .271-.869 1.2-1.799 2.063-2.063.869-.267.869-.708 0-.975-.863-.267-1.79-1.195-2.063-2.063zm-6.399 8.531c-.263-.867-.699-.867-.967 0-.271.869-1.197 1.798-2.063 2.065-.87.267-.87.706 0 .975.866.265 1.793 1.195 2.063 2.064.268.866.704.866.967 0 .271-.869 1.2-1.799 2.063-2.064.871-.269.871-.708 0-.975-.863-.267-1.794-1.196-2.063-2.065z"/></svg>