<svg xmlns="http://www.w3.org/2000/svg" width="64" height="64"><circle fill="#c4e2fa" cx="32" cy="32" r="32"/><path fill="#b8dcf8" d="M32 64c17.673 0 32-14.327 32-32S49.673 0 32 0v64z"/><defs><filter id="a" filterUnits="userSpaceOnUse" x="9.609" y="12.8" width="54.292" height="50.974"><feColorMatrix values="1 0 0 0 0 0 1 0 0 0 0 0 1 0 0 0 0 0 1 0"/></filter></defs><mask maskUnits="userSpaceOnUse" x="9.609" y="12.8" width="54.292" height="50.974" id="c"><g filter="url(#a)"><radialGradient id="b" cx="402.771" cy="-781.599" r="37.333" gradientTransform="matrix(1 0 0 -1 -373.97 -752.799)" gradientUnits="userSpaceOnUse"><stop offset="0" stop-color="#fff"/><stop offset=".113" stop-color="#e8e8e8"/><stop offset=".349" stop-color="#adadad"/><stop offset=".687" stop-color="#4e4e4e"/><stop offset=".952"/></radialGradient><circle fill="url(#b)" cx="28.8" cy="28.8" r="37.333"/></g></mask><g opacity=".2" mask="url(#c)"><path d="M63.9 33.979c-.01-.006-.018-.015-.025-.022a3.564 3.564 0 00-.15-.151c-.05-.055-.102-.104-.152-.154-.051-.051-.1-.101-.15-.147l-.148-.151-.146-.146c-.046-.053-.1-.104-.15-.152-.047-.051-.1-.101-.148-.15l-.148-.149a7.096 7.096 0 01-.15-.153c-.047-.052-.102-.101-.15-.149-.048-.051-.1-.102-.15-.152-.045-.053-.1-.102-.148-.152-.046-.049-.102-.098-.146-.147-.05-.051-.1-.1-.148-.151l-.154-.154-.146-.146a21.999 21.999 0 01-.153-.154c-.046-.049-.099-.096-.142-.145-.051-.051-.104-.102-.15-.151-.051-.054-.104-.105-.154-.156l-.15-.149c-.049-.049-.1-.098-.148-.148-.046-.051-.1-.1-.146-.151-.049-.051-.104-.102-.152-.153-.046-.05-.098-.099-.146-.15-.049-.051-.101-.098-.146-.149a3.882 3.882 0 00-.158-.156l-.149-.149c-.043-.051-.097-.1-.149-.149-.044-.051-.097-.101-.144-.15-.049-.051-.104-.102-.152-.153-.047-.049-.1-.098-.146-.15l-.152-.151c-.047-.051-.103-.102-.151-.153-.048-.052-.101-.101-.149-.152-.049-.049-.101-.098-.147-.147-.048-.051-.101-.102-.147-.151-.051-.052-.103-.101-.149-.152l-.154-.153a5.06 5.06 0 00-.146-.148l-.15-.151c-.048-.051-.1-.102-.146-.152-.049-.051-.102-.1-.152-.151-.047-.051-.1-.1-.15-.149-.046-.052-.1-.1-.146-.152-.049-.051-.104-.102-.151-.151-.048-.051-.103-.1-.147-.149-.047-.05-.101-.101-.147-.15l-.158-.157c-.044-.049-.096-.097-.14-.144-.051-.053-.104-.104-.158-.157-.046-.049-.096-.096-.146-.145a5.6 5.6 0 00-.153-.156c-.044-.049-.097-.096-.142-.145-.049-.051-.101-.1-.148-.152-.053-.053-.107-.104-.156-.157-.045-.049-.098-.096-.146-.146-.049-.054-.104-.104-.153-.156-.046-.047-.097-.096-.142-.143a3.94 3.94 0 01-.158-.159l-.145-.146c-.048-.051-.101-.1-.152-.151-.049-.051-.102-.101-.148-.152l-.15-.151c-.045-.051-.1-.1-.149-.15-.046-.049-.101-.1-.146-.149-.049-.051-.104-.102-.152-.153-.049-.05-.103-.101-.149-.15-.048-.051-.101-.102-.151-.153-.061-.055-.11-.104-.16-.153l-.154-.154a5.077 5.077 0 00-.146-.149c-.048-.051-.1-.101-.148-.152-.049-.051-.102-.102-.152-.151a10.26 10.26 0 00-.145-.15c-.051-.051-.106-.102-.154-.153-.046-.049-.1-.1-.146-.149-.049-.052-.104-.104-.153-.153-.046-.051-.101-.1-.15-.151a4.126 4.126 0 00-.147-.149c-.047-.052-.101-.103-.149-.154a9.559 9.559 0 00-6.858-2.893c-.594 0-1.17.087-1.734.201-.004-.005-.014-.009-.018-.016-.043-.047-.096-.089-.138-.136-.046-.055-.108-.106-.159-.163-.046-.05-.098-.093-.146-.144-.046-.053-.103-.1-.15-.151-.046-.054-.1-.1-.149-.154-.045-.053-.104-.1-.153-.153-.044-.051-.101-.096-.146-.147-.043-.054-.101-.101-.147-.152-.048-.051-.104-.098-.154-.151-.044-.051-.1-.099-.144-.15-.051-.053-.104-.1-.154-.153-.046-.051-.1-.096-.146-.145-.051-.056-.107-.105-.153-.16-.046-.049-.097-.092-.142-.139-.051-.055-.108-.106-.162-.165-.043-.049-.096-.092-.139-.139-2.271-2.352-5.343-3.824-8.768-3.824-5.391 0-9.924 3.644-11.298 8.597-.812-.255-1.656-.43-2.552-.43a8.534 8.534 0 00-8.533 8.533c0 2.394.993 4.55 2.579 6.1.051.051.103.104.156.152.049.048.098.104.149.148.051.045.098.1.149.146.05.052.101.104.152.154.049.048.098.1.146.146.052.055.102.104.157.154.047.048.096.1.145.146l.155.153c.05.046.097.099.148.142.051.056.102.108.153.154.049.053.098.102.15.15.049.05.098.1.151.148.049.051.1.104.151.15.049.049.097.1.148.146.051.049.102.107.155.156.047.047.096.098.145.143.052.052.103.105.156.154.049.051.096.102.146.146.051.055.104.104.156.154.049.048.1.1.151.146.047.049.096.104.145.146.05.048.101.103.152.152.049.049.098.1.146.146.051.051.103.104.156.155.049.049.096.1.147.146l.155.158c.05.046.101.101.152.146.049.047.096.098.146.146.049.051.1.104.154.15.047.049.096.1.147.146a5.7 5.7 0 00.155.156c.05.051.099.099.148.146.055.071.106.125.157.174.049.049.099.101.15.146.049.051.1.104.151.15.049.049.1.104.152.149.049.05.096.101.147.146.049.051.1.104.151.15.051.055.103.105.154.153.049.053.1.104.151.151.047.045.096.097.145.141.052.055.105.107.158.158.049.05.1.101.151.15.049.045.096.096.148.141.051.055.102.109.153.154.049.053.098.101.149.147.05.052.099.106.15.149.051.049.1.104.153.151.049.052.101.101.152.15.049.05.1.1.151.149.049.051.096.101.147.146.05.048.101.1.152.154.051.047.1.1.153.146.049.053.098.104.15.148l.147.148c.049.051.096.102.147.146.053.054.107.107.163.158.047.049.096.1.147.146.049.054.098.101.15.147.053.059.101.113.153.154.049.051.098.104.147.15.051.05.103.104.156.154.049.05.096.1.147.146.051.054.102.104.156.154.049.048.096.1.146.144.051.053.102.106.153.154.049.052.099.1.15.146.049.051.098.102.149.15.051.051.1.104.154.15l.129.133-1.478 5.518c-.12.44.061.883.407 1.133.049.055.094.112.154.154.049.051.09.104.149.146.047.052.09.107.15.148.049.053.094.108.155.152.047.048.09.104.145.145.049.055.094.114.154.153.049.05.094.108.153.149.047.051.09.109.15.15.047.051.09.107.149.145.049.053.092.113.151.152.047.053.089.11.15.147.049.054.092.11.151.149.047.055.092.108.151.149.048.056.092.112.152.149.049.055.092.109.151.15.049.053.092.107.15.147.049.052.091.11.153.153.047.049.09.104.147.145.05.055.093.111.152.152.049.052.092.109.151.15.049.051.092.108.152.15.047.05.09.107.149.146.047.053.092.112.151.151.05.052.091.11.152.147.047.055.092.11.149.154.049.051.092.104.152.145.047.055.091.113.151.15.047.051.089.107.149.149.047.052.092.108.152.147.049.053.091.109.151.151.047.05.089.106.15.146.049.056.092.113.151.154.049.051.092.108.151.15.047.05.091.107.15.146.047.053.089.111.149.149.047.05.092.112.151.151.048.053.093.109.152.147.049.056.092.108.153.154.047.05.09.104.148.146.049.055.092.11.151.15.049.052.091.107.149.148.05.054.093.108.152.148.049.053.092.109.153.152.047.05.089.105.148.146.049.053.091.111.153.151.047.052.092.108.149.147.05.055.095.111.156.153.047.05.09.108.145.146.049.052.094.113.154.15.047.055.089.11.149.15.049.052.094.107.156.15.047.053.089.106.147.148.049.05.091.107.149.148.049.052.091.108.152.148.049.053.094.114.153.154.047.048.091.105.149.146.047.049.089.104.148.146.049.054.094.111.153.152.049.051.092.106.152.15.049.049.091.107.151.146.047.055.09.113.149.152.047.047.092.105.15.147.049.052.092.11.151.149.049.055.091.107.154.151.047.052.09.106.147.147.047.051.092.107.151.149.049.05.091.108.152.147.049.053.092.115.151.152.049.049.091.107.152.149.047.05.09.104.149.146.049.055.094.112.155.154.047.051.09.105.146.146.049.053.094.111.154.152.045.043.086.102.137.135 2.34-.059 4.606-.396 6.795-.93l.017.018c.346-.088.683-.202 1.028-.301.479-.133.961-.256 1.43-.412.046-.012.088-.033.131-.043a32.579 32.579 0 004.009-1.681c.206-.103.41-.19.614-.302a27.6 27.6 0 001.634-.934c.222-.133.45-.266.669-.404a35.144 35.144 0 001.547-1.051c.205-.146.4-.299.607-.453a29.063 29.063 0 001.484-1.191c.162-.143.32-.292.487-.434.362-.325.746-.633 1.093-.975-.01-.01-.021-.018-.029-.027 5.481-5.151 9.05-12.472 9.554-20.643z"/></g><path fill="#FFF" d="M44.792 18.833c-.825 0-1.612.136-2.375.33-1.95-3.775-5.884-6.363-10.425-6.363-5.391 0-9.924 3.644-11.298 8.597-.812-.255-1.656-.43-2.552-.43a8.534 8.534 0 000 17.066H44.79c5.302 0 9.601-4.301 9.601-9.6 0-5.301-4.295-9.6-9.599-9.6z"/><path fill="#CCF1FE" d="M31.925 52.217a1.063 1.063 0 01-1.305.756 1.068 1.068 0 01-.755-1.306l2.208-8.242a1.067 1.067 0 012.062.55l-2.21 8.242zm10.819-8.246a1.066 1.066 0 00-2.061-.55l-2.207 8.241a1.067 1.067 0 102.061.555l2.207-8.246zm-17.219 0a1.065 1.065 0 00-.755-1.304 1.07 1.07 0 00-1.306.754l-2.208 8.241c-.153.57.183 1.154.755 1.309a1.07 1.07 0 001.307-.754l2.207-8.246z"/></svg>