<svg xmlns="http://www.w3.org/2000/svg" width="64" height="64"><circle fill="#34495E" cx="32" cy="32" r="32"/><path fill="#2C3E50" d="M32 64c17.673 0 32-14.327 32-32S49.673 0 32 0v64z"/><defs><filter id="a" filterUnits="userSpaceOnUse" x="9.609" y="12.8" width="54.292" height="51.063"><feColorMatrix values="1 0 0 0 0 0 1 0 0 0 0 0 1 0 0 0 0 0 1 0"/></filter></defs><mask maskUnits="userSpaceOnUse" x="9.609" y="12.8" width="54.292" height="51.063" id="c"><g filter="url(#a)"><radialGradient id="b" cx="70.78" cy="590.999" r="37.333" gradientTransform="translate(-41.98 -562.2)" gradientUnits="userSpaceOnUse"><stop offset="0" stop-color="#fff"/><stop offset=".113" stop-color="#e8e8e8"/><stop offset=".349" stop-color="#adadad"/><stop offset=".687" stop-color="#4e4e4e"/><stop offset=".952"/></radialGradient><circle fill="url(#b)" cx="28.8" cy="28.8" r="37.333"/></g></mask><g opacity=".4" mask="url(#c)"><path d="M63.9 33.979c-.01-.006-.018-.015-.025-.022a3.564 3.564 0 00-.15-.151c-.05-.055-.102-.104-.152-.154a5.241 5.241 0 00-.15-.149c-.048-.05-.1-.101-.15-.151-.045-.049-.1-.101-.146-.147-.048-.054-.102-.104-.152-.152-.048-.052-.1-.101-.148-.151a6.882 6.882 0 01-.148-.148c-.052-.051-.102-.104-.152-.154-.047-.051-.1-.101-.148-.149l-.152-.152c-.048-.053-.1-.102-.152-.152-.045-.049-.098-.098-.146-.147l-.149-.152-.154-.153c-.051-.049-.098-.098-.146-.147l-.156-.154c-.047-.049-.098-.096-.144-.145l-.149-.152c-.051-.053-.104-.104-.154-.155-.051-.049-.1-.1-.15-.149-.049-.05-.1-.098-.148-.148l-.149-.151a21.642 21.642 0 01-.151-.153l-.148-.15c-.048-.051-.098-.098-.146-.149a5.81 5.81 0 00-.158-.156 5.233 5.233 0 00-.149-.149c-.046-.051-.099-.1-.149-.15-.045-.051-.096-.1-.146-.149-.05-.051-.104-.102-.153-.153-.046-.049-.099-.098-.146-.15l-.151-.151c-.05-.051-.104-.102-.152-.153-.049-.052-.101-.101-.149-.152-.05-.049-.101-.098-.149-.147-.048-.051-.101-.103-.149-.152-.05-.051-.101-.1-.15-.151-.05-.051-.103-.102-.153-.154-.045-.049-.097-.098-.146-.146l-.149-.151c-.051-.051-.103-.102-.149-.152l-.152-.151c-.048-.051-.103-.1-.149-.149-.047-.052-.101-.101-.147-.152-.052-.051-.104-.102-.151-.151-.049-.051-.103-.101-.149-.15l-.148-.149-.157-.158c-.047-.049-.097-.096-.143-.143-.05-.053-.104-.104-.158-.157-.046-.049-.096-.096-.146-.146-.05-.051-.101-.104-.154-.155-.046-.049-.096-.096-.142-.145-.051-.052-.104-.1-.15-.152-.052-.053-.107-.104-.158-.157-.046-.049-.096-.096-.146-.145-.05-.054-.103-.105-.154-.156l-.144-.143c-.053-.053-.106-.105-.156-.158a4.033 4.033 0 01-.146-.147l-.15-.152c-.051-.051-.104-.1-.15-.151a10.926 10.926 0 01-.152-.151c-.047-.052-.1-.101-.148-.15-.048-.049-.102-.1-.148-.149-.048-.051-.102-.102-.152-.153-.047-.05-.1-.101-.148-.15l-.152-.153-.146-.148-.154-.153a5.077 5.077 0 00-.146-.149c-.05-.052-.101-.101-.151-.152-.048-.051-.102-.102-.152-.151-.047-.051-.096-.1-.146-.15a1.904 1.904 0 01-.174-.161c-.046-.049-.099-.1-.146-.149-.051-.052-.104-.103-.154-.152-.047-.051-.101-.1-.149-.151l-.149-.15c-.049-.051-.101-.102-.149-.153a9.566 9.566 0 00-6.858-2.893c-.596 0-1.171.087-1.732.2-.006-.004-.014-.008-.018-.015-.046-.047-.096-.09-.14-.137-.048-.055-.108-.106-.16-.162-.044-.051-.096-.094-.146-.145-.047-.053-.102-.1-.148-.151-.048-.054-.104-.101-.152-.154-.048-.053-.104-.1-.154-.153-.045-.051-.1-.096-.146-.147-.046-.053-.103-.1-.149-.151-.049-.051-.104-.098-.154-.151-.045-.051-.1-.099-.146-.15-.05-.053-.104-.1-.154-.153-.045-.051-.1-.096-.146-.146-.05-.055-.108-.104-.155-.159-.045-.049-.099-.092-.143-.139-.052-.056-.107-.107-.16-.165-.046-.049-.097-.092-.142-.139-2.21-2.348-5.281-3.82-8.706-3.82-5.391 0-9.924 3.644-11.298 8.597-.812-.255-1.656-.43-2.552-.43a8.534 8.534 0 00-8.533 8.533c0 2.394.993 4.55 2.579 6.1.051.053.103.104.156.154.049.051.098.102.149.148.051.048.098.1.149.146.05.053.101.104.152.154.049.048.098.1.146.146.051.055.102.104.156.153.047.05.096.101.145.146.051.053.104.104.155.156.05.049.097.098.148.145.051.054.102.105.153.154.049.051.098.1.15.148.049.051.098.102.151.15.049.05.1.102.151.148.049.051.097.102.148.148.051.052.102.105.155.156.047.049.096.098.145.146.052.05.103.104.156.153.049.051.096.102.146.146.051.055.104.104.156.154.049.051.1.104.151.15.047.049.096.1.145.146l.152.153c.049.051.098.099.146.146.051.053.103.104.156.156.049.049.096.1.147.145.051.055.102.105.155.158.05.049.101.1.152.146.049.049.096.1.146.146.049.053.1.104.154.151.047.051.096.101.147.147.051.053.102.106.155.156.05.051.099.098.148.146.055.074.106.125.157.175.049.051.099.101.15.149.049.051.1.101.151.15.049.051.1.102.152.148.049.051.096.102.147.146.049.053.1.104.151.152.051.053.103.104.154.152.049.053.1.104.151.153.047.046.096.097.145.142.052.055.105.106.158.158.049.051.1.1.151.15.049.048.096.096.148.145.051.051.102.105.153.153.049.052.098.101.149.147.05.052.099.104.15.15.051.049.1.104.153.153.049.05.101.101.152.149.049.049.1.101.151.149.049.05.096.101.147.146.05.051.101.104.152.154.051.051.1.104.153.15.049.052.098.104.15.148.049.051.098.102.147.15.049.051.096.098.147.146.053.055.107.107.163.16.047.047.096.099.147.146.049.052.098.101.15.147.049.053.098.104.149.149.049.05.098.101.147.147.051.053.103.105.156.156.049.049.096.1.147.146a3.8 3.8 0 00.156.155c.049.049.096.099.146.145.051.053.102.105.153.154.049.052.099.1.15.148.049.051.098.102.149.15.051.05.1.102.154.148.042.047.084.088.129.133l-1.472 5.529c-.12.44.061.883.407 1.135.049.055.094.111.154.154.049.051.09.104.149.146.047.054.09.108.15.149.049.055.094.109.155.153.047.05.09.104.145.146.049.055.094.113.154.151.049.054.094.11.153.152.047.052.09.108.15.149.047.053.09.108.149.147.049.052.092.11.151.151.047.055.089.109.15.149.049.054.092.108.151.15.047.055.092.108.151.149.048.055.092.11.152.149.049.056.092.108.151.151.049.053.092.106.15.147.049.056.091.111.153.154.047.051.09.104.147.146.05.055.093.112.152.151.049.054.092.11.151.151.049.053.092.109.152.15.047.053.09.108.149.146.047.054.092.111.151.152.05.053.091.11.152.15a.961.961 0 00.149.15c.049.054.092.106.152.148.047.055.091.11.151.148.047.054.089.109.149.15.047.055.092.108.152.15.049.055.091.109.151.152.047.052.089.104.15.146.049.055.092.112.151.154.049.05.092.105.151.148.047.051.091.108.15.148.047.052.089.109.149.148.047.054.092.11.151.152.048.053.093.107.152.15.049.054.092.107.153.15.047.053.09.106.148.148.049.055.092.109.151.148.049.056.091.108.149.15.05.055.091.107.152.15.049.054.092.109.153.152.047.051.089.104.148.146.049.054.091.111.153.152.047.052.092.106.149.146.05.055.095.111.156.154.047.052.09.107.145.146.049.053.094.11.154.152.047.052.089.107.149.15.049.052.094.107.156.15.047.053.089.105.147.148.049.05.091.107.149.148.049.053.091.108.152.15.049.055.094.111.153.154.047.05.091.105.149.149.047.048.089.104.148.146.049.055.094.113.153.154.049.051.092.106.152.149.049.051.091.108.151.147.047.053.09.11.149.152.047.051.092.105.15.148.049.053.092.109.151.15.049.055.091.108.154.151.047.054.09.106.147.147.047.053.092.108.151.15.049.053.091.107.152.148.049.056.092.113.151.154.049.051.091.106.152.15.047.05.09.104.149.146.049.054.094.111.155.153.047.05.09.106.146.146.049.056.094.113.155.154.045.047.086.101.138.139a32.118 32.118 0 006.793-.93.315.315 0 00.018.017c.346-.087.684-.202 1.029-.3.479-.133.959-.256 1.429-.412.046-.014.088-.033.129-.047a31.865 31.865 0 004.009-1.68c.204-.102.412-.191.614-.3.56-.291 1.099-.61 1.634-.935.223-.133.447-.264.669-.402a32.704 32.704 0 001.546-1.055c.204-.146.403-.297.607-.45a32.563 32.563 0 001.488-1.19c.162-.143.319-.293.484-.435.364-.324.743-.634 1.09-.976-.009-.008-.02-.017-.027-.026 5.486-5.236 9.055-12.557 9.559-20.728z"/></g><path fill="#FFF" d="M44.792 18.833c-.825 0-1.612.136-2.375.33-1.95-3.775-5.884-6.363-10.425-6.363-5.391 0-9.924 3.644-11.298 8.597-.812-.255-1.656-.43-2.552-.43a8.534 8.534 0 000 17.066H44.79c5.302 0 9.601-4.301 9.601-9.6 0-5.301-4.295-9.6-9.599-9.6z"/><path fill="#CCF1FE" d="M31.925 52.217c-.151.57-.737.908-1.305.756a1.068 1.068 0 01-.755-1.306l2.208-8.242a1.068 1.068 0 012.062.55l-2.21 8.242zm10.819-8.246a1.066 1.066 0 00-2.061-.55l-2.209 8.241c-.154.57.184 1.154.754 1.309a1.07 1.07 0 001.307-.754l2.209-8.246zm-17.219 0a1.065 1.065 0 00-.755-1.304 1.07 1.07 0 00-1.306.754l-2.208 8.241c-.153.57.183 1.154.755 1.309a1.07 1.07 0 001.307-.754l2.207-8.246z"/></svg>