<svg xmlns="http://www.w3.org/2000/svg" width="64" height="64"><circle fill="#c4e2fa" cx="32" cy="32" r="32"/><path fill="#b8dcf8" d="M32 64c17.673 0 32-14.327 32-32S49.673 0 32 0v64z"/><defs><filter id="a" filterUnits="userSpaceOnUse" x="9.602" y="12.8" width="54.298" height="50.683"><feColorMatrix values="1 0 0 0 0 0 1 0 0 0 0 0 1 0 0 0 0 0 1 0"/></filter></defs><mask maskUnits="userSpaceOnUse" x="9.602" y="12.8" width="54.298" height="50.683" id="c"><g filter="url(#a)"><radialGradient id="b" cx="734.761" cy="1153.198" r="37.333" gradientTransform="translate(-705.96 -1124.398)" gradientUnits="userSpaceOnUse"><stop offset="0" stop-color="#fff"/><stop offset=".113" stop-color="#e8e8e8"/><stop offset=".349" stop-color="#adadad"/><stop offset=".687" stop-color="#4e4e4e"/><stop offset=".952"/></radialGradient><circle fill="url(#b)" cx="28.8" cy="28.8" r="37.333"/></g></mask><g opacity=".2" mask="url(#c)"><path fill="#1A171B" d="M63.9 33.986l-.039-.034c-.047-.052-.1-.103-.148-.152l-.156-.157c-.048-.045-.099-.097-.147-.143a10.367 10.367 0 00-.149-.152c-.044-.048-.101-.1-.145-.144-.043-.05-.098-.101-.145-.151-.05-.054-.109-.107-.158-.158-.047-.049-.1-.099-.146-.146-.049-.049-.1-.098-.148-.148-.047-.051-.1-.102-.149-.151-.043-.049-.101-.098-.144-.146a3.825 3.825 0 00-.156-.156c-.045-.051-.098-.1-.146-.149a3.408 3.408 0 00-.146-.149l-.153-.152c-.046-.051-.099-.1-.149-.149-.045-.049-.097-.098-.141-.147-.048-.054-.109-.105-.156-.158-.046-.049-.1-.098-.146-.147-.047-.051-.1-.101-.149-.152-.046-.051-.101-.1-.147-.149-.047-.051-.103-.1-.151-.152-.046-.051-.101-.1-.147-.149-.043-.051-.103-.1-.147-.151-.046-.05-.099-.098-.146-.15-.051-.051-.104-.102-.15-.153l-.154-.154-.143-.143c-.045-.051-.1-.102-.15-.153-.044-.051-.104-.101-.148-.152s-.1-.102-.149-.151c-.045-.051-.104-.1-.149-.152-.048-.049-.101-.096-.146-.146-.052-.051-.104-.102-.154-.155-.044-.049-.096-.098-.146-.148-.047-.051-.102-.102-.15-.151-.046-.051-.104-.1-.15-.151-.043-.052-.096-.101-.146-.15-.046-.051-.101-.1-.146-.149-.051-.051-.104-.102-.154-.154-.047-.051-.1-.1-.149-.151-.046-.051-.101-.1-.146-.151-.047-.049-.104-.099-.146-.148-.05-.051-.104-.102-.148-.151-.051-.051-.104-.102-.15-.152a10.752 10.752 0 00-.154-.151c-.044-.049-.096-.098-.146-.147-.045-.051-.1-.1-.147-.152-.048-.053-.104-.104-.151-.155-.045-.049-.096-.096-.142-.145l-.153-.154c-.047-.051-.102-.1-.146-.151-.048-.051-.1-.101-.148-.15-.049-.053-.104-.104-.156-.157l-.141-.143c-.046-.052-.1-.103-.15-.152-.049-.051-.104-.102-.148-.153-.046-.049-.102-.098-.146-.148-.049-.053-.104-.104-.157-.155-.044-.049-.097-.098-.14-.145-.053-.054-.105-.103-.151-.154a4.201 4.201 0 01-.15-.147c-.046-.051-.1-.1-.146-.151-.051-.052-.102-.104-.154-.154-.046-.049-.096-.098-.146-.147-.047-.053-.1-.105-.146-.154-.048-.049-.104-.098-.146-.146l-.155-.156c-.046-.049-.097-.098-.142-.147a2.64 2.64 0 01-.15-.149c-.051-.054-.104-.105-.154-.159-.044-.049-.096-.096-.141-.143-.051-.053-.109-.104-.157-.155-.048-.052-.097-.101-.144-.15-.047-.051-.102-.1-.148-.149a2.688 2.688 0 01-.15-.154 2.52 2.52 0 01-.146-.147c-.049-.051-.104-.102-.158-.154-.044-.048-.096-.098-.141-.145-.047-.053-.104-.104-.15-.155-.049-.049-.104-.098-.15-.148a9.548 9.548 0 00-6.857-2.895c-.592 0-1.172.087-1.733.201 0-.002-.004-.006-.008-.008-.058-.058-.118-.105-.166-.158-.046-.051-.101-.096-.146-.147-.043-.055-.104-.102-.151-.158-.045-.05-.099-.092-.142-.141-.051-.053-.105-.102-.153-.155a.878.878 0 01-.212-.158c-.043-.049-.096-.094-.143-.143-.045-.055-.104-.104-.152-.16-.043-.049-.098-.094-.146-.145-.044-.053-.104-.102-.152-.155-.045-.052-.1-.099-.146-.15-.044-.051-.104-.098-.15-.149-.043-.053-.1-.101-.146-.152-.045-.054-.102-.099-.146-.149-.046-.055-.107-.104-.156-.159-.043-.049-.099-.094-.14-.143-2.278-2.361-5.351-3.833-8.776-3.833-5.392 0-9.925 3.644-11.297 8.597-.811-.255-1.657-.43-2.551-.43A8.534 8.534 0 009.62 29.5c0 2.396.994 4.553 2.583 6.1.049.049.098.102.15.146.051.05.1.107.153.15.047.045.096.1.145.141.051.055.103.107.158.158.047.051.098.101.147.148.049.047.098.1.149.146.05.049.101.104.152.154.051.045.102.101.153.146.049.046.101.103.152.146.047.051.094.101.143.146l.158.156c.049.048.098.103.149.148.049.047.098.1.149.148.051.046.104.102.154.148.047.043.096.098.145.144.051.05.102.104.153.149.052.053.101.104.152.154l.145.143.156.158c.047.043.096.096.145.141.051.047.102.107.153.15.049.051.101.103.15.146.051.054.1.104.153.153.049.051.1.101.152.146.047.048.096.1.145.146.051.049.104.107.157.16.047.043.097.096.146.139.051.047.102.105.153.15.049.051.1.104.151.15.05.05.099.1.15.146.049.053.098.104.149.149.049.05.1.104.152.151.051.048.106.127.157.176.047.043.096.096.147.145.052.045.099.1.15.146.051.05.102.108.155.153.047.047.096.097.148.146.051.051.1.104.153.15.049.045.098.1.149.146.05.049.101.105.154.152l.145.143c.051.049.105.107.158.157.049.046.1.101.151.146a2.5 2.5 0 00.145.146c.052.048.103.104.156.152l.143.144c.051.05.104.106.158.154.049.05.096.101.147.146.049.051.1.104.151.15.05.05.101.1.152.148.049.049.098.102.149.148.049.048.1.102.154.154.049.043.098.096.146.144.051.05.102.104.155.154.05.046.097.096.148.142l.147.149c.051.048.104.104.158.153.049.047.1.102.151.148.047.049.094.096.143.141.051.049.1.104.154.152.049.047.098.104.149.15.051.05.102.104.156.15.047.043.094.096.141.139.053.055.106.111.159.162.047.045.094.097.144.141l.158.158c.052.051.1.105.152.15.05.047.097.098.148.143.051.053.102.107.155.158.047.043.096.097.146.141.051.053.104.104.157.156.047.05.094.098.143.142.051.05.105.108.158.153.049.051.098.102.149.15.049.049.1.1.152.146.051.048.1.104.153.151.049.049.098.102.147.145.049.051.099.104.15.15.051.05.1.104.151.149.049.046.098.104.15.149.051.05.104.104.158.154.047.043.096.096.145.144.049.044.101.103.152.149l.146.145c.051.05.102.104.156.156.049.048.098.098.147.144.049.05.098.101.147.146.051.053.105.107.158.156.047.043.094.099.143.139.051.056.104.111.158.16l.145.144c.049.048.1.103.153.151.049.045.098.101.15.146.049.049.098.104.149.146.051.049.102.107.155.154.05.049.099.102.148.145.049.053.1.104.151.154.049.045.096.096.147.142.054.051.105.11.161.157a2.5 2.5 0 00.145.146c.049.049.099.1.15.147.049.044.1.101.151.144.049.053.1.104.152.154.049.046.098.102.147.143.051.055.102.105.155.158.049.045.096.096.148.143.051.052.102.107.155.156.047.043.094.096.143.139.052.053.105.111.158.158.049.047.1.101.151.147a2.4 2.4 0 00.146.14c.053.053.104.108.16.162.047.045.094.098.143.141.052.047.103.104.156.152.049.049.098.102.147.145.008.01.016.021.024.029l-.586 2.306.255-.259-.104.408.256-.263-.105.41.256-.259-.104.564.256-.259-.105.41.256-.261-.104.41.255-.263-.104.415.256-.263-.105.409.254-.26-.104.41.256-.263-.105.414.258-.263-.104.412.255-.263-.104.408.256-.261-.105.406.256-.263-.104.412.256-.263-.105.412.254-.26-.104.409.255-.262-.104.412.256-.259-.105.404.256-.263-.104.412.256-.259-.105.404.238-.241-.104.408.255-.263-.104.412.254-.258-.105.407.257-.263-.104.41.256-.26-.104.408.257-.26-.104.404.256-.262-.104.416.254-.264-.104.409.26-.263-.111.419.256-.262-.104.407.256-.261-.104.439.256-.261-.104.41.256-.261-.108.41.257-.262-.104.407.253-.261-.107.41.258-.262-.104.407.253-.259-.104.408.252-.258-.104.408.259-.264-.104.412.248-.258-.104.404.258-.264-.109.415.254-.261-.104.404.262-.185-.105.415.254-.262-.105.408.254-.258-.119.435.258-.264-.109.412.254-.26-.105.406.258-.264-.107.412.254-.263-.104.413.252-.264-.106.408.259-.261-.104.415.254-.264-.108.41.259-.262-.107.41.254-.261-.107.405.258-.262-.107.412.254-.259-.092.358c.017-.004.033-.008.046-.008l.196-.201-.047.176C51.896 61.009 62.979 48.889 63.9 33.986z"/></g><path fill="#6C7A89" d="M44.783 18.833c-.825 0-1.612.136-2.375.33-1.95-3.775-5.883-6.363-10.425-6.363-5.392 0-9.925 3.644-11.297 8.597-.811-.255-1.657-.43-2.551-.43a8.534 8.534 0 000 17.066h26.65c5.303 0 9.602-4.301 9.602-9.6 0-5.301-4.299-9.6-9.604-9.6z"/><path fill="#F5AB35" d="M37.167 46.908h-3.763l1.629-6.394-8.2 8.375h3.763l-1.627 6.394z"/></svg>