<svg xmlns="http://www.w3.org/2000/svg" width="64" height="64"><circle fill="#34495E" cx="32" cy="32" r="32"/><path fill="#2C3E50" d="M32 64c17.673 0 32-14.327 32-32S49.673 0 32 0v64z"/><defs><filter id="a" filterUnits="userSpaceOnUse" x="9.61" y="12.8" width="54.291" height="50.907"><feColorMatrix values="1 0 0 0 0 0 1 0 0 0 0 0 1 0 0 0 0 0 1 0"/></filter></defs><mask maskUnits="userSpaceOnUse" x="9.61" y="12.8" width="54.291" height="50.907" id="c"><g filter="url(#a)"><radialGradient id="b" cx="70.78" cy="590.999" r="37.333" gradientTransform="translate(-41.98 -562.2)" gradientUnits="userSpaceOnUse"><stop offset="0" stop-color="#fff"/><stop offset=".113" stop-color="#e8e8e8"/><stop offset=".349" stop-color="#adadad"/><stop offset=".687" stop-color="#4e4e4e"/><stop offset=".952"/></radialGradient><circle fill="url(#b)" cx="28.8" cy="28.8" r="37.333"/></g></mask><g opacity=".4" mask="url(#c)"><path fill="#1A171B" d="M63.9 33.979c-.006-.004-.008-.008-.012-.013-.052-.055-.105-.106-.158-.157-.047-.051-.101-.102-.147-.15-.05-.049-.101-.096-.149-.146a5.277 5.277 0 00-.149-.15 4.394 4.394 0 00-.152-.153c-.048-.05-.103-.101-.151-.151-.047-.047-.096-.097-.145-.144-.048-.052-.1-.101-.148-.151l-.156-.154-.15-.154c-.05-.049-.1-.099-.146-.147-.053-.053-.104-.102-.156-.156a4.02 4.02 0 00-.146-.146c-.05-.051-.1-.1-.148-.151l-.15-.15c-.048-.051-.098-.1-.148-.149-.049-.053-.102-.104-.152-.156-.048-.051-.1-.1-.152-.151l-.148-.149c-.049-.051-.102-.101-.148-.152l-.154-.153-.146-.148c-.048-.051-.102-.1-.148-.151-.047-.051-.102-.102-.15-.153-.051-.052-.102-.101-.15-.152-.05-.051-.1-.102-.154-.151-.045-.049-.096-.098-.144-.147-.052-.054-.104-.105-.155-.159-.051-.051-.104-.1-.15-.149-.049-.049-.096-.099-.146-.146l-.15-.151c-.049-.053-.104-.104-.152-.156-.051-.049-.102-.096-.146-.145-.05-.053-.104-.104-.158-.155a2.513 2.513 0 00-.146-.146c-.048-.053-.101-.104-.151-.155a7.191 7.191 0 01-.152-.149c-.047-.052-.098-.101-.146-.15l-.154-.153c-.047-.049-.1-.099-.146-.15a4.371 4.371 0 01-.152-.153c-.049-.049-.101-.096-.149-.145-.046-.051-.097-.101-.147-.152-.048-.053-.103-.104-.154-.155-.051-.052-.103-.1-.151-.152l-.146-.145-.15-.151c-.051-.052-.102-.104-.154-.154-.048-.051-.1-.1-.148-.151-.049-.049-.102-.099-.146-.147l-.152-.154c-.049-.051-.102-.102-.15-.151l-.15-.152-.146-.149c-.051-.053-.105-.104-.157-.156a19.892 19.892 0 00-.144-.145c-.054-.051-.104-.104-.156-.155-.051-.05-.102-.099-.15-.148-.048-.051-.1-.102-.148-.151-.051-.049-.102-.098-.148-.146-.048-.052-.102-.104-.152-.154-.048-.049-.1-.098-.146-.147-.05-.053-.104-.105-.156-.156-.048-.049-.098-.098-.144-.147l-.158-.156c-.049-.049-.102-.098-.146-.146a7.413 7.413 0 00-.154-.153c-.047-.05-.098-.098-.146-.15-.052-.051-.104-.102-.153-.153-.047-.049-.097-.096-.146-.145-.05-.054-.104-.105-.154-.159l-.15-.149a7.182 7.182 0 00-.15-.152c-.048-.051-.102-.1-.148-.149l-.15-.152c-.067-.055-.119-.106-.171-.157a6.624 6.624 0 00-.144-.146c-.051-.051-.101-.1-.15-.152-.071-.055-.125-.107-.175-.155-.046-.051-.098-.1-.146-.149-.049-.055-.104-.105-.153-.157a9.566 9.566 0 00-6.858-2.893c-.596 0-1.171.087-1.732.201-.004-.005-.012-.007-.016-.011-.044-.049-.094-.092-.14-.141-.05-.055-.108-.106-.158-.163-.046-.048-.096-.091-.144-.14-.049-.055-.106-.104-.158-.159-.044-.052-.102-.096-.148-.148-.046-.051-.1-.098-.148-.151-.047-.051-.102-.1-.15-.151-.046-.052-.104-.099-.15-.15-.045-.051-.1-.096-.146-.147-.05-.055-.108-.105-.16-.16-.044-.051-.101-.096-.147-.147-.047-.051-.098-.096-.146-.147a.916.916 0 01-.208-.16c-.051-.056-.106-.104-.159-.158-.043-.052-.1-.099-.146-.15-.046-.051-.104-.098-.149-.149a11.699 11.699 0 00-8.643-3.81c-5.391 0-9.924 3.644-11.296 8.597-.812-.255-1.658-.43-2.552-.43A8.534 8.534 0 009.613 29.5c0 2.396.995 4.553 2.582 6.1.049.053.101.102.152.15.049.05.1.104.151.152.049.052.098.102.149.15.05.049.101.102.152.15.049.048.1.1.151.148.049.051.101.102.152.15.049.051.1.104.151.15.049.05.098.1.147.146l.156.156c.049.051.096.1.147.146.051.049.101.1.152.148.049.05.098.104.149.152.051.052.102.103.156.152.047.047.096.1.145.146.051.05.102.104.155.155.047.049.096.099.146.145l.155.158c.049.048.098.101.149.146.05.049.101.102.152.148.049.051.098.104.149.15.051.051.102.104.154.153.047.046.096.097.145.142.051.055.104.11.16.162l.145.143c.051.051.1.104.153.154.049.049.098.101.15.149.051.05.102.101.153.154.047.046.094.096.143.142.051.055.105.106.158.158.049.051.098.1.149.148.051.05.1.102.152.148.049.053.098.1.149.146.049.052.1.104.151.154.049.051.101.102.152.15.049.05.1.1.151.148.049.052.1.104.152.15l.153.152c.049.048.096.098.147.145.051.053.101.105.154.153.049.052.1.104.151.151.049.049.098.103.15.147.049.05.1.103.151.149.049.053.098.101.149.15.051.055.105.104.156.155.049.048.096.099.145.144.034.039.064.076.098.111-1.118.094-2.013 1.004-2.013 2.139 0 .631.281 1.181.714 1.567.049.054.098.104.154.154.047.052.096.101.149.147.049.051.098.104.151.151.049.054.099.103.152.149.047.053.096.104.149.149.047.05.096.101.149.15.05.054.099.104.154.153.047.051.096.101.149.146.049.054.098.104.154.153.047.051.096.101.149.146.049.055.098.104.154.154.047.052.096.1.149.146.049.053.098.104.153.152.047.053.096.1.15.15.049.054.098.104.153.15.047.053.096.102.15.148a1.5 1.5 0 00.151.148c.047.055.096.104.149.15.049.055.098.104.154.154.047.05.094.1.147.146.049.056.098.104.153.152.05.052.099.106.152.151.047.055.096.103.151.149.049.054.096.101.15.147.049.055.096.106.151.152.051.072.1.122.153.168.05.055.097.104.152.15.049.054.096.104.151.15.05.054.096.104.153.149.047.054.096.104.149.149.049.057.098.104.154.154.047.055.096.101.149.146.049.054.096.106.151.153.049.053.098.104.152.149.049.056.098.104.151.152.047.052.096.1.149.147.05.053.097.104.152.149.049.054.098.104.151.151a1.3 1.3 0 00.15.147c.049.056.098.104.151.154.049.052.098.1.151.149.032.037.058.078.093.112.025.024.053.046.08.069.026.025.045.056.071.078.026.031.055.047.083.072l.067.08c.026.026.054.045.082.07.026.027.045.055.073.079.025.028.051.046.079.069.025.025.045.056.07.08.026.024.053.045.082.072.026.027.044.053.073.077.025.026.051.046.078.069.026.029.045.058.073.084.026.025.053.045.079.068.025.027.045.055.072.08.026.026.054.047.081.072.026.027.047.055.073.079a.59.59 0 00.077.065c.025.029.047.058.074.084.024.024.051.045.077.07.026.021.044.053.071.077.025.026.053.048.08.073.024.023.045.054.069.076.028.027.055.049.083.072.025.029.045.055.072.08.026.026.052.045.079.07.026.023.044.055.071.079.025.024.053.046.081.073.025.025.045.052.072.078.026.026.051.043.08.068.026.027.044.055.073.079.025.026.051.046.078.071.026.029.045.056.073.082.026.025.051.045.079.068.025.027.045.053.07.08.026.026.054.049.082.072.026.027.044.055.073.079.025.024.051.046.079.071.023.023.045.05.07.074.028.028.056.051.083.074.024.029.044.055.071.079.025.024.053.046.081.071.025.027.045.054.07.074.026.031.053.051.083.076.024.027.045.053.071.078.025.024.051.047.078.07.026.025.045.055.073.079l.082.073c.025.027.044.052.072.078.026.027.052.045.079.068.026.027.045.055.071.079.025.026.053.046.081.071.025.029.047.057.074.082a.815.815 0 00.077.068c.026.027.047.053.075.082.025.024.051.047.079.07.025.027.047.055.072.079.024.024.051.044.077.067.025.028.044.056.073.082.025.025.053.047.08.071.026.024.045.054.071.077.025.025.053.048.082.072.025.027.044.055.07.078.026.027.054.047.081.072.024.028.045.053.071.078.025.029.053.047.079.07.025.025.045.055.07.077.026.026.053.048.081.075.023.024.045.052.07.076.026.027.054.047.082.076.026.026.047.051.073.078s.051.044.079.07c.025.025.045.053.072.076.026.027.054.045.082.072.024.026.045.051.071.076a.959.959 0 00.081.075c.025.026.045.054.072.079l.077.066c.026.028.047.059.075.088.025.023.051.043.078.065.026.024.045.054.071.077.026.031.055.048.083.072.023.027.044.055.067.074.026.029.054.051.082.076.026.024.045.055.073.078.025.029.053.049.082.073l.067.077c.026.029.053.046.082.072.026.027.047.053.073.076.023.027.051.047.076.071.026.027.047.056.075.083.026.025.051.044.079.069.025.026.045.054.072.079.026.025.052.043.079.07.026.026.044.057.073.08.025.025.051.047.079.071.025.026.047.052.074.079.024.027.052.046.077.066.026.028.044.057.073.08.025.027.053.049.078.073.026.025.045.056.071.079.026.025.053.046.081.071.025.028.045.054.073.079.025.029.051.046.078.07.026.024.044.055.071.078.025.025.053.049.081.073.024.026.045.052.071.079.027.027.052.044.08.068.025.026.045.055.072.08.025.025.051.045.08.069.024.029.047.058.073.083s.052.044.079.069c.025.026.045.052.072.079.025.027.054.048.08.072s.045.055.071.08c.025.023.054.045.079.069.023.024.045.054.068.079.027.025.056.046.082.07.025.029.045.055.072.08.025.023.053.045.08.069.025.029.045.056.069.079.026.027.056.046.083.071a.807.807 0 00.068.075c.024.029.055.05.078.074.027.024.047.055.071.08l.079.069.075.084c.024.024.052.045.077.065.025.027.043.055.072.08.024.028.055.047.078.074.025.024.047.051.071.079.024.024.052.044.079.065.025.029.046.055.075.084.024.025.05.046.077.07.025.027.048.055.074.08.022.024.049.045.074.065.025.028.045.058.073.084.024.024.054.045.079.069.025.025.046.051.07.078.024.026.053.047.084.074.021.024.041.053.065.077.025.024.056.046.081.07.027.028.044.055.071.079.024.025.052.046.077.07.027.029.045.055.07.08.026.028.055.045.084.072.021.025.043.053.065.077.024.026.054.05.081.073.027.027.044.056.072.08.024.026.051.043.08.07.021.021.041.047.063.07C50.82 62.188 62.941 49.596 63.9 33.979z"/></g><path fill="#FFF" d="M54.393 28.433c0 5.299-4.297 9.6-9.601 9.6h-26.65a8.533 8.533 0 010-17.066c.894 0 1.741.177 2.552.43 1.374-4.953 5.904-8.597 11.298-8.597 4.542 0 8.475 2.588 10.425 6.364.763-.194 1.55-.33 2.375-.33a9.599 9.599 0 019.601 9.599zM32 42.482a2.133 2.133 0 100 4.27 2.133 2.133 0 000-4.27zm12.8 0a2.133 2.133 0 00-2.133 2.134c0 1.18.954 2.134 2.133 2.134a2.134 2.134 0 000-4.268zm-25.6 0a2.134 2.134 0 10.002 4.268 2.134 2.134 0 00-.002-4.268zm19.2 6.402a2.133 2.133 0 100 4.267c1.179 0 2.133-.953 2.133-2.133s-.954-2.134-2.133-2.134zm-12.8 0a2.133 2.133 0 100 4.266 2.133 2.133 0 000-4.266z"/></svg>