<svg version="1.0" xmlns="http://www.w3.org/2000/svg" width="682.667" height="682.667" viewBox="0 0 512 512"><g fill="#8A7EF2"><path d="M232 1.1c-19.8 1.9-45.1 7.6-63.5 14.3C156.1 20 131 32.2 121 38.6 96.2 54.4 68.2 80 51.8 102c-26.1 35-42.3 73.5-49 116.5-3.1 20-3.1 55 0 75 8.7 55.6 32.9 103.3 72.6 143.1 22.1 22 41.2 35.7 68.1 48.9 18.6 9.2 30.6 13.6 49.9 18.5 59.1 14.9 119.9 8.7 174.3-17.9 24.6-12.1 45.2-26.4 64.9-45.4 14.8-14.2 25.3-26.7 36.4-43.5 51.7-77.7 57-175.5 14.1-258.7-12.7-24.6-25.9-42.5-47-63.5-22.2-22.1-42.5-36.6-70.6-50.1C324.6 5.2 277.3-3.2 232 1.1zm56 25.5c56.6 8.1 109.4 37.4 145.2 80.5 22.2 26.8 38.6 58.3 46.7 90.2 8.3 32.2 9.8 65.5 4.5 96.7-15.5 90.9-82.6 163.8-171.8 186.5-20.7 5.2-34.2 6.8-57.1 6.8-22.4 0-37.1-1.9-57.7-7.2-80.5-20.8-145.3-85.5-165.7-165.4C18 259.8 23.4 205.1 48 154.5c11.4-23.5 25.2-42.7 44.5-62C132 53 182 29.8 238 25c12.4-1.1 36.7-.3 50 1.6z"/><path d="M164.7 160c-18.5 4.6-28.5 24.7-20.3 41.3 10.8 22.1 41.1 22.6 52.3.8 2.7-5.1 3.3-7.4 3.3-12.5 0-8.2-2.2-14.4-7.1-20-6.9-7.8-18.9-11.9-28.2-9.6zm169.4 0c-12.6 2.6-21.9 13.6-22.8 27-.9 12.4 5.8 23.4 17.4 28.7 4.8 2.2 6.5 2.5 13.2 2.1 9.1-.6 14-2.8 19.9-9.1 5.8-6.3 7.5-10.8 7.6-19.7.1-9.3-2.3-15-8.8-21.4-6.7-6.5-17.2-9.5-26.5-7.6zM221.5 303.5c-12.6 2.3-26.2 7.8-36.5 14.8-6.6 4.5-18.6 16.3-23.5 23.2-11.2 15.8-17.5 34.7-17.5 52.8 0 7.7.1 8 3.4 11.3 2.9 2.9 4.1 3.4 8 3.4 3.8 0 5.2-.6 8.2-3.3 3.5-3.2 3.7-3.6 4.5-13 1.8-19 8.2-33.1 20.9-45.7 12.1-12 24-17.9 40.5-20.1 12.9-1.7 58.1-.7 66 1.5 29.3 8 49.6 32.5 52.5 63.3 1 11 2.6 14 8.4 16.2 5 1.9 10.7.2 13.8-4.2 2-2.8 2.3-4.3 2.1-11.2-1.1-43.6-34.3-81.4-78-89-11.1-1.9-62.3-2-72.8 0z"/></g></svg>